<mxfile host="app.diagrams.net" agent="Mozilla/5.0 (X11; Linux x86_64) AppleWebKit/537.36 (KHTML, like Gecko) Chrome/131.0.0.0 Safari/537.36" version="26.0.2">
  <diagram name="Page-1" id="7qOsGG2ZMEtoVn5gS-M5">
    <mxGraphModel dx="2131" dy="685" grid="1" gridSize="10" guides="1" tooltips="1" connect="1" arrows="1" fold="1" page="1" pageScale="1" pageWidth="827" pageHeight="1169" math="0" shadow="0">
      <root>
        <mxCell id="0" />
        <mxCell id="1" parent="0" />
        <mxCell id="34XCymCDlDvmFXix4drP-160" value="" style="endArrow=none;html=1;rounded=1;strokeWidth=10;strokeColor=#24B064;entryX=0.016;entryY=0.642;entryDx=0;entryDy=0;entryPerimeter=0;" parent="1" edge="1">
          <mxGeometry width="50" height="50" relative="1" as="geometry">
            <mxPoint x="-733.43" y="493" as="sourcePoint" />
            <mxPoint x="-304.5599999999999" y="493" as="targetPoint" />
          </mxGeometry>
        </mxCell>
        <mxCell id="nzHH21q8slYw_IF0dqfJ-4" value="" style="group;fontFamily=Helvetica;fontSize=11;fontColor=default;" parent="1" vertex="1" connectable="0">
          <mxGeometry x="-588" y="749.5" width="88" height="92" as="geometry" />
        </mxCell>
        <mxCell id="nzHH21q8slYw_IF0dqfJ-5" value="" style="shape=image;aspect=fixed;image=data:image/svg+xml,PD94bWwgdmVyc2lvbj0iMS4wIiBlbmNvZGluZz0iVVRGLTgiIHN0YW5kYWxvbmU9Im5vIj8+CjwhLS0gQ3JlYXRlZCB3aXRoIElua3NjYXBlIChodHRwOi8vd3d3Lmlua3NjYXBlLm9yZy8pIC0tPgoKPHN2ZwogICB3aWR0aD0iMjYuNDU4MzI2bW0iCiAgIGhlaWdodD0iMjkuMTA0Mm1tIgogICB2aWV3Qm94PSIwIDAgMjYuNDU4MzI2IDI5LjEwNDIiCiAgIHZlcnNpb249IjEuMSIKICAgaWQ9InN2ZzczNjIiCiAgIHhtbG5zPSJodHRwOi8vd3d3LnczLm9yZy8yMDAwL3N2ZyIKICAgeG1sbnM6c3ZnPSJodHRwOi8vd3d3LnczLm9yZy8yMDAwL3N2ZyI+CiAgPGRlZnMKICAgICBpZD0iZGVmczczNTkiIC8+CiAgPGcKICAgICBpZD0ibGF5ZXIxIgogICAgIHN0eWxlPSJkaXNwbGF5OmlubGluZSIKICAgICB0cmFuc2Zvcm09InRyYW5zbGF0ZSgzNC4zOTU4MzMsLTE5My4xNDU4NCkiPgogICAgPGcKICAgICAgIGlkPSJnMi0wLTQiCiAgICAgICB0cmFuc2Zvcm09InRyYW5zbGF0ZSgtMjE2Ljk1ODMzLDk3Ljg5NTg0MykiCiAgICAgICBzdHlsZT0iZGlzcGxheTppbmxpbmUiPgogICAgICA8ZwogICAgICAgICBpZD0iZzE4NDg4LTU0LTQtMS01IgogICAgICAgICB0cmFuc2Zvcm09InRyYW5zbGF0ZSg1OC4yMDgzMzQsMi42NDU4MzY5KSI+CiAgICAgICAgPHBhdGgKICAgICAgICAgICBpZD0icGF0aDYyNzYtNC00LTY1LTUtOSIKICAgICAgICAgICBzdHlsZT0iZmlsbDojZmZmZmZmO3N0cm9rZS13aWR0aDowLjIzMDcwMiIKICAgICAgICAgICBkPSJtIDEzMi4yOTE2Niw5My45MjcwNzIgdiAyMS4xNjY2NjggaCAxNS44NzUwMSBWIDk5LjIxODc0OCBsIC01LjI5MTY4LC01LjI5MTY3NiB6IiAvPgogICAgICAgIDxwYXRoCiAgICAgICAgICAgaWQ9InBhdGg1ODYyLTEtMy00LTYiCiAgICAgICAgICAgZD0ibSAxNDkuNDg5NTgsOTcuODk1ODMyIGMgMCwtMC4yNjQ1NzYgLTAuMjY0NTgsLTAuNTI5MTY0IC0wLjUyOTE3LC0wLjc5Mzc1MiBsIC00LjQ5NzkxLC0zLjk2ODc0OCBjIC0wLjI2NDU4LC0wLjI2NDU4OCAtMC41MjkxNywtMC41MjkxNjQgLTAuODI3ODgsLTAuNTI5MTY0IGwgLTYuMDUxMjksLTEuM2UtNSAtNS4yOTE2NywxLjNlLTUgYyAtMC43OTM3NSwyZS02IC0xLjMyMjkyLDAuNTI5MTY0IC0xLjMyMjkyLDEuMzIyOTE2IHYgMjEuMTY2NjY2IGMgMCwwLjc5Mzc1IDAuNTI5MTcsMS4zMjI5MiAxLjMyMjkyLDEuMzIyOTIgaCA3LjkzNzUxIDcuOTM3NSBjIDAuNzkzNzQsMCAxLjMyMjkxLC0wLjUyOTE3IDEuMzIyOTEsLTEuMzIyOTIgeiBtIC0xLjMyMjkxLDE3LjE5NzkxOCBIIDEzMi4yOTE2NiBWIDkzLjkyNzA4NCBoIDEwLjU4MzMzIHYgNC43NjI1IGMgMCwwLjMxNzUwOCAwLjIwMzUzLDAuNTI5MTY0IDAuNTI5MTcsMC41MjkxNjQgaCA0Ljc2MjUxIHoiCiAgICAgICAgICAgc3R5bGU9InN0cm9rZS13aWR0aDowLjIzMTY3IiAvPgogICAgICAgIDxwYXRoCiAgICAgICAgICAgaWQ9InJlY3QxODM0Ny0yLTYtNi0wIgogICAgICAgICAgIHN0eWxlPSJmaWxsLXJ1bGU6ZXZlbm9kZDtzdHJva2Utd2lkdGg6MC4xMjIwMjc7cGFpbnQtb3JkZXI6ZmlsbCBtYXJrZXJzIHN0cm9rZSIKICAgICAgICAgICBkPSJtIDEzMS4wMTc1MiwxMDEuODY0NiBoIDE4LjQyMzI2IGMgMC43NTk5MywwIDEuMzcxNzEsMC40OTcwNiAxLjM3MTcxLDEuMTE0NSB2IDQuMTc3MTQgMS41MzEzMyBjIDAsMC42MTc0NCAtMC42MTE3OCwxLjExNDUgLTEuMzcxNzEsMS4xMTQ1IGggLTE4LjQyMzI2IGMgLTAuNzU5OTIsMCAtMS4zNzE3LC0wLjQ5NzA2IC0xLjM3MTcsLTEuMTE0NSB2IC0yLjg1NDI1IC0yLjg1NDIyIGMgMCwtMC42MTc0NCAwLjYxMTc4LC0xLjExNDUgMS4zNzE3LC0xLjExNDUgeiIgLz4KICAgICAgICA8dGV4dAogICAgICAgICAgIHhtbDpzcGFjZT0icHJlc2VydmUiCiAgICAgICAgICAgc3R5bGU9ImZvbnQtd2VpZ2h0OmJvbGQ7Zm9udC1zaXplOjUuMjkxNjdweDtmb250LWZhbWlseTonTWF2ZW4gUHJvJzstaW5rc2NhcGUtZm9udC1zcGVjaWZpY2F0aW9uOidNYXZlbiBQcm8sIEJvbGQnO3RleHQtYWxpZ246Y2VudGVyO3RleHQtb3JpZW50YXRpb246dXByaWdodDt0ZXh0LWFuY2hvcjptaWRkbGU7ZmlsbDojZmZmZmZmO2ZpbGwtb3BhY2l0eToxO3N0cm9rZTpub25lO3N0cm9rZS13aWR0aDowLjIyNzk1MTtzdHJva2UtbGluZWNhcDpyb3VuZDtzdHJva2UtbGluZWpvaW46bWl0ZXI7c3Ryb2tlLW1pdGVybGltaXQ6MC42O3N0cm9rZS1kYXNoYXJyYXk6bm9uZTtzdHJva2UtZGFzaG9mZnNldDoyLjAwMDAxO3N0cm9rZS1vcGFjaXR5OjE7cGFpbnQtb3JkZXI6ZmlsbCBtYXJrZXJzIHN0cm9rZTtzdG9wLWNvbG9yOiMwMDAwMDAiCiAgICAgICAgICAgeD0iMTQwLjMzODk2IgogICAgICAgICAgIHk9IjEwNy4yMTE4IgogICAgICAgICAgIGlkPSJ0ZXh0MTg1NjktNi00MS0zLTIiPjx0c3BhbgogICAgICAgICAgICAgaWQ9InRzcGFuMTg1NjctNDItNS0xLTYiCiAgICAgICAgICAgICBzdHlsZT0iZmlsbDojZmZmZmZmO2ZpbGwtb3BhY2l0eToxO3N0cm9rZTpub25lO3N0cm9rZS13aWR0aDowLjIyNzk1MSIKICAgICAgICAgICAgIHg9IjE0MC4zMzg5NiIKICAgICAgICAgICAgIHk9IjEwNy4yMTE4Ij5mYXN0cTwvdHNwYW4+PC90ZXh0PgogICAgICA8L2c+CiAgICAgIDxnCiAgICAgICAgIGlkPSJnMTg0ODgtNTQtOC0wLTMtNiIKICAgICAgICAgdHJhbnNmb3JtPSJ0cmFuc2xhdGUoNTUuNTYyNTA0LDUuMjkxNjYyNCkiPgogICAgICAgIDxwYXRoCiAgICAgICAgICAgaWQ9InBhdGg2Mjc2LTQtNC02LTktMDYtMSIKICAgICAgICAgICBzdHlsZT0iZmlsbDojZmZmZmZmO3N0cm9rZS13aWR0aDowLjIzMDcwMiIKICAgICAgICAgICBkPSJtIDEzMi4yOTE2Niw5My45MjcwNzIgdiAyMS4xNjY2NjggaCAxNS44NzUwMSBWIDk5LjIxODc0OCBsIC01LjI5MTY4LC01LjI5MTY3NiB6IiAvPgogICAgICAgIDxwYXRoCiAgICAgICAgICAgaWQ9InBhdGg1ODYyLTEtMS0zLTgtMCIKICAgICAgICAgICBkPSJtIDE0OS40ODk1OCw5Ny44OTU4MzIgYyAwLC0wLjI2NDU3NiAtMC4yNjQ1OCwtMC41MjkxNjQgLTAuNTI5MTcsLTAuNzkzNzUyIGwgLTQuNDk3OTEsLTMuOTY4NzQ4IGMgLTAuMjY0NTgsLTAuMjY0NTg4IC0wLjUyOTE3LC0wLjUyOTE2NCAtMC44Mjc4OCwtMC41MjkxNjQgaCAtMy40MDU0NSAtNy45Mzc1MSBjIC0wLjc5Mzc1LDAgLTEuMzIyOTIsMC41MjkxNjQgLTEuMzIyOTIsMS4zMjI5MTYgMCw3LjA1NTU1NiAwLDE0LjExMTEwNiAwLDIxLjE2NjY2NiAwLDAuNzkzNzUgMC41MjkxNywxLjMyMjkyIDEuMzIyOTIsMS4zMjI5MiBoIDcuOTM3NTEgNy45Mzc1IGMgMC43OTM3NCwwIDEuMzIyOTEsLTAuNTI5MTcgMS4zMjI5MSwtMS4zMjI5MiB6IG0gLTEuMzIyOTEsMTcuMTk3OTE4IEggMTMyLjI5MTY2IFYgOTMuOTI3MDg0IGggMTAuNTgzMzMgdiA0Ljc2MjUgYyAwLDAuMzE3NTA4IDAuMjAzNTMsMC41MjkxNjQgMC41MjkxNywwLjUyOTE2NCBoIDQuNzYyNTEgeiIKICAgICAgICAgICBzdHlsZT0ic3Ryb2tlLXdpZHRoOjAuMjMxNjciIC8+CiAgICAgICAgPHBhdGgKICAgICAgICAgICBpZD0icmVjdDE4MzQ3LTItNS0xLTAtNiIKICAgICAgICAgICBzdHlsZT0iZmlsbC1ydWxlOmV2ZW5vZGQ7c3Ryb2tlLXdpZHRoOjAuMTIyMDI3O3BhaW50LW9yZGVyOmZpbGwgbWFya2VycyBzdHJva2UiCiAgICAgICAgICAgZD0ibSAxMzEuMDE3NTIsMTAxLjg2NDYgYyA2LjE0MTA5LDAgMTIuMjgyMTcsMCAxOC40MjMyNiwwIDAuNzU5OTMsMCAxLjM3MTcxLDAuNDk3MDYgMS4zNzE3MSwxLjExNDUgdiAyLjg1NDIyIDIuODU0MjUgYyAwLDAuNjE3NDQgLTAuNjExNzgsMS4xMTQ1IC0xLjM3MTcxLDEuMTE0NSAtNi4xNDEwOSwwIC0xMi4yODIxNywwIC0xOC40MjMyNiwwIC0wLjc1OTkyLDAgLTEuMzcxNywtMC40OTcwNiAtMS4zNzE3LC0xLjExNDUgdiAtMi44NTQyNSAtMi44NTQyMiBjIDAsLTAuNjE3NDQgMC42MTE3OCwtMS4xMTQ1IDEuMzcxNywtMS4xMTQ1IHoiIC8+CiAgICAgICAgPHRleHQKICAgICAgICAgICB4bWw6c3BhY2U9InByZXNlcnZlIgogICAgICAgICAgIHN0eWxlPSJmb250LXdlaWdodDpib2xkO2ZvbnQtc2l6ZTo1LjI5MTY3cHg7Zm9udC1mYW1pbHk6J01hdmVuIFBybyc7LWlua3NjYXBlLWZvbnQtc3BlY2lmaWNhdGlvbjonTWF2ZW4gUHJvLCBCb2xkJzt0ZXh0LWFsaWduOmNlbnRlcjt0ZXh0LW9yaWVudGF0aW9uOnVwcmlnaHQ7dGV4dC1hbmNob3I6bWlkZGxlO2ZpbGw6I2ZmZmZmZjtmaWxsLW9wYWNpdHk6MTtzdHJva2U6bm9uZTtzdHJva2Utd2lkdGg6MC4yMjc5NTE7c3Ryb2tlLWxpbmVjYXA6cm91bmQ7c3Ryb2tlLWxpbmVqb2luOm1pdGVyO3N0cm9rZS1taXRlcmxpbWl0OjAuNjtzdHJva2UtZGFzaGFycmF5Om5vbmU7c3Ryb2tlLWRhc2hvZmZzZXQ6Mi4wMDAwMTtzdHJva2Utb3BhY2l0eToxO3BhaW50LW9yZGVyOmZpbGwgbWFya2VycyBzdHJva2U7c3RvcC1jb2xvcjojMDAwMDAwIgogICAgICAgICAgIHg9IjE0MC4zMzg5NiIKICAgICAgICAgICB5PSIxMDcuMjExOCIKICAgICAgICAgICBpZD0idGV4dDE4NTY5LTYtNC03LTItNyI+PHRzcGFuCiAgICAgICAgICAgICBpZD0idHNwYW4xODU2Ny00Mi0xLTUtNzEtMCIKICAgICAgICAgICAgIHN0eWxlPSJmaWxsOiNmZmZmZmY7ZmlsbC1vcGFjaXR5OjE7c3Ryb2tlOm5vbmU7c3Ryb2tlLXdpZHRoOjAuMjI3OTUxIgogICAgICAgICAgICAgeD0iMTQwLjMzODk2IgogICAgICAgICAgICAgeT0iMTA3LjIxMTgiPmZhc3RxPC90c3Bhbj48L3RleHQ+CiAgICAgIDwvZz4KICAgICAgPGcKICAgICAgICAgaWQ9ImcxODQ4OC01NC04LTAtOC02LTQiCiAgICAgICAgIHRyYW5zZm9ybT0idHJhbnNsYXRlKDUyLjkxNjY3NSw3LjkzNzUxNjIpIj4KICAgICAgICA8cGF0aAogICAgICAgICAgIGlkPSJwYXRoNjI3Ni00LTQtNi05LTAtMi0zIgogICAgICAgICAgIHN0eWxlPSJmaWxsOiNmZmZmZmY7c3Ryb2tlLXdpZHRoOjAuMjMwNzAyIgogICAgICAgICAgIGQ9Im0gMTMyLjI5MTY2LDkzLjkyNzA3MiB2IDIxLjE2NjY2OCBoIDE1Ljg3NTAxIFYgOTkuMjE4NzQ4IGwgLTUuMjkxNjgsLTUuMjkxNjc2IHoiIC8+CiAgICAgICAgPHBhdGgKICAgICAgICAgICBpZD0icGF0aDU4NjItMS0xLTMtOS04LTAiCiAgICAgICAgICAgZD0ibSAxNDkuNDg5NTgsOTcuODk1ODMyIGMgMCwtMC4yNjQ1NzYgLTAuMjY0NTgsLTAuNTI5MTY0IC0wLjUyOTE3LC0wLjc5Mzc1MiBsIC00LjQ5NzkxLC0zLjk2ODc0OCBjIC0wLjI2NDU4LC0wLjI2NDU4OCAtMC41MjkxNywtMC41MjkxNjQgLTAuODI3ODgsLTAuNTI5MTY0IGggLTMuNDA1NDUgLTcuOTM3NTEgYyAtMC43OTM3NSwwIC0xLjMyMjkyLDAuNTI5MTY0IC0xLjMyMjkyLDEuMzIyOTE2IHYgNy45Mzc0NzYgMTMuMjI5MTkgYyAwLDAuNzkzNzUgMC41MjkxNywxLjMyMjkyIDEuMzIyOTIsMS4zMjI5MiBsIDEwLjU4MzMzLC0zZS01IDUuMjkxNjgsM2UtNSBjIDAuNzkzNzQsMCAxLjMyMjkxLC0wLjUyOTE3IDEuMzIyOTEsLTEuMzIyOTIgeiBtIC0xLjMyMjkxLDE3LjE5NzkxOCBIIDEzMi4yOTE2NiBWIDkzLjkyNzA4NCBoIDEwLjU4MzMzIHYgNC43NjI1IGMgMCwwLjMxNzUwOCAwLjIwMzUzLDAuNTI5MTY0IDAuNTI5MTcsMC41MjkxNjQgaCA0Ljc2MjUxIHoiCiAgICAgICAgICAgc3R5bGU9InN0cm9rZS13aWR0aDowLjIzMTY3IiAvPgogICAgICAgIDxwYXRoCiAgICAgICAgICAgaWQ9InJlY3QxODM0Ny0yLTUtMS02LTItMCIKICAgICAgICAgICBzdHlsZT0iZmlsbC1ydWxlOmV2ZW5vZGQ7c3Ryb2tlLXdpZHRoOjAuMTIyMDI3O3BhaW50LW9yZGVyOmZpbGwgbWFya2VycyBzdHJva2UiCiAgICAgICAgICAgZD0ibSAxMzEuMDE3NTIsMTAxLjg2NDYgYyA2LjE0MTA5LDAgMTIuMjgyMTcsMCAxOC40MjMyNiwwIDAuNzU5OTMsMCAxLjM3MTcxLDAuNDk3MDYgMS4zNzE3MSwxLjExNDUgdiAyLjg1NDIyIDIuODU0MjUgYyAwLDAuNjE3NDQgLTAuNjExNzgsMS4xMTQ1IC0xLjM3MTcxLDEuMTE0NSAtNi4xNDEwOSwwIC0xMi4yODIxNywwIC0xOC40MjMyNiwwIC0wLjc1OTkyLDAgLTEuMzcxNywtMC40OTcwNiAtMS4zNzE3LC0xLjExNDUgdiAtMi44NTQyNSAtMi44NTQyMiBjIDAsLTAuNjE3NDQgMC42MTE3OCwtMS4xMTQ1IDEuMzcxNywtMS4xMTQ1IHoiIC8+CiAgICAgIDwvZz4KICAgIDwvZz4KICA8L2c+Cjwvc3ZnPgo=;fontFamily=Helvetica;fontSize=11;fontColor=default;" parent="nzHH21q8slYw_IF0dqfJ-4" vertex="1">
          <mxGeometry width="83.63636363636363" height="92" as="geometry" />
        </mxCell>
        <mxCell id="34XCymCDlDvmFXix4drP-140" style="edgeStyle=orthogonalEdgeStyle;rounded=0;orthogonalLoop=1;jettySize=auto;html=1;exitX=0.75;exitY=0;exitDx=0;exitDy=0;" parent="nzHH21q8slYw_IF0dqfJ-4" source="nzHH21q8slYw_IF0dqfJ-6" target="nzHH21q8slYw_IF0dqfJ-5" edge="1">
          <mxGeometry relative="1" as="geometry" />
        </mxCell>
        <mxCell id="nzHH21q8slYw_IF0dqfJ-6" value="&lt;font style=&quot;font-size: 20px;&quot; color=&quot;#ffffff&quot; data-font-src=&quot;https://fonts.googleapis.com/css?family=Maven+Pro&quot; face=&quot;Maven Pro&quot;&gt;&lt;b&gt;csv&lt;/b&gt;&lt;/font&gt;" style="text;html=1;strokeColor=none;fillColor=none;align=center;verticalAlign=middle;whiteSpace=wrap;rounded=0;fontSize=11;fontFamily=Helvetica;fontColor=default;" parent="nzHH21q8slYw_IF0dqfJ-4" vertex="1">
          <mxGeometry x="8.8" y="46" width="52.8" height="25.09090909090909" as="geometry" />
        </mxCell>
        <mxCell id="nzHH21q8slYw_IF0dqfJ-7" value="" style="shape=image;verticalLabelPosition=bottom;labelBackgroundColor=default;verticalAlign=top;aspect=fixed;imageAspect=0;image=data:image/png,iVBORw0KGgoAAAANSUhEUgAACPwAAAJoCAYAAAD4AG1eAAABe2lDQ1BJQ0MgUHJvZmlsZQAAeJx1kd8rg1EYxz82ItsiXLhwsTSuNs3U4kaZNGpJM2W42d79Utu8ve8kuVVuV5S48euCv4Bb5VopIiV3yjVxg17Pu622ZM/pOc/nfM95ns55DlgiWSWnN3ohly9o4WDAOR9dcDa/YMeCDQcdMUVXx2ZmQtS1z3sazHjrMWvVP/ev2RJJXYGGFuFRRdUKwpPCobWCavKOcJeSiSWEz4TdmlxQ+M7U42V+NTld5m+TtUh4HCztws50DcdrWMloOWF5Oa5cdlWp3Md8iT2Zn5uV2Cveg06YIAGcTDHBOH4GGZHZjwcfA7KiTr63lD/NiuQqMquso7FMmgwF3KKuSvWkxJToSRlZ1s3+/+2rnhrylavbA9D0bBjvfdC8DT9Fw/g6MoyfY7A+wWW+mr9yCMMfohermusA2jbh/KqqxXfhYgu6H9WYFitJVnFLKgVvp+CIQucNtC6We1bZ5+QBIhvyVdewtw/9cr5t6RfwxmewtJ0NfgABAABJREFUeJzs3XecXHd59v/r/p7pu9KqF1vFvRswpjdjSiBU22DTiwsmeQiBkDxJSOAhJgnJkzyEXxoBYxuMSUJswKaEkkDAdgKhBQyY4oKRLFfJalumnfO9f3/MrrQSsq2ye87s7Oft13ql3dm5r11JW2auub8SAAAAAAAAAAAAAAAAAAAAAAAAAAAAAAAAAAAAAAAAAAAAAAAAAAAAAAAAAAAAAAAAAAAAAAAAAAAAAAAAAAAAAAAAAAAAAAAAAAAAAAAAAAAAAAAAAAAAAAAAAAAAAAAAAAAAAAAAAAAAAAAAAAAAAAAAAAAAAAAAAAAAAAAAAAAAAAAAAAAAAAAAAAAAAAAAAAAAAAAAAAAAAAAAAAAAAAAAAAAAAAAAAAAAAAAAAAAAAAAAAAAAAAAAAAAAAAAAAAAAAAAAAAAAAAAAAAAAAAAAAAAAAAAAAAAAAAAAAAAAAAAAAAAAAAAAAAAAAAAAAAAAAAAAAAAAAAAAAAAAAAAAAAAAAAAAAAAAAAAAAAAAAAAAAAAAAAAAAAAAAAAAAAAAAAAAAAAAAAAAAAAAAAAAAAAAAAAAAAAAAAAAAAAAAAAAAAAAAAAAAAAAAAAAAAAAAAAAAAAAAAAAAAAAAAAAAAAAAAAAAAAAAAAAAAAAAAAAAAAAAAAAAAAAAAAAAAAAAAAAAAAAAAAAAAAAAAAAAAAAAAAAAAAAAAAAAAAAAAAAAAAAAAAAAAAAAAAAAAAAAAAAAAAAAAAAAAAAAAAAAAAAAAAAAAAAAAAAAAAAAAAAAAAAAAAAAAAAAAAAAAAAAAAAAAAAAAAAAAAAAAAAAAAAAAAAAAAAAAAAAAAAAAAAAAAAAAAAAAAAAAAAAAAAAAAAAAAAAAAAAAAAAAAAAAAAAAAAAAAAAAAAAAAAAAAAAAAAAAAAAAAAAAAAAAAAAAAAAAAAAAAAAAAAAAAAAAAAAAAAAAAAAAAAAAAAAAAAAAAAAAAAAAAAAAAAAAAAAAAAAAAAAAAAAAAAAAAAAAAAAAAAAAAAAAAAAAAAAAAAAAAAAAAAAAAAAAAAAAAAAAAAAAAAAAAAAAAAAAAAAAAAAAAAAAAAAAAAAAAAAAAAAAAAAAAAAAAAAAAAAAAAAAAAAAAAAAAAAAAAAAAAAAAAAAAAAAAAAAAAAAAAAAAAAAAAAAAAAAAAAAAAAAAAAAAAAAAAAAAAAAAAAAAAAAAAAAAAAAAAAAAAAAAAAAAAAAAAAAAAAAAAAAAAAAAAAAAAAAAAAAAAAAAAAAAAAAAAAAAAAABznhUdAAAAAAAAAJhDwrNOP2qBdysr0zSu8BCWV5PSipAkpakLuMuytDva9Xi3un5v2ezudOXKHddff30myQvMDgAAAAAABgSFHwAAAAAAAOBBnHHcccusEk6W/AS5PUruj3LZUSZVXF4xqWwhlPd+O3d3SW2XOia13bVT5ne57HaTvp549oNKx3/6xdtu21nAuwUAAAAAAOY4Cj8AAAAAAADANM854YTV7cSe5h6fZ7LTJD8xSZKSu+9ez+O9Xz3Uup5dN7yZ7fEyM1MW46jkt7rrR5K+Gkt+/Y0/uOWOGX9nAAAAAADAQKLwAwAAAAAAAEg649QTnmCZv8zNzg1mh0/dcBZ95k/hmir+SL3SkLtvcdcHs6T83v/84Q+3zfhAAAAAAAAwUCj8AAAAAAAAYD6zM0488ZkKeqvJnxLMRvbY5JNXCDMFk9LUL9WKlW+6/vrr05wjAAAAAACAOYTCDwAAAAAAAOalZ5xy3CNiDP9bwc8LFioe8y/6/BL3bq2THf7F227bXHQUAAAAAADQv0pFBwAAAAAAAADy9OxHPGKoGzu/E11vDcEWuc/OsV0Hw80mmiH0RxgAAAAAANC3KPwAAAAAAABg3njyiSee3M06f2lmvyrrn6KPJIVgijFevfyWW7YVnQUAAAAAAPQ3Cj8AAAAAAACYF8446fhzQ/D3mtnaGPun6CNJwUxZ5ncp+F9dI2VF5wEAAAAAAP2Nwg8AAAAAAAAG3hknHv9rZvZekzUeruxjZr3ne/3eJWlyI5BL8hnaDmRmiu5bzePrvvajW346I1cKAAAAAAAGGoUfAAAAAAAADDJ7+inHv808/KlM1Yc6wiuYTRV5Nku+KbrdYua3uPyWxEOauZZ50FKTFsv9UUF2xqFWfoKZYvRtMeiiG35yy1cO8eoAAAAAAMA8YQ9/EQAAAAAAAGBuOuOk495pFv7IpPBg5Zypoo/cv2nSx1XKrvmPm269W5NLffZ5vY9cv0jd+peTYKc/VInooSTBlEX/oUX7ja/+5Cc3HNSVAAAAAACAeYnCDwAAAAAAAAbS0088/i0K9leSwr5eP3VUV4zx39z0d1Zq3Xj9TRu27+/1n3HS8W8OIfy1ux/QbWxmJrl33fzjIYlv/4+bbr3rQN4eAAAAAACAwg8AAAAAAAAGzjNOPO5XPUn+RdIC38cGHjOTu7ejx/fYePsvrt+woXWgM8447rhlKtt3Egvr92fLz1TByN2/J/mffu3mn10rKR7oXAAAAAAAAAo/AAAAAAAAGChnnHLcCebhC8HsiH0VcYKZYvQ7ovlbbrj5Z589lFlnnnzCa1261Myq+yoWSb2ij/Vm3mXufx/L1X+4/qabth/KXAAAAAAAML9R+AEAAAAAAMDAeP6ppy4ej51PBwtPfdCyj/T16OGiG26++SeHOu9dUrj+pBPeqWBvD1J1aqapV/Tp/d5vcYWr5Pbx63/849sOdSYAAAAAAACFHwAAAAAAAAyMp598/LuDhXc++Gaf+FOz7AVfvfm222dy7jNOPv6F0e13XHqMmeou3yq378j0ieFQ/uS//vCH22ZyHgAAAAAAmN8o/AAAAAAAAGAgnHnqCad79C+ZhaV7H681WfbZFJS85D9+/ONvzcb8F5x+eqPVbC6LIV3UrYbNYUtz2/UbNrRmYxYAAAAAAJjfKPwAAAAAAABgzjvjDJW0+fhPJ0l4Xoy/vN1HUtull15/808/l3c2AAAAAACAmRaKDgAAAAAAAAAcss3Hv9rMnuP7KPsEM7nrA5R9AAAAAADAoKDwAwAAAAAAgDntKaeeuliyt5pZsnfdx8yUefxxp9R5TyHhAAAAAAAAZgGFHwAAAAAAAMxppaz7oiTYI933cZSXe+qK7/zGD35+f/7JAAAAAAAAZgeFHwAAAAAAAMxZz37EI4bc9Ov7el0wU5Ru6CxofiHvXAAAAAAAALOJwg8AAAAAAADmrI6nzwvS6XEf232iu5v8/f/935uaBUQDAAAAAACYNRR+AAAAAAAAMFeZxXiBmZX2fkUwk7u+XmtnnysiGAAAAAAAwGyi8AMAAAAAAIA56cxTjz9O0pN9H9t9vPfCK794223t3IMBAAAAAADMMgo/AAAAAAAAmJNiZmeb2YK96z7W2+5zlzL/90KCAQAAAAAAzDIKPwAAAAAAAJhzzli/vmbSc8x++XUmSeY3Xv+zn/0i51gAAAAAAAC5oPADAAAAAACAOScsrJ8s0+Nj/OXjvCTJXB/PORIAAAAAAEBuKPwAAAAAAABgzvEsviCY1fd+uZkpxrglZvpBEbkAAAAAAADyQOEHAAAAAAAAc8oZZ6gkhRfs63Umyc1+0B4fvy/nWAAAAAAAALmh8AMAAAAAAIC55YHjjpG07kEO85LLb/rvTZua+YYCAAAAAADID4UfAAAAAAAAzClBySNkWur+y5WfzGNmsm8VEAsAAAAAACA3FH4AAAAAAAAwp7jH05IQkr1fbr1nY6VQpvADAAAAAAAGGoUfAAAAAAAAzBnPPeaYqsseF/ex3Udmkuu2JT/84Yb8kwEAAAAAAOSnVHQAAAAAAABQuEqjWn21BQ1J2keLYiaFxC29YWKi+73ZnYNBlSbJUnN/9L5eZ73/fecaKcs3FQAAAAAAQL4o/AAAAAAAMM81GpVnmdvllsMslytxf2IOozCguok/wiws2mczzSRz25h3JgAAAAAAgLxR+AEAAAAAYH5LFO1C2ayv9ulx/+RoK/12HqMwmFzhpGAm38eRXiaTe3ZPAbEAAAAAAAByFYoOAAAAAAAAitNoNB4p6Rk5jevG6B8Vxy3hEATp2AfbRhXd5aYtuQYCAAAAAAAoAIUfAAAAAADmM/dXmdminGZ9r9npfCmXWRhUJtN67aPxY5I8esvct+WeCgAAAAAAIGcUfgAAAAAAmKcajcZq8/iyvOZ50OWS2nnNw+B51umnLzRpxT7PnzOTy3cohu155wIAAAAAAMgbhR8AAAAAAOYp8/TlMjssp3G3uYfP5TQLA6ozsW2Fu6/cV99Hksy0U+Xy9jwzAQAAAAAAFIHCDwAAAAAA89CSJUsWSuHV0r4OR5oF0T7RbDbvzmUWBldSWeamFe6/XPkxSe42oZ07x/IPBgAAAAAAkC8KPwAAAAAAzEPNZvOZkh6d07id5tmVOc3CAAupliQhqTzY683k5WXJgy0AAgAAAAAAGBgUfgAAAAAAmH9KweMb8hvnnx7rdH6a3zwMKkuypQ+1kspdodVJub0LAAAAAAAMvFLRAQAMKH9XOOmaH5c2a3llKLSWmqcjablWUVTNLK0qlmoesmAWmhaycbPyRGx3RoeX1u+vL0jb3z390lQmHpUJAAAAzIJarfZYNz0tj7O83NW0pPQRqZ3DNAw692SZP8SPiiZZmg3nc0wdAAAAAABAgSj8ADg0V5+brC8vWRuVrbWodRb8hOhab9fetWqsPLK6pvaKTFY1L5csZuay4G4my4JJco9RWYiuLHoSstFtneboNt29btNFG/xTfqeZ32rRbvWktLFdH99w33M+Nl70uwwAAADMdYn0aklDecwy92+Nj4//Zx6zMA+4L5M/5I4fG4qRwg8AAAAAABh4FH4AHJCVH331UHWktiK6PT64P9vlJ0WlK8210mrlhkwK0SV3ydV7PsWl3q2uu297tWm/sN7vFprZSgU7zUySmbydyj27pzJRu3ftpy68XdJ/KLMbGuW48WdnXTGayzsOAAAADIhFtdr6jum83BoRZpdJ6uQ1DgPOwvKHerWbLKXwAwAAAAAA5gEKPwD2g9u6T1z0JAU9z2VPVPTHhlIYNgu9io67PLq8kx7CiOm/dCmb9jozWbDVFmy1TKcp+ks98awZ7UOnf/Di3/zuGy/tHvxgAAAAYH5JpVebtCyPWS79dKLV+nweszA/uPny6Q8i2eN1vf+FpNJNcg0FAAAAAABQAAo/AB7U+k9deKKbPcv1hldI4RSrhAXmkqdRSuP0js7scpcyl08rAVklSbKOH7Wl0k4kUfgBAAAA9sPw8PCymKUvz239iesfJW3NaxwGn0lLHuZn0eE0qy2UdF8ugQAAAAAAAApC4QfAnly27lOvP81D6U0x6AWhlKywOLXBJ3v4t89L73iwPgoEAAAA9L80bT87seSUPGa5++YouyqPWZhHXLUHWfAjucvMRqJsca6ZAAAAAAAACkDhB8Au6659w5N0XXyjzM4N5aTedyUfAAAAAIeiFCy5OL9x/slWq70hv3mYD1xesYc60ksaTiyj8AMAAAAAAAYehR8AOuzaX19btu7vuvtrrVJa6N0o71L0AQAAAAbJ0FD1qYp6XE7jxqPCR3OahfnDTFZ5qAskIYSYZUsP5spPuvrcSlZZUN0ZStWk1arGcgjerVg1pOZJ2Txkpm5mKiceQ9JJk06nMVbudLSts+nmk9q65JJ4cO8WAAAAAADAgaPwA8xn73pXWH/apte5pW9XuXSsuhkbfQAAAIDBFBTtNZIauUxzXd9qtb6byyzMKy5VH+xEr6lLZNFW7fVCO/2DF5fuWDteH+5U1ljUeilZ78FXxOiLTLbQTAtGzYYt2oJSzBZYuTJsUlmlGKKZybPg0YOSEBQVQ0wnKmky1i1n40EjY+seuWncr33DmCveH6L93C3eakm4tVKu333bN5d0KQMBAAAAAICZRuEHmKdWf+bidSW/66/cwzkWzLydFh0JAAAAwCypVBYc7d55idlDVyVmilm8QlInl2GYT9zMS3qQI70kyaOkkdKjnvDWx7xw9KQjFu9YteTRin7EZo9HDLfrh7mr5qaqmSqWJEoqYfINJZP3nrvJfWqKS9771R5HiVmQ2eTLTJJJZiZ50tuYG63t0VvtVnPbukfddat96sJbspD8xKJuqo6P/+C21/zjzln6GAEAAAAAgHmCwg8wD6279oJnKvO/tmrpZO+k8tSLjgQAAABgFiVJ5/UmW5jLMPfvjbU6/5bLLAyeq89NTj9qcdgy2k6WjVbDUe+9Nty5YnklWzFkte2x4t8fLz1UbS26KzTsDPPwmqFb7u4kY82xnWuWLYiNWlnustgr9UguT6OUHuziHdeD/iRtkoVQlakq04iZHaFgz07M5O3uRGdB45a11130HZc+75m+vWpLuO+7b7y0e5BBAAAAAADAPJXPQ/sA9I011130pmD2Hgu20A/6hs3iWTlR7GZfCNu752w4/8pW0XkAAACAfjU0pJUeazeYdFw+E+0t483m3+QzC3PBMVe9amGnXlkWQ1iWKC51Ky3zGJeZ2UK5ajKv9Z6r5mY1c9VcXk+kcu2Bnbbgzi07k+1jyy2LI9Ubxo5VahWFBxnmkuqh2XriUM2CTFmM3ihvGVu7Ihs7fNnCrFwasqzAn4WDyZJeeI8uZfEBN90o6UZT9sWNZ334x8WFAwAAAAAAcwmFH2C+cNnaay/8fSslfyz3RHFub/Wh8AMAAADsn0ajeoG5XaZcbgPwjVHhyc1mc9Psz0I/WPnRVw9Va7UVoZKtyCxZr8yOluJqM6102SrJV5jUcKkmqSpZ1aSqlRNTEiRNbdzRrs0701fnuLtCu9sNrY6GN++8e/iG+0cavxjzbKzbUGJVD5KmH1Xnkuo21nricEOhVwuy3hV1skZt+9YT1iSdpQsWKSqR98HPxcFkpSBFl8f4gLs+H9yvKFfv+sZtz/tiu+h4AAAAAACgf1H4AeaJtZ+68PetlPzJIJR9JAo/AAAAwH4qD9WqN8jsCXkMc9lfTTSbv53HLBTgq+8qrWlvWqhWcorF7KkuPzUEO9yj1pi0xmrlknx6gWfyFz55ANb0Ys+BlG3MJJPcTIl72tjc2lrZtLO65IcPbM02bF+aTKRVpVkSkxAsWDs9rrqjs66ywnzPPUDmrhjC2PiRK7fvXL9ipSyU+6L0M2Wy/OOdLJX8awrJlc32tus2n3fNWNHRAAAAAABA/6HwA8wD66694HcsJH/pkgah7CNR+AEAAAD2R6PReJ5ivNZMldme5dKoLDx1YmLiptmehfwc8/lXLWy1608099PM9AR3Pd6CLbcQEk1upultp/EDK/EcLJM8Cb2lPt2YVltZNnL7znt9w7bq0ObtW+KIhtIFtlYhlB7sKkKMnYnVS+/devK6lTKr9t3PyTZZ/MmiJP+2pHdvfPFlnys6FgAAAAAA6C8UfoABt/66i8526eMyq/TdjZiHgMIPAAAA8LCSRr36jyZ7WR7DXH7NRLP9CklZHvMwe1Zdff7ypFI+JXg8R9IzJT8qVMtVRe+VUHzPY7cKY5LLpFKQFGOp1Z2obB3tDN29baK8fXyRddOGkhD2+aZZ7E6sX37PtmMPX913m36msVKQR2955tekMbznnpde+tOiMwEAAAAAgP5A4QcYYOs+d/5RSsNXLEmO8DQWHWdGUfgBAAAAHtrQ0NAjFLOvSxrKYVzq0V840W5/MYdZmCVrP33RyYr+Oll4jpkeYUmQfHJ7z1x4AEmwXg/J5dXxic21e7dp6K4HZJ10qZklHmyPopJF74wes3rLziNXrVL0fRaD+kIwWSmRp9m9inpv7G7/+03nXdMsOhYAAAAAACjWg643BjC3rbn6t+re3fnXoVw6wrs8wBYAAACYbzymrzNZHmUfuezbE+3Wf+QxCzPsXe8Ka0698ymhlJzvMZ4dyqURucvTKI9z7GfJ6FOPbLPOgqEV7eFGNrZ2ZXf4/u13V+95oFHeOV412bBb71IerDJ8x31DzWULt3cXDC1R7NMHykSXd1IpsVVWsr80LTzjqM9c/Kafv+jSjUVHAwAAAAAAxenfRy8BODTJ2JtCqfQCyj4AAADA/FOr1daa9JKcxrlivExSJ6d5mBm27poLnrnukXf9ayiFL1o5vN5CGPFupoHYEJtFWfQkVkq1HetXrN1y+rG1Bx51bLuzaPhui96eWnltMY6M3HJ3R2nalvX5IuysV8QKldIL0hg/t+4TFz656EgAAAAAAKA4FH6AAXTYta9faxbfsseucgAAAADzhpm/WLL1OY27NZTbn8lpFmbAuk+cf9S6ay/6gJfC562aPFdmde9kc+PYrgPlLkszeQhDreULl25+9NFLt52yfltWr9xvMWYeTJUHdi5qbBnd6cHmxAfAO5mslJyqsn1q7bUXvqzoPAAAAAAAoBgUfoABlHjpN0KltGYgHpUJAAAA4EA1guv8/Mb51WNj2pLfPBys5Vf/r+F11170Zg/hq1ZJLjazysAWffbmLsuiZFYdX7101f2PPW5oYu2KeyxqIgSrDd95f9fSuXOGmXczyWyFhXDluk9d9L+16zQzAAAAAAAwX1D4AQbMuuvOP8nM3+AZZR8AAABgPhquV54js0fnMcvdt3VLflUes3Bo1n3u/KPqlc4/WTn8jZWSdd7JJJ8HRZ+9uWQxKpZLQ9uOX7Nq6yOOHE+r5c3lbeNLa9tHH/BkDt1UlrnMrKpy+JO11174a0XHAQAAAAAA+ZpDt2IAeFgu8yy81SqlxfPiEZoAAAAA9lZxD7lt9zHZdZ3Rzm15zcPBWfOpN5xhsfRZKycv9DRKPEBkcquRlyZWLlq+5THHVtKFtS2Nu7cmFrNu0dEOhGdRcq9YEt7L8V4AAAAAAMwvFH6AAbL22ouPsmDP94yyDwAAADAf1ev1R8n0rDxmuTRh0pWSaI/0qTO+ekZpzSff8L8s0XUyO6m31afoVH3EJcuiuo3ayJbTjl7s9crmpJWmsjl2OlbmkqluZh9c/+kLn1t0HAAAAAAAkA8KP8AAsRCfa9XkMB6tCQAAAMxP5v56SfWcxn1jrNW6IadZOAh3bD/63aGkvzOzRZ7yc+KDsSwqq1Ya245afVxWKdXm5FFnmcuSZCRm9pF11150etFxAAAAAADA7KPwAwyI0z94cdmjv1ps9wEAAADmpWq1eoTJz8ppXLSgD4l9Mf3pq2eU1n3yoj+ThbdLMh4Ush96x2Insrm23mc3TzOFSrLS3f9+3ed+fXHReQAAAAAAwOyi8AMMiM2r4lPN7JEc5wUAAADMT0liL5PZqjxmuetH40nr3/OYhQN09bnJuu1Hv9vK4fckmyqyYJ7wbqZQLT/eOp0/kGvOlpcAAAAAAMDDo/ADDIiY6QVWLdXn5OpxAAAAAIdqRK7XSvncwR+kf9FObc1jFg7MumThmxSS33N34+fDeSrN5Eny62s+c+Fzio4CAAAAAABmD4UfYAAcc9WrFgbTU1jTDgAAAMxPQ7Xa8006KY9ZLm1OpY/lMQsHZv2n3vCrCvankgU2+8xfHl0WbChk+sujPvlrK4rOAwAAAAAAZgeFH2AAtBfW10p6lM+lwk8SZJVEVi31npdC72XlqZeVei9jATkAAADwkI6Rqq54QV7zguufW63WxrzmYf+s/9SFJ7r5B6yUDCvOoZ8NMSs8zWSV0ilZ6L656CwAAAAAAGB2lIoOAODQhWhneCmUlWZFR3loSZAFk6LL03inp7pZ5nfLbUeUtobEOrGTLjWzZe42IvMjTfZoqyRS5ppThSYAAAAgJ/fWao+X/Ik5jRvNzP4pp1nYT8d8/s3VdnvivaFSWuedtOg46BOeuaTwhsM/8fqP3vXSj9xadB4AAAAAADCzKPwAc5+59CwLUt8ubDeTlYJiN7s3ZnadZ9nVpaR8x7K1ftd3H3Np98He7LBPvWZpotKJ6voL5DrHSqVjPYuS9+17CgAAAOTOpdeZWSOnYV9rtprfzmUW9lunOfHGUArP9S5lH0wTo6xSWhna8S2SfqPoOAAAAAAAYGZxWA4wxx31yV9b0bX0hlAOx3vafxtwrBQU09gO5n/b7fhld593xc8O5nrWX/26VV4q/66Cfs2SpC6TYjf7QtjePWfD+Ve2Zjo3AAAAMBdUq9VjErNvmmlJHvPc4gsnJjqfy2MW9s+aay8+NSh+1YIt9ciDI7CXYPLMtwfTmRvOvuz7RccBAAAAAAAzJxQdAMCh6Vj3CMlX9+MNu1ZK5Gn8uczO23DW5f/7YMs+krThvCvv3XjOZW8z9+fFbvYDq5Qkp7QIAACA+S1Ir8mr7CP3b1WrQzfmMgv75fQPXlwOiu+0SomyD/YtukK1tMijv7HoKAAAAAAAYGZR+AHmuOC2LpRLC9VvN+4mQUrjHVnMzrnzrA99ZqaudsPZl3+tXAovzJqdr8m8MlPXCwAAAMw1Q0NDKyzYy/OaF00f27Zt24685uHh3b88PdNNL/I0KzoK+pinmWR66TGfvGhN0VkAAAAAAMDMofADzHFufryS/lp0Y2ZSjGOZ/NfvesmHb5rp6//5iy7d2NnRfJlHfayztMrnMQAAAMxLnqbPN+m4fIb5pmaz/fFcZmG/nPHVd5Vk9nuhlFT77gEg6C/RZeVkWTf4y4qOAgAAAAAAZk6p6AAADo2ZndJ3N+6Wg7zV/atNL7niS7M14r7Xfux+SR/mWC8AAADMUxULujC3aaarJG3ObR4e1h1b7zrLknCGp7HoKJgLzBRdLz3m86/60G3P+8edRccBAAAAAACHjs0YwBx20tXnVuR+qvdR4ceSoNjJ7pWVPprPQPXPOw8AAADkpFGtninZY/KY5e5bOyGy3aePHPP5N1clv8BKSSLnRyI8PE8zWSk8ptNpPK7oLAAAAAAAYGZQ+AHmsFaydJFLh/fVDbzBFKJ/9s5zLr296CgAAADAgDIFvU5SNadpX+6Od3+Qyyzsl+b42KOUhGd4mhUdBXOFS5aEksfsrKKjAAAAAACAmUHhB5jD2pX2apOVi86xi0meZlks6ZqiowAAAACDamiofLLJXpjTuMyiLs1pFvZTCOFCKyfVvnrwB/pfdMnCmas/+IJG0VEAAAAAAMCho/ADzGGW+io3lfvmUCszedRouVa+qegoAAAAwKDyGF4vaTiXWdKN4+32f+UxC/tn3efOP0qmF3oWi46COcajy9yPSFavfmzRWQAAAAAAwKGj8APMYWalleZeVp80fsxMZv6jkP1iR9FZAAAAgEFUr9fXSPaSnMZFmV8lqZXTPOyPdnhBqJRWicIPDlR0WbXUCKk/vegoAAAAAADg0FH4AeYwc1tlpcT6pO8jJUEu//5tz/tip+goAAAAwIB6kUlH5DHIpdsmJtqfzGMW9s/pH7y4LNML++VBH5iD3OXmZ665+rfqRUcBAAAAAACHhsIPMJd5XK2SFZ1iN5OkcI+49RkAAACYDbXg8YLcprk+KontnX1k6/J4pKQnecaPXDg4nrnk9mjVJ5YUnQUAAAAAABwaCj/A3LZksmXTH8xk0mjRMQAAAIBBVK9XniuzU3MZ5ro3ifGaXGZhv3XNX6hS0lCk8IODFF2WaIE6aT6fSwAAAAAAwKyh8APMZaZ6X+3ScVeMPlZ0DAAAAGAAlc3tdZIquUwzfX6007k1l1nYL8d8/s3VIP2KJdyUg0NjIciCPbHoHAAAAAAA4NBwKxEwV119biJXtW9OzzLJu5msZONFRwEAAAAGTaPROFXSr+Y0rpt5epn65ocNSNJEq7neXacpjUVHwVwXgoJ0uryfVgYDAAAAAIADReEHmKOOGV5VklTtn5vgTYqukHladBIAAABg0FiMF5lZNZdh7l9utdJv5zIL+y0JdkKolJZ7pPCDQxSjXH7EMV9487KiowAAAAAAgINH4QeYo0a3VEoyy2edPwAAAIDCjFSrR0r+wpzGpWbhw5Io8vcbi09hHwtmgkeXolZl3YnVRWcBAAAAAAAHr1R0AAAHZ6g2WupKNW7vBYB5qbRGKjeX9r6Xe+ABdSV1JWXFxgIwQ0qrpUp7iUrVrUrvkTqifDGvpeZny8KanMbdXKnXv6RmM6dx2E+mTE9V6JsVr5jLXFISlqRpXFl0FAAAAAAAcPAo/GCfTrr63MpmLa8sUJqk3SSk9bHQSEshq4aQpUkolVVum1VD4jFrJ53E2lkoZTFp12PI2t5SyIYq3m2NZN0Nmye6Ou8a7oCcYa1Ss1SyakXODb7APGOSqkukSjYyEtw9xBgTd5/6daVcjpVuN7RCCN0QQpYkSZrsSLKytmb39QohU0+cB9EHVkpDEwsW1NI0rZmly6SwOpFWZ9EOk7Ra5kvMrSapLFPZpbLkpW1SWeO97+Ua9anCj3XN1VWvGNCW+YRLm83tbkl3m3SPxXh3LJd3lkql9o4dO5qS2oW988hDZblUaS9cWEnTtJIm6UjohqVJ4nV3rwVPau5ed/eKzLrBbCJaNhFimMjMxpMkm+h2bSKE0AkhZCGEdHR0tCmpKfXPwaJzQHXx4sW1TqdTM+sujR2td7N1IWh9lK00ecPc6pIqbipLXtnpqmhCpXZNacPUkaxjro6klptPyGxMUXebdEcm3S5pU6VSGd+5c2dL0kSx7y5m0kppaNTChfkV/eOVW7du3ZnbOOyXdZ++6AhFHeWRT72YAe6yasnUjuuLjgIAAAAAAA4ehZ956pir3rwwG2quiopLXWGpJ2Gpx2xZkC3zqBWj8hX10FmaSkNKslpi1Wq7pJoyr8myWppZKZGkVCopyqOlsVvqekg7bknX5BNND1u1PWxdUxrZGq69aKsFe8CybEs0bYpud1rwTXeedcXdRX8s5qqae5JGrygpOgmAWVJesKBypHfDKpdWyXylpJWSHS7XYW35Mu+06ybV5F53qWZmtcRUjmlQYnL32PQ0G+tm6Xha03jbquMN2bi5xt183MzG5b7ZTBuidKdZvLM23t34gDRa9Ds/wGpDQ+WjLZaONfdjoumEMfmJSjtrgmyFPKlIClGS7bpn1zT9+A6b9v+9nu3zNzbtZS7Jk5B5zHZ2O9m9Q/XaHZL92Czeomi3ZGa3NptNvjbPUUNDQytjjOuD+xEmHeHSkZIOmzBf7t3OCrkvL3sYkikomplMLu/9FZv8C+dymQe5SUHungUvBbnkqWdpK0Ztb9SrvzDZHZJvcNNGy3Snud851ulsFEWTKfVGo3GSFE82t1MlP7ndaq6T++GysNAShal/qr0zlm2vf8/7+nevaZex3j/oyd8nksu9nXU7dzfqtY0m3Sb5Teb2/bFW6ybxeX1OG6vVXmTS8bkMc787U/hELrNwQGIMjzRli20Az/SKU5/bXAP43vUxd7nn9LkFAAAAAADMCgo/A2zd5359sXeyJe6dJUmpslYxnuDy4112bMeaK9w1JFldUt3klVAtS5LMffIewd5zT1w29SBCn7r5bc9HFZpZIllVkixIksnMjpRJiVnvXssgeUykTpqZNGqy0XXXXrTDZb+Q4vfN7ZsK2c/N490bzr5y++x/hOa2kJW9L/8FB+Mhp8ABWrxYI+l4ZVU0W+dmp0n+OJmdlHV9iUxDJjVMtvsAh8kGx+47gPd9149JC2S2wPZ+G5t2Z7FM3rtzpeUxjLbqtZ1D8vsl3eputwSzWzJpQ4xx66J2+577pPHZ+0gMnkajsSrGeHSQzjCLT3WFozzzxTJf7Db1WTz3u7YSkxar93Si5M9zN7lpLChuG6pV75PZD931tRBL3xnrjN2h3jYX9I9SrVY7zMwOk+KjgvREuU5VTJeYbESmEd+rLtL7t3/Af9dMu68nMbOqpBGT1ks6Q7Le94hBzeja2ajXRs11u8w+qxBuHB4fv32+fM5YsGDBUu92T47SE0z+JDc7UTEuM9OSqe+bD/LPYH+ZzGqSjjLpKElPl0zRtLNRr22W+w/MwvWZ+7fq9daPt23TjtkKghlXleJrpZBLzd+CfaI10dqUxywcmBCy46xULntnbp/u55NPvXWTLovuC8xaMmk8ejU1C4n1vkma/kUIs6D3s8CRRccAAAAAAAAHrx/rAjhQV5+bHF9Z0Gipcoxi5zR3e4SCjlCne7iZDrNQOkwlkzzp3WDmUq/Jo12lHrnL24d6w6Hv9exBeh9miQUtMrNFMq01s1Ok8AKZFDu+wxV+uvbai271qP9W5l9auS3Z8N03Xto9xHAA0E9saEgrlNXOjNKz2i0/SUHHmtmyPbe37L6LI4cmXc16dxYvl+xoSU80630uD70o943Wqz9tuP/AFL5Rlr6+vdW6R1Jn9qPNKeUFlcqRntiZUXqKPD46MZ3Ue1WY7Tv8D4lJw5INy7RW0mPMdL6HdEejXvsfk39LQV8ZH29/S6IoUICwYIEWp2n9Sab4dHM7UabjJT/qIbc95aduZnVJK2U6RvLnKGYTo/Xqt4ei/svMvjjWan1Xg7f9Z3ioWn2Cm14Yu92nynTa1Ofw6Zu1imTSQkkLZXa05GcnJrWb1f+uV/WlUCp9cnx8/CfqHQGIPlWr1R4j05l5zHL3cbfkCnFcX/9xN7/uouNtDj+2wiV15Upc6ZIQsqcsaNx3bKOaLCklS9dXSp0sut2XZpXtme+4rdnaeuPYxKr7ulm5a1aaKv9ghrnLTMvk6i39AwAAAAAAcw63mcxBx33m4mWd2D06jclRIfgpHu3RJp2qoCVy1a2SSDIpujzG3aWeuSCYLAlSMHk3kzIfddN3TP5FBf3XkQvXfPP6My+Z03dKrLv2wos8SZ6ozLODvQ6Tu0sNk54nsyXyPvgDNk09XPPL0ew20ywfNpZYsKgfbLxP/yAKYZgjhsrlUz2EJyjo2ZI93aRlmptfi13SmNxvloUbTPq2suzHY53OTyXFosMVoVqtHpEkya8Ejy936XGShorONAu6ct0n6XNK/JPj4+0bJbWLDjXAKvV6/ZGJ9Jjo8RkmPUVmyzXbX19nR8fdbzXzSxXK/zI+Pn5f0YEOgVWr1acnITxfHl9oZkdKKhcd6iCNR+m/zPwTMdq/tVqtDUUHwi8bqtc+LOn1ecxy909OtNovzWMWDszyq//XcK3c+WIohSd7Ore+1YrqtQqHpOaThuvN5y0abj5mQaO+rFwaLvW+Dy556LWhrfdgpCyTstEs6/5gZ3P7h7dsr35zojmSWijP1U+2/cqSIE/jDzfedPijdMklc+svFgAAAAAAkDQ372ScV9ZcfW69Ulu8vCudYDE7Q67HuWyN3FeHcmlEiUlZlMepUs8cKvc8HFPvmJpgUhLk3WxUMd4UFD6WWfbZO8+64u6iIx6MdZ++6OrQqJzrnYPu+/S45OlkoauPWKlX2Jr1OeVE2VjnK2FH9wUbzr+yNesDgYM0NDS0wrPsuTK9Vu6nmtmKojPNCvd7JG102bcs8U+XSrXv7tixY3vRsWbTkiVa2G5XT1e010g6U9IRBUfKU0fu35OFf0ljvK7dbt9RdKABEOr1+uqyxVNjtF91+ZNcdrSZFhcdbIbdYrK/XtpsXrFBmjNfvxcv1ki3VXlWVHijpKeYVC860wz7RYx+pUK4rNlscpxTn1hQqRyXBbvBzFbmMC51iy+emOh8PodZOEBrr7vgMHO7SRaW9dvPfw8llVQzaz1tqLbjghVL9Mjh6nAIYajrruj+oO+KTR4/Ww6mThbHvr5zYvRv7tlSv7nVHSkF69NdiXNQEqQs27Sxu/NonXcNWzsBAAAAAJiDuJ2kD62++uJ15VL2eAWdLrfTJD/dkmTprhKFe6/gE+fODX0zYmr7j0ueZXe661qP9rFNL/nQt4uOdiDWXnfRP4Zy8spDLvzMc1ZOFLvZF8L27jkUftCPhobKJyuGl7vspSadUHSe3Lm+7dJnLUmuHR8f/1HRcWbSSmlotFF9lVyvM9mTis5TNHffYmafDa4PjbZa3yg6z1yzsFo9Ogvh+a74ZHM9WWaHF50pF67Phhh/e7TTubXoKA9lwYIFSz3tnOeu18ns8UXnycEv3OOHLClfPsc3MQ2E4VrtHW7641yGuf/3eKv9LEnjuczDAVl/3QWnuZL/mStlnygpc/dTapWtv7t6WedxCxsjMmukk0WfA5EEU0nSzm62/a/ueWDsmm07V0dZMtfW3bmkaFNLcbXrsVpTR0Da5K+D53hDXTAp+v0Nb5/003OueiCvsQAAAAAAYOaUig4Aad0nzj/Kk3CyWXiyYjxDFo+Wa7GVyyW5y7Moz6I03/sh0eVx8oOQ2NqQhN+M7ez16z998T9Hxb+988WX3VxsQACQhoaGnuExfYNneo6ZLZ63zVrTY016rGfZ2+q12teD9E+ZdGOr1dpYdLSDtVIaGqvVXjQmf5u5PaboPP3CzJZJOj+azh2q1/7FLfztxMTETUXn6meNRmOVuz/ZPL48lZ5u8mU2dW/ffGF6YUzs3yT1ZeFntdTY0Wi8Oku7v22y4+bRn80RZuFPPWYXDNXrf19rNi97QBotOtQ8tTiaXpvXX71o+ogo+/StzLU+BM2Jbb6ppKqsdeGShdsuPmxpfbiUrO765HHjByGLrkzSUCVZ9H/Wrqg8slHb/J67tiwaldf69QatqVJPnHpyV82VriiF0QVJklaCWWKykoUQ3b0dPWvHqFb0ZHPMhltSJZgpSLueZlFpLK0slkThBwAAAACAOahfbx8ZaCs/+uqh2nB1nYfk2fL4TDc9IoRwhJIgRZs8nsvknbToqP0rc3mWyRJbqHJ4o3X8rLXXXXRV1kz/5u5XfOTOouMBmH8a5fKjVQq/o5idY7LqPLpz+CGZaZFJz5P0vCDdNlSvfTW4PjLaan296GwHoFyv1180pvgWSU+dX62MAzIs6ULF+OJGrfLPmdvftNvt24oO1UeGarXaI4Piy+XxmUE6SfP+UBKf5fswD85Qtfr0HWZ/aB6fVXSWoph0tOR/1azVnr/Q7Pd3NpvfKTrTfNNoVM8217E5jbsjhNK1UjuncThQ5sl6M5P3eeOn69KR5WTnH6xZPv60kaGlmVmlkx1c0WdvaeYKZo1zli2sLE6SB/5w0/3dBzwuKPXRhyRa72NQ9tgdSpLs8CTJnrqwce9R9dqClaWwaG2l7ItKiZeDlJgpyNzlnkZ5K0aNZx43djvx7jS7Z1OzM/b10eaK2zrd6liWVZSEUJqd7T9lJWHQjg8FAAAAAGDeoPCTk+Ovu2BBK7Mnx6AnB9czonS6BVUtSWSZT27wmZkbwuaV6PJ2KiVhZUjC75jsrHWfuvgPNp5z6TVFRwMwPyysVo9OE3uzoi4waUHRefqZScdIOiZK6yU9p+g8+2N4uHKCp+HPJD+Los/+MdMyKbw5kb+sUau9d0mr9bebpGbRuYoyXKmc4CE8z83PMekJUphrp5DMIuuju2mlWq22Lki/7aY3mFQvOk8/MNMzU49fqNfrf9xsNt+v3vIOzL66XK/NbVr0fxpvjt+f2zwcMLO4TtbfXz6yUtATy+Udf7JuZXLkcG31WCftuEevVkvWO7vKJLnSNCoe5PHk0V1tqXTm4uHlf2m6/zc33FOakNWLbI+6ep8Yo7uWycafMDI0/pRGPTxhYWN8aSVZVTE7IshMphDNlrgknzzWLEoymUrBtMASLZR0uJcl10pfrOVv9Jjd007v+7ftowu+PdFqfW+stXwiWCkx6x3xPgNHvLl72eSLDvmKAAAAAABAISj8zKKl112wYCi1RyiEl064/6qC1odqqaYsyjKXsiif78d0zZTJj6Ul4RiXX7Xu0294hlJ798aXXHpP0dEADKYl0sJWrfamTP4mcx1OF2TglBuN6qs90yUyrS06zFxkZisk/d9ttdozGiH7/YmJ7veLzpSj6lC1+jQ3vTFKTzHTSuOTRF8brtfPdc/eIwvHFJ2l35jZMpP/f41a7cw0xt/vdDo/KzrToKtWq08y2ZPymOXuDwT3f8xjFg6eu9Zb6NOvIybFYDqllPzXX6xf8f1V1crGHd3u95JQ2pimaaJuulRRqy3YyTHzFyRJOKVWK1c6nfSgij/uUttjeOJIY/kfHL5887s2ba5kZknepR+XlJpUi2odX6t0X7x4eOvTFw4tWl+vDEk2FE3L0hjV9clLTz1/0GvbQzCzUE6S0nGLq+tOWjSknRPt8Tva3c3f2tm84/IHtq24z/3opJyYp9nBH/XmkslKsrDoIK8BAAAAAAAUjMLPTLv63GR9WHxsFtKXBoXnKPiTrBqCRZdPbaPBrPEsSmZVKye/5jF9yvpPXXDxhnOu+EbRuQAMlnq9/piW/C9MOpOtLwelr7Z67K1arR6RBP2Jub2q6CwDwfQci+GR9Wr13c12+1JJg1x3rtTrlV8NHn5Npl8xqS+PrMIeavV69e1R/ntmoVp0mD5mZjqrnIRHVWq11461WjcWHWiQJUEXSSrnMsz0hbFO5ye5zMLBede7gvmmlX353ZOZLAkKaXaFrSj91jEnvmvnQ11849ff++fV5e0z2u3ui9x1brVaWtbppAe8qMYldWXJS5aOLNrY7t779/dvP6wa8jknc2qjT8k9fdpQfctrl46EJ44Ml0tB6zP1jvSKfvDbm8ulRCGY2p0066bx3m6afdmCvhkUtjxyqLr59KULN5tp/N33bntUSLPXKeoFVk1K3j2Y4o9LZqWgyJFeAAAAAADMURR+ZsiSq161sFGvvcDK9kqP2RlJqTQsM3mayTuDfL9WH/JescrKySme2SfWX3vhGzacffnni44FYCBUhur1X3OP/8fMlhYdBjNvaKj6TM/s/SYdV3SWgWK2Kpje36hVn+EW3tpsNu8qOtIMGxqq1V5gpl9z6SkyvseeCyaP8Pobk15cdJY55Igo/0S9Xn9Ds9n8TNFhBlF5qHyKMj0npz5x26Iuz2USDtqakzctkmmk6By/pLdxyGM3+8sVm8M7vnj233Yf7k3WPem3m5K+KOmLD9z2p+9vtdM/KZfCiyUpTQ+sJOPu6garvWn1koV3t9O7rts5dljFbFaLtqmkEGP6pOH69guWL+o8fkFjSTkJtVRS+yCPKZN6p52VSomSYOp0stvb3fivJdkXxprhm+sf8fZtD/Jmv9DV5352TbLw2dbOfscSe6Yl1nsQ1H5GcZfqpaDTSsnILw46PQAAAAAAKBJ3Rhyioz75ayuycvbSmPpFlthplgS5R/kB3liFmefdTJaEw2JI/mntJy/6zTtfctlHi84EYO5auLB6TNqxP5f8JZbPA4iRs6Fa7ZUe/e/MxKOcZ4mZvdQ8HjFULp8/3u3+qOg8h2pkZGRxt9s626JdLNPj+3H5AvatWq2eGUx/Z9JJRWeZa3rH9flVjUb1bRMTbcoiM8sqMbxKZrl8HXLpxol2+7/zmIWD5yFbKiWLdKCFEjMpTB4oaZJH1wFfx4NJgjzzVlB8x8az17zvTrvkgG8AWXrMH/7ojjve9fIF3cob3MI7S6Ww/EBLP1l0lZJkwTvWLPe77+hs+3aru3Q2VmPF3iw/ploafcuqFWNnLBpeWE3Csk50dQ7xY5okQWZSt5Pe2jZdlraSjx9+yh9u3K83Pu+abJP0xTVX/9b17mMvthD/tyXh0fL9/7MOJo3MclEKAAAAAADMHgo/B+mwa1+/NlHpNd2QvTaEcHwoS55l8i7bfPqJZ1GhFEa8FD647hMX+MaXXnFV0ZkAzD1D1eqzs6590ExHFp0Fs2OoXnmrpPeYrF50loFn9hiVkuuGk+R1Y63WfxUd52AN1+svSdvtt5vZ6ZzsN7cM1+tnRY+XmcSmtoNk0kK5vb/RqC2ZmGj9ZdF5BsWQtEJSfsdJuj4qqZXbPByUslUb0dKG78e5V1YKkk1uecl81KPf6fK2mXVdWmnytUpCsBB6lzmIsoqVEnmM2xX9LRtecvkhPajmyCMvaUn62y0/e8+3Uvk1lUqytnOAG5LTLGphpbTg9w5bft/5P797YkJqzGR7pStpyNR6xfKRB964aml9YRIOS01qZ4f2IC8zU7VaUqfTvTdL9d5O1vnI4SdcsuVgrmvTee9rSvr48ddd8K8Tqd5gwX7XKqWVvWO+Hv7PmIerAQAAAAAwd/EonoMUvPTeUC//qZkd791Mnh7MeenIg6dRMtWsFP56/XUXn1l0HgBzS6Nafb2CfVyi7DOgqkP1+p9J4f9JouyTn6Ndfk29Xjmr6CAHqjxUPrlRr37c5f8s0+lF58GBGa7XXxrdL+NYxhlRMdefD9Wrv1F0kEER69WXSLY2j1ku/azaanEs2xzg1m24q/agFzCTlRNZEuTd7ObYyd6bZv7CEOOpnvpTywuSMytjzWd3q9ljPbVHeObnq5v9q0cftUqptwloP1k5UUyzeyzGV83kBt1lx//BN+X+um43bi6XkwN++7ZHO3W4vuz8pSM7u/tRcNkfLqnjrkfVKg985MjDtv/24cuXD5XCkra7skPc6lNKgkKQ2q3OZ7rt9FeWH/sH/+9gyz7T/eysK0bvPOeyv4pZ9izvpJ+SKSrhZj8AAAAAAAYZG34OlmlE7tIhPqoLOcmiVE4Wx256+dprLnrhnedednPRkQD0vdCo1X7XTH8kqVp0GMwKG6pX/0Ty3yk6yLxkttpkH23Uym+aaHXnwga+UqNafbVleo/MVhcdBgduqFY+L7pfaqaRorMMkCDZn9frlbuazc61RYeZy5Yv1/DEqF6X28Yw10e2STtymoZD4KaGyWr7eoCRlRN5Gtvezb7ppss73v7ifS/52P0PcXWbJd0s6SNrPnXh42I3/Q2TXmmlkDzcseRWSRTT+BN3f/2Gcy7/1qG8T/uy/Ng//OqW2/7kjVmmj4Zgw/FASjUupUGl165cUvva2MSWH7a7yw7lxq5MUvDYffXika2/ddjSyoJKaVUnRvkM3PxTqZTUTdP70zS+a6fu+/BxJ/5t+9CvdU+bXnLFj8746rte9vNtm15lZu+2SrLOD3BzEgAAAAAAmBt4qM9BMldko8/c4t1MoVI60hL/h+Ovu2BB0XkA9K/VUqNRq73PTH8myj4Da6hef6tkbys6x3xm0gJZ+OtGo/rcorM8jGS4Vnu7BbuCss/cNFSrvUIWPkTZZ1YMmdsHFtTrjy86yFzWGq88XWan5TLMdU/m/i+5zMKhC6GuUkimrxS2ciIFk7rxc9H9xRsXHf7MO8+67KMPU/bZw6ZzLv/WnWdd9lqZv97df2GVRA9WOLNKIu9k3048O3vTLJR9piw75h3XZt3sz5MkHMjiIUlSFl3D5bDo91YvTatS52C7OR1JCyxM/PHhK+95x7oVixrlZHE7i/tzMtbDqlVLStPsljTTWauOe8cHjjtu5ss+U64/85L0znMuv9JTPS+2s6/t+jsDAAAAAAAGCoUfzCveyWTl5KnjaXhL0VkA9K3Gznr1H8z0m0UHweyp1WrnSf4n4nuhwplssbk+0Cg38rmj++AkLj1FD3pXKPpZo1J5vkzvl2xh0VkGlZmtyOQfWVCpHF90lrkqi+ECSeWcxn223W7fkdMsHCKPPmSl0Ov7BJvc6pP+0GJ8Vblae+mmsy/7ks68JD3Y69/44ss/Flvx2bGbfdJC2POIL5OsHBTb8fPejGf94qwrfjYD79JDKpVKf9ftZD8olQ78aK9OdJ2+cGjJq5eMbM78wCo6k0d4+SMr5a2XHbl69JzlCw9LpWp6iMd3TamUE7U76Q1Z7L5g1bF/8I0ZudL9cOe5l91cHa+/2Dvd98msY/s44otvhgEAAAAAmLv4uR7zjkeXley31193QT/fsQigGKXhRu0vJHtt0UEwe4ZrtacG+d9LahSdBVNsvUrxqlqttr7oJA+hW3QAHLjhSuUkC/YBSYuKzjLoTDohS8L7Fy9ezBalA9RoNB5tpl/JY5ZLrWh2WR6zMDPMbKFkskoiRd8W2913VyrxmRvOvvyfbnvezGyI2XTe5bd5Z8drPIv/oNJk6cdMVkoUO/GqYJ1X3fnKK+6eiVkPZ8nRv78jSO+JmUc70DU/kmJQ5eJVixvHVss79vcLd5SUucezFw3ffdnRh4dTF9RXdtxLB9gZelDVakmdTvaFrrfPXXHM/7l1Rq70ANz2mr/dufGcK96mzC/y6PdZuVemMkmZu7aknFUPAAAAAMBcReEH8090hXKyKEb74zVX/1a96DgA+ke9Xv0jd72p6ByYPbVabV00XWZmy4rOgj2ZdHIwfVgjI4uKzoLBMKKRxZ7YpTJbU3SW+cKkZ3SbTTZpHqgYXydpKI9R5vr3ZrP5gzxmYWZ4tGWSK7bTa83iM+98yRXvuu15H94803M2nXdNc7i7463eyd5rpSAFk3ey94Yd3Ys3nH3l9pme91CWHDN0XZrFr1TKB77lJ81cI+Vk0VtXLhkzefawlzepIU384aql979n3aqRBdXSok6cmSO8JKlaKanT7t7UjPENq4+5ZL+PXJsNG8/+0FWu7AUxzb5u1ZIUTG2XvttJH/bjBAAAAAAA+hOFH8xL3k0VyslzvLzjeUVnAdAfGrXa/w6y3y86B2ZVkpj/iUnHFR0E+2bSmUOd1h8WnQMDoZTWW++T7MlFB5lv3PS2BbXak4rOMVfUarX1Jn9JTuPSaPFKSTOyFQa5sGDakU10L1ixOXnZhrOu+N5sDvvxedd07lx86+/HTvp2j9nbNqY7fm/D+Ve2ZnPmvpi9pR2CX5pmUQex5Eddlz1lZGjx4+q1B7oP8fapSUvNdr5v/codr1m1ZFk0DXdncNlNuZSo203vdvlF645/x10zdsWH4M6zrvhOFtsv8nZ6qaTMgon1PgAAAAAAzF2logMAhXBJZqXg9iade+51uuYaHtEGzGPDjcZF7vE9kg78YcSYM4ZqtXMlvbroHHg49uahavVL4+32l4tOgrlruFb7bZdeV3SOeWokmv/lEulXt0o7iw7T7xLpJTI7PJdh7j9qtjqfy2UWZsyG73/oA7pEcVNeA8+8Pr1T1/95XuMezHgpfKXRzW4rJckxB3riVHRXNYTGhSsW7/zehns60axie23s6Zq03MKOv1m/cvz0hY3D2j5zW30kKQSTy1tZzN624th3fmfmrvnQ3X3OVQ9IeuO6T154swf7MylUis4EAAAAAAAODht+MG95GmXBnrT2FQueWXQWAMVZUKs9McbsPaIEO9Bqtdp6l94t6SAeJ46cVWX6i6EhrSg6COam4VrtKW56Z9E55jd7UqdWe2vRKeaAoVyLaRYuF9t95hrXJfNzAcv69W/f5m6fKJUP7marrmRPHRla8Pih+s7uXk2ejqS1pdL2Dx25euy0hY3VregzWvaRpHI5UdrxTy8/5p1Xz+w1z5yNL7n8b2KavspKfmvRWQAAAAAAwMGh8IP5y11WSqpBdvFJV5/LI9qAeWhkZGRxlL/PzJYXnQWzyhLpXWY6tugg2E9mp3lW5Yg9HLDly5cPR/P3SBoqOst85+a/Va+XHlt0jn42VKs930wn5TTuF5n7Z3KaBcyILMZrm83uaJIc+E1X7q5gNnzx8sVp1b071efpSDq2Ut7xoSNXj584XD+sG33Gy+AhmDqddMzL+r9mmuEq0czadPYV12180Yc+WXQOAAAAAABwcCj8YF7zNMqT8NydyYLjis4CIHfWbbf+j8weX3QQzK5Go/FcmV5VdA4cGDNdPFQdenbROTC3jI/u+DWTPbXoHJAkW2RKflscl/lgEkmvV04bBt392lartTGPWcBMWX3CO74ls++UDqLwI0ldd52+oL7wzIVD27qSOu46tVre/qGjVjePrFcPb8e490lfM6JSKSl6vHLFkW//3ixcPQAAAAAAwC4UfjC/9bb8DCXBnlN0FAD5Gq5XzjGz/1V0Dsy6msX4m5LY5Dbn2JBb9nZJtaKTYG4oD5VPlQU2Q/URk509XKs9qegc/ahWqz1OpryOFp6wpPThnGYBM8elIPvowZZyorssCY2LVizO6u7NJzZq2z5w5GHpymp5ZTvOzklppVJQu9W9x1L7u1kZAAAAAAAAMA2FH8BdLnuRfOZXeQPoTyPV6pFR+gtRAhl4jWr16TKxJWaOMtOZ9Xr9eUXnQP9br/W1Shb+xKSlRWfBHiouf9sZOW2xmUsS6SLl9H2Iyz89Pj7+4zxmATMtmP1Hu9PddDDHeklSN4s6vlFb/v/Wrtj6V0esCsuqpWXpLBzjNaWUBLn8iuUn/OFPZ2sGAAAAAADAFG54BaJL0smHf+KiU++SflB0HACzzlKz3zfZUUUHwawrW7C3iuNk5rSg+NY10hc2Sc2is6B/PVC///mSvbDoHAcpc9ftkm+X2ai5RuW+Q2aZpBFJQ24+bK4hlw43sxVFBz4Qbvac71SrZ6jd/krRWfpFpVI5VvLnSbk83qCjqI9KyvIYBsy0L3/3u3ededpp3yqXkzVZdtBbeUrPXLJwVZSSTpyNQ7wmh5SCWu30F5b5P8zaEAAAAAAAgGko/GDe8yzKysnSRN0zROEHGHgLarUnRtNris6B2ddoNJ4tj2cWnWMGtN191KS2zDruPiazzUG+Jbo/4FI5KCyX+XKXLTV5Xa6KS3UzGyk6/KGzJ26v15+vZvMTRSdB36pExbeZbO5sa3S/x81+ZB6/FBS+nprd2azVR7Vt24Sk7l6XNq1WfcHYgrq32yuyJBxvik8x11NdOs7MFhXwHuw3k+oye5ukr4nSiSSpVArnybUqn2n+nYl2+z/ymQXMvPPOuya7//ZH/We3m51jJvlB9nW67rNeADczyeyqZce/467ZngUAAAAAACBR+EEwWTDJbPIBpibJpek3ou39cnd59KnNOIPBTB7D4/SudwVdcslBP2wQQN+rROn3JNWLDoJZl1iMb5LNzWPb3P0+ma6X+02KuilIt3uns3Vc2i6p8zBvvqBWqy2yNF2lJDlVpkdKeoKZPVY5rZOYYSVXfJukz0lqFR0G/ader7zYZI8tOsd++rlc748WPt5sNve8Q7j5oEusXPdoYlSjE5IekPQTSddJUr1eeox56SI3vdKkBbOY+9CYnjVUrT59nC0/krRQrtfmNcxNH9LDf90A+lpU8uU0zdohhOqeN1b0jySYOu10u1L7WNFZAAAAAADA/EHhZ74wSWa9R5yFyafoip1sVDHeL9l2l1py75hszOQ73TTqsqqkEZMvlFSTVHW3IZOvtkppsYJJWewVgNz79ba3h5dFmflpK590e/0+aXw2R7mUWCkcemHKe9uJ+o0lIZe7k60U5N3I5zAckHq98hxJzys6x2wwSdF9h5l2uKxl7k2XWjJruvu4mbbJbVzmC0y2xOXD5mq4Wd3kDXfVzWyBBqQM1WiUT5XrmUXnOCCuUUlflXSNW/hqs9m8Vwe3DWO01WqNSrpTafptSVoiLUzr9RMy6aUuf6FJJ8xg8hzYY+v1yvOazc6nik4yxzTdvSkpNSmVKZUscymVlEqemitV7+9Zqt6nkjD9yU1BsqnfJyZV5F51qWayqkzVyZcX9W1gI8jeJKlczPj95Xea2WVR4UMTzYl7Zupam830O1L6naGh8t+7J79hrldLaszU9c+gSjR7mXqf4/rvG9gcNarVc0w6Jo9ZLv3MrPQFqZ3HOGDWrMzqt2wOYz9JEntUmvbnjQ7lSkkxpp9ddtLbbyk6CwAAAAAAmD+4s3yQ2WT5IgR5J5XHuCPKbg3SD2X2U0m3R9ddMe3crVp9yz0vurSph7mvZv2HX1erDIUFnXKyzjvpUW52ilynm/xRsnC4VYK8m8254o9Hl5sdXckaqyTdPpuzzPWz2E6/41lMD+Fq3FzDCnZq33yse+vVO55mP5HUnO3Sj8VYCu43Dw1NzOs7jbD/1q9XbfP99nYNzte+truPyvRjk/7bg33PY7g9i3FrkoSJSnNiYpu0r6NhdlkpDY0NDQ2laTpcKsUhy5JFMfjRIfpjXOHxLj/GzIY1Bz9m5uE8SdWic+ynjuQfD7IPjLZa35iNAVulnWo2vyXpW41G46+iZy812a+bdNJszJsFpUT2UkmfUa+Ygp6m3LdLuldmd8l1l0t3K/hd7r458bDNQzJuZl2zbrfbtdRMXTNLQwjdUmm8W9qh9IHe54nphZ9kqZREKcQRhSwbTtw9xBhLWYzVctnrHkt1i7Hm0esxeD1RUnOLixRttSmuVgiHefTDTFrtUsPMavqlQqEf8ncL9XrluZKdcajXM5tc+kqa+W90Ou2fztaM8fHuD6XuG4dqtf9w+V+b2crZmnWwgvyFi2u1P9nWam0sOktR1qxZU9/+wAOvdXnIY55Fv2a8OX5fHrOA2WTHvaV97y1/+uVyKXlUmvbfj38hmLrdtJ0oXFl0FgAAAAAAML/MuTvw8DB2lXxM3smymMab5PF/PPjXQ7ly/Z1DKzbqzEsO+o6yDedf2VLvOI3Nkr4r6Rq522HXvnZJ8PKLraNzzf2ZVi2VPY1z6Ngvl0lVtbJHa5YLP3eedfgl+trX/lhfO4QrOXmFryuPPErSd2Ym1aGzEKQ0bjHpFRtuuu3WWR/4dEmbV7jOu+Zgtl9gHtq8ufpykz2+6ByHwl071NuO8E1z/04ol78/Nja2TfvYAjOxH9d3nzSu8fFxSfe329JkN+hGSR+RVKrX66s8y06X2enB7OTJo6GOnqF3ZzYtluu5c+LwKvf/cdfbJ9rtf8tr5MTExL2S/m54ePjjnmW/6/I3WX9uBNlDdD13pFpdu6PdvqPoLP3D3zfear9bvc8BmWawcv3A1C92SNLYHq/rfb542BOCTFKi3ueSJcH9aIVwYnQ/3tyPcvnRCnaoWxXrpvDmQ7yOWeYfLVdqb53YsWNbHtPGW61/qdVqG4N0uUkn5jFzv5mt6sqfL+kfio5SlG2bNz9eIZ+Cmru2Z72v58BASMxu7KbZW81U8j67maFcTtRqdb/dbcxOcRsAAAAAAODBUPgZJEmQSfI0+3lUuM7S+M9Z0r3j7nOueuBh3/ZQmPndvfuFrjjmr9/8j63VE480pa+zoNdaKRn2PnwE3i9xyUqJeZo9WtI1szrLLomagaMMwiffmMak/7ouSSyluuT62d++cMmsT8AAWS01dri9Vr3NFXONy/1/JPvnEOPnxzqdWzRV8GnP6hEdabPZ3CRpk6RPS7J6vX6YWfZIi+GlbnqaSUcpl0P8DsxQtfoYmT2i6BwPI8r1gVCu/J/R0dHZ/Tr9IMbGxrZI+t2hoaEvecz+tu/KAXsxs8WpxbMkva/oLP3C3UbVv2f1uCaPDms2m3dLulu9QqEkJUNDQ0vHq9WWJg4+/lC1+nhJTzjkpLMjk/z/jjfb71Zzdj9Z763Van1j4cLqC9Oufdqkk/Oc/XBceqWky/QQ2+cGWPCgiy2n70Xc9Ml2qz2rD2QA8lQqZz/sdv3uSrm0rpv218/BMXOZhasOP/yS/encAwAAAAAAzBgKPwPCgsljvMld77du+plN5115bxE5bnvL37YlfUvSt9Z++sLrFP0vrJI8yrtR6reH4e0tMSnVEUXH2F8esr67k13q31yY30ZrtUeb9NSicxwol/+nefzA4lb3U5ukZtFxms3mXZLukvT54eHh5VnWeVrw8BzJny+zwwrOt0s0Oy/0Nov0q9RN755otv5UrVbhrdjx8fGvVBdWX1jq6grJnlZ0nodmL10jfaAP/j30i7n6NTcbHx+/X+OHtuDHTWebVJuhTDPL4+Xjrc47VNBBtzt3tm8fqlZ/S6ZPqXc0Y5+w04drtSeOtVo3FJ0kb0ND5ZM82q/kMsx9PJF9NJdZQE4W3ZHeuXlt9d6Q2Lp+OtwzSYLa3ewub/qni84CAAAAAADmn7m46QD7UgqS4ic2nn3ZpRsKKvvs7c4XX/7vLcXnejd7v0ypQp/fJ+WS3JfJz+3nO4kBHAQ3vV5zqeTqutXNz59otn9lvNX9x34sN4yNjW1uNjufHG+1LrZS+VHy7OUW/Z/lfleRuYaGhlaY+XOKzPAw3FzvnJho/bFmYNvbTGnvbN9uSfklLn256CwPxV2P3F6rPaboHCjeiLTYTGcVnWPf/D9L1c7vqaCyz5TxdvvfTfZ/i8ywD/Vo/qKiQxQiDS8zaWkeo1z+32Ot1n/lMQvIi515SSrXLUXn2FulnMjk/7by1M7morMAAAAAAID5h8LPADELfXPH4ZT7X3z5fRvPuuxNMcZ3y8xlfVz6iS6Xlh720dqioqMAmDkj1eqRcn9u0Tn2U1eu92fSMycm2h9RHxZ99mVsbGzzeKv7L2Pt9itD9DMle0vvGDJ18s5iMT7ZZKvynru/3OP7x1qt/1d0jn0ZGxvb4rLXy/2bRWd5MGY25P1d6EJO0lrt+ZKtLTrHL/M7PU1+Y8cObS86iSRNfr75YtE59mS/KqledIo8DQ8PL1MIr81rXlT4kKaO/wQGy/di7J/NwWamdjfNLNhXrHd0NwAAAAAAQK4o/AwS975t02xatObPlGb/YOXQx4dPuGS2pDRUGik6CYCZkwZ/scwOLzrHw3H3+9100Xir9aZWq3Vn0XkO1minc+t4s/k34632E4PspZJfJWlnXvM9xseZVM5r3oFw2Y0Trc7vSv10EMWems3mXcriRe5+X9FZHpTZs8T3sPNdWUFnqw+/q/Sod010J24qOsc0LTd/n6RW0UGmmHRsvV46pegcecqy7sskX5fHLHf9sNVq/Vses4C8mdn3i84wXZIEZVm8z9L4taKzAAAAAACA+Yk7S5CPMy9JhxdXfy+20+ss6c+/dh5dJl9qJaPwAwyOmtxeXXSIh+OuH7qFF09MtD5adJYZ1BltNj873my/LpTKjzHXu1z6gSS5VJ2lmXU3e0L/PO57Dzuj+9slTRQd5OGMd7s/UtA71afbITzqxGq1emTROVCcSqVytEc/s+gcv8T8GxPt9r8UHWNvExPtr7r09aJzTFM2L/1K0SFytMCkV+Y0yyX9o6RtOc0DcpWWSnd0utmo9cnm4BBMQfbtZce/o9AjbQEAAAAAwPxVKjoA5o8fn/n+sfXXvvG3vJM+zsrJYZ712cZrd0lh2C02io6CPnX1uUme48449yT7xdd+Uco2TxzQLdprJp9v2uv3B2rTw1/kQSXLG77h6Ve2ZSq0e1Gv10+R/BFFZnhY7t9Lor9stNO5tegos8RHR0dvlfTukRH9TdquPd+klbMxqFqtrpTpMbNx3YfKZZe1Ws3/KjrH/pqYaH+4Uas910znFJ1lb2YaToKeJun2orOgGBWzp7nZ4qJz7CVVtP9P/Vnq6wbZ+13+jKKDTDHTU9Qrf7aLzjLbGpXKU0z2+FyGud/nFj6WyyygADUvbUvVuSUpJaen3eJ7ycGkTPp00TkAAAAAAMD8ReEHudpw9gd/sfZTF1xupfBO9V3hR1LJFD3w7wK/5MhPX7iyG+MfWQjLFX3WSyyhEvy2v7up3PnhXUuje0lmDznTTAq9/+kOMykJvaZNMN1hveeyIJnJgsmDZAoyM3kiyaQkBJmpd7nEeuekBFNQUCyZJFMIk9eVBEmmaKaQSHHybXpXZJaNteNRG1/zyp/rqo2z+oF6GObZc2ShL493kiSTbrboLx/gss8eduzQdqn1j7N1/eXgj3XZ8Gxd/8Fy19ZSpfx+NZtFRzkQqZv9peS/YlK/fUyDRXuypA8XHQTFiKZf6Y/dDru5/OvLV676zPiGDUVH2af68PCXJkZ3flOWU/HkYbj7o6vV6tp2u31b0Vlmm4XwBkm5lMZdurrZbLJpBAPr37/99dEzH33a7aVgpxd9PmoIQc12ujVN/RsFRwEAAAAAAPMYxQbkrpyWLks72WuVhPX9VvqxJMi63UrROdB/ulUtsKadlVRLq2Z9O1UwZfePqvn9Tcp2jPfaPA/JZMlkkcdMZkGemMysV8IJk7+20DvIMQmyYL3yT9K7vIIUQ1AIveuxYAqhVxDyJCrE0Cv/WO/fiaJLISgJvZJPElxRkoLkHuRmSkMsuiRQMYWnFpzhwbnfm1m4sNnp3FJ0lEHhHp6hfmsB9Hx0586dPy86xIFqNpvfHqrXr5X8NUVn+WV++sKFC5fs3Llza9FJkK8FCxYszdLuI4vOsRcP8v9vw4YNraKDPJjNmzePNWq1z5jUF4UfM1tRUvbotjTQhZ9Go/Foj9mZlsMXJ5d2st0Hg+68867JNt922n0hFH9MeKUc1GzF7x1WPewXRWcBAAAAAADzV/G3kmDe+fl5l270zK+UpH68YzZJQ73oDOg/FhOX1PFupll9ilHZXds1/pWfKts6Lsl626ce5Ml8sqCjXvHGzORTvzfJpv6z3u9lU3c5mcyk3t4gn3xrySaXF+2+1LRZ6r19lCm6yd01+eaK7nLX5OtcmUudGAo9zmvBggVHuHR6kRkeQgxBf9hsNr9ZdJBBsV6qSX5a0Tn25tJYOYSP9X4552RR+jtJRT+I/peZnZSm6RFFx0D+Yuw82g7+tMpZ4e63qFm5segcDyeRvibvoyPHLHlW0RFmnWevMrNF+czyrzWbze/lMgsokAVtzmHh6n4EMZn5T+zI8/u27AkAAAAAAAYfhR8UwoI+oyxr9mPjJ/NI4QfFSIKy+0c18Z+3Ko62Jo/Iehi9k7V2lXl8ahtQ0NQ5X7s6Q2Y2eWRX7zI+VQ6a3ABkJimEyc0+vYvt2gQ01TuaLAyZTV6fps2enKXJ6yxajN3TzbSs6Bz7FP1joxNtjiOaQfdWq4fJbGXROfbm7rfsmJj4ftE5Dlaz2fy+yf6z6Bz7UFGMJxcdAvnzzB8rqVZ0julM/h9jGnug6BwPZ2Wr9V039c+ZY+6P0QD/PFqv1w8z1yvymucWLlM/FjSBGZZGv7/TTnsPaCiImdRud90sULIDAAAAAACFGtgbWNHfbHv3Zpdt7IdSwB5cUmIUfpC/YMru26nmDbcq27F/ZZ9dZZzJdo4H27OkM/nvy8ykECYLOZMvn7qsmSyEacd42WScMFn0mXxZmLyc7T4KzEPveuPkUy9D2F00KvhwPI/+/GIT7Ju77k+ld2tubnzpW2WzwyT1XeFHrn+VlBUd4xB0shg/rj78+2rmjyg6A3JXMeu7oxq7HvV59eG/kb3dJrXl+veic0yzalGttrboELMluL9CZqvzmOXu32o2m/+RxyygeOH+6LFbYN9HZqYYvZOl2f8UlwIAAAAAAIDCDwqy4fwrW4r+X/u1wSRnnikpOgPmmSQo2zymiRtvVbafm32mije7t/js+evdr5/cymPa42W7tvpMbuWZfn3TCz4eTL5ra4/kJlmye45PrfsJvQJQ7/K2a4tQgRqSPb7oEPsU9L52u3170TEGTdo74qffCpudoNKcvwM2Sl+W+71F59hblJ1adAbkq9FoLJHUb5/b75zodL5WdIj95TF+uegMu5gtyWI4qegYs2ShpFfmNMuD6UpJ4znNAwpVdrtPsnaRP21M/qhz3+Zu97YCYwAAAAAAAFD4QYESu77/HwsNzLIQlN23UxM33qo42uwVafbHriO4Jss3yZ6ln6nSjYWw+zJhz+0/YWqrz2TJJ4QgmzwKzCY3AIWpctBkQSgkQVPneHkwxalS0K4CkO2aVy1wxU+jUT5e7ksKC/AgXLpdClcWnWMQmfkJRWfYm0u3WNl+VHSOQ9Vut39uZj8tOsfeTFovqVF0DuQnxHi8pJGic0znri9KGis6x/4qm/1E7ncVnWNSNYZ4YtEhZkO9XnmWTI/KadwvoiWfymkWULikEu6TvF3kAwySJEiu75188h9NFBYCAAAAAABAFH5QIEv9du+mzf0uOACDJjGlmyfLPjubUti/T8k2uW1Hk2We3eUe7SoCTR3bNXXMlyYLOz612WfymK/dv9798j22/0we26WpY8F2HQ/We+rN6L0+JpNHgyWh8A0/FpMTzKyv7hSWJJN/YmJi4p6icwwik/puS4S5/ntsbGxL0TlmgPfZMUA97ouHh4ePKDoG8uNmj1Cf/fxi0teLznAgdrbb90raVHSOXUynqM/+TGdCcL1Bub1fdvXExETfbWEDZktM4xaXtYv8cSPpPVDiR2YWi0sBAAAAAAAwgDeuYu4IVhqTs3oe81QSlN4/pokbblXc2drvzT5TG3p2FWoe9Egv9Tbx2J6ln+kX3XXMV5BM04pAky+bunDYdb29V/nkk3Zt9tl9WZ98soKLfNH9eFN/Hc/n0qgl5Y8WnWNAJXKdXHSIvZnZvxWdYaaY2Vel/trLZ2ZLYqdzZNE5kB/3rN/+nY8Hs7l2ROOYZP2y4UfufqqkoaJzzKQFtdoTXfa0PGa5tFMhfCyPWUC/+Pm2n0+YKSsyw+TPOncWmQEAAAAAAECi8IMCZeZjkias4E0gQO4SU3p/b7OPjzZ7x3HtB9uj1BPkSdhd2pl8PrWZZ+porV1Hd03b6jP18t3bfKY29ahXCgq7iz9TR4JNbQfyyY0+U1t9fPLlu65zastPMKk6ux/Gh1Ay08l91UyQZK6vjo2N3VZ0jkHUaDRWSFpVdI69dC3LflB0iJnSdb9L7n21QcKksiU6uugcyE1JFvrqz9ulu1JpY9E5Dpj7T4qOMMXMTqrVan13BOchCFF6rZnldNygf258fLxv/jyBPJx++gdTuTpFzTcztVpdl4e++r4IAAAAAADMTxR+UJhW2h53swnR98F8kpiyzWMHfozX9O09IciT3taeqWO1phd5fFqxZ2rLz9SxXMHUK+XscXSXFIIphNC77qnyzq7r3n20l0++3oMpTiv/eAi7rjeEoJAU9+VlZGRk2MxOKSzAg7H4Vam4OycG3GFmVik6xB7cH7BabXPRMWZKq9Xa6dKGonNM55JcyfqicyAfjUZjuUmHF51jD65NzWZz7t3ha/HmoiNM00gSH5hNXSMjI0e4dG5O41ILukIqdtMJkDczc5maVtANCSGYshjHYhYH4dhWAAAAAAAwx1H4QWGWa2hM8gmx4QfzRRKUbR7XxA23yne09vvYq6njuWyqvKNeAcjNdvV5po76mtrso6DJctDU2V3aVdoJ07b/WFCv2DO10WfXxqCpspB2lYZ6R3lNlnzM9igDTc0JicmSyQ1BBWm1Wsuk/tr60Ttyo/yVonMMrCxbLqlcdIzp3PTznTt3NovOMYNGg+kXRYfYm8W4XHw/Oz90tcpda4uOMZ2ZfVdSLDrHgepG+66ktOgcUzzVwBR+snb7FWZamscsl399fLx9Qx6zgH7j0ZtFPXCo92OO7bCh7P5iEgAAAAAAAOxWKjoA5q8fL7+5tXbbMS02/GBeCKbs/tHeZp8d+3+MlyTJgixIbr3jsjzsLv1oV1lHk9t9NK3ooz1KP2HyuC5NbuGZKveYdm/6sWC/vNXHNO0or2nlock8U5t/wq4S0WTxyIs5VCsEP1Gy/ip/uN82MT7eTxsVBotZ3xV+TLpdUqvoHDMouvqv8KNgK9X7s28XHQWzKyn5migNF51jD+4nDTdq79DcKp25uw+rj4pKFgaj8DM8PLwsZukrc/rRJsrtckndfMYB/cVkhW3NDL2fxXaW0wUDs8kRAAAAAADMXRR+UJzNK5y/gZgXElO6eVzNG2+ZLPvs//2CNlnm8amtO9M295hp8ve9Do6mikBh+tv2ijthcnuPtOtG6j1eP/XkkwWi3Vt+em8XJ7cH+eTrfFqhaNdmoGTa9Um983YKEJSsK2z4gwhm/6M+unN10Jji8v0+Hy8vUT9Xv/1FPERmus1dLvVRVdedws88kSquDX30V0+SZHq+u55fdIwD118fR1MYiMKPp+lzzHRCTuNuKbVan8tpFtB3vMCit/Ue2DC+6Ii37pB+q6gYAAAAAAAAkubWo1EBYO4JvWO8mjfeorjzwMo+vbffXbxRMu3ILjN5EnaVbfY4Zmt60Weq7BOmtvjY7sJQsN5xXmHa6816fZ1p237i1BahyZd5CL1uRdJ7smmbfXoZZ+UjeQDi4UUn2JvJv1t0hoHW2/DTV/pyG86hinar+m9r0YqRkZG+2u6EWbO66ACYHVF+mPqthXTgSm66QDn9fG2uf9opbc1jFtCnKoVON2VmNlDFbgAAAAAAMDdR+AGA2ZIEpVtGNX7D5GafA1hAYmayZK9Sjk099bb4BJt2rNe0Qo8FU0iCwh5beqaVfCaP99r9dpq23UeTJZ5eycenjhBLwu4jvaaXhswUkqmMk8Wg4m/6XlN0gL1kqdtPig4x2GxZ0Qn24GqadGfRMWZaDOFWd58oOscezBYnnU6j6BiYfcGNws+AMteSkZGRkaJzHIpqtfoUk56Wxyx339Kt+D/lMQvoR+4ymSpF/cwx2U5kcycAAAAAAOgLFH4AYDYkpmzLmJo33irf0dx9zNX+mizz+NR5XWa927R3be8Jcu0u5Ewd/TX1ep8s8fRKPtpdHNL0LUDaVfbZ9bZh8m0nj++aOk7Md13v5LzJ4s/uglEfPTDfbWXREaZz9wdKpbi56BwDLHH3JUWHmM7lO61cvqfoHDNtYmJis8y2FJ1jL+VWmvbVv3nMGgo/A8rNl7Zarf4qbh6YUAo6Xzkdl+2ya9s72z/PYxbQr0xWKfIxBu6WFTgeAAAAAABgFwo/ADDTgindPKaJG25R3DEhHWAZZtfxWNOO4Nr968nXT27i2fXyqeKN7S73TF0uTHvbMFUOmjzuq7cxKEgWJjcH9d52qtgTJ6/Hpx/lNW3TjyW2+/d90PlZI9Ul768tAWbbsizZUXSMAVaT2eKiQ0xnpnaapmNF55gF0dy3FR1iL0Hl/ir5Ybb4YUUnwGyxpSGEOVv4Ga5UTnDXC3IaN16SPqJ+2KcIFOXWv664x1qR/wySoE5hwwEAAAAAAKah8AMAMykxpQ+MaeLGWw/4GC9p8oiuqTO7bLJ4k0zbpjN53JZb2FXc0bRNPFPbeoKZTFNFn95le8WfsOuoMDebPL5rd2loKq8nYdcmn7jrddYrL00eGZYkoVcWOtDtRbPogXp9sZv1VeHH3Lc1m83tRecYVIu1uGTyWtE59mRpkiStolPMAnfZeNEh9mLBNVx0CMyy9etrMvXVJi/MHJMaZnFR0TkOlif2CjPL6+/nf462Wl/PaRbQl7ZkW5eaVPGC+j4uyd27xUwHAAAAAADYE4UfAJgpiam7ZVwTN94q3z5xwEWYqWO5bOpYrV7np7fFx3Zv0Jl6Xe/oLe06gitMPQ9h1/VockOPHrQMNHW0l+3KGyfnewiKu475miwdTW4Lssm3sclTwvpFkmWLzH1R0Tn2ZNsl9VtJYmBExSBXuegc07mUVqvVgSz8mLzv/i67h2rRGTC7avfdt9xd/DkPMHefk8W94eHhZS57RU7jMpNdmtMsoG8llcoylypFZnAXhR8AAAAAANAXKPwAwExITOmWcTVvuEW+rdk7butATJZ1LAS5dm/ccdtdsple3tlVvJk6mmvX68Nk6WfaEV+mPco6sl7e3vVo15FdsmlHd00VgKZ+P3l0l0KYvO4w+bo+avtIypJkyGVDReeYzuUTRWcYZNlwVpL6q/AjKd26desgFn7k1n/lNQ/9tuEJMy1JksUq+M5dzK4k2qKiMxyMGLvnmHRkLsPcbxprNv8jl1lAH8tcy82s4kWt+JGUGEd6AQAAAACA/kDhBwAOVWJKHxjXxA239Db7JAdegult2NHuzTw2ub5narOP7brgrnLQruLPtA1AtutN93ydSbtKPwphz7cLu7f8TG3y8WCKU7/f9TbTNg5NlYL6jLuXZSoVnWMPpnbREQaZuweX9VsRIJUG846gPjzSS2x+GXwxxpqMn1sGWTRbXHSGg1CT63XK6Wdql/2zpO15zAL6WQjJUncv9Gt/dGPDDwAAAAAA6Av9dacoAMw1ISjbMqbmjbfKdxzEZh9NK/jsKtho14adqU0/Nq2IM7VdZ6r842HqeK0gC5p8Pn2jz+QxX7uua/f177qeYIoh9Db8TB7nNbXdZ/p1WTK5ZWjqSLE+U5LK3mfbXkzWLDrDIIsxJmZ99mfuPrAlL3Mf67eyX3Bjw8+AS9wr0SwpOgdmj5kvKTrDgWpUq0832RNzGeZ+r1v451xmAX0u9Wx5KQlJYQt+XHJTWtB0AAAAAACAPfBIWQA4WIkpfWBMEzfcorh9oleeOUA2rXCzu4QTdh3XNbWFx6cduzW18ceCJjfvBIWp47mmb/UJvQvtWRCyXWWeqaO8PITJp8lSUZLsmjWVQ9Yr+4TJbT/9WPaRJjf89FmZ1V0UfmZXMBX7KO+9uWlgj3GzfjzSS2z4GXSeeNX4uWWwzb0NPybTG7R7B+Oscgv/2Gw278pjFtDvzG1ZtVJSYUd6mWTui4oZDgAAAAAAsKe+ulMUAPqVdzOTrGRTG3yClG4Z18R/Tm32OZj7e6a2+PQKNL3nk3dpTtvuIwuTLwu7Sj4yU0h2b/zZVQ5KJn8/bUPQ7qewx+WnrnOq9KNkdxlIIUjJ5PUkppAksmTy5ft5l6t3stxrQe5etnzue9t/ga+1synGWAqmcj/9sVsfHns1U9xs3Ip6RP2DMHc2/Aw4d6+a2PAzyNx9ThV+Go3yIxX1jDxmubRDZv+UxyxgLjBpqR3EAy1mcL7cfWlhAQAAAAAAAKbhTkgA2A+lxLtZ1MaYZZky92xHuzLxX7fV4s4JqXzgSweCbHJLz+RGn8lijU0WfkIIvVuTp7bxTG756W3uUa/YI+3e6qPeb0yTR3YF9Y77mtwGtOdt4t4rFsnkkqIFee/FcknuNvXI1clNPkHukzduy6W4H++guyelJPdV956o0ke9jx73kaIjDLKaFLrqrz93dx/cDT9uY73PFH0kiMLPgAueVF3Ohp9B5nNrw4956VWynDZ8uH9lojnxvVxmAX3OXbb5Ni2NsbjvRaJLFqyx8eu/VV/3pPexyRMAAAAAABSKwg8A7IdffHvtXUc96b4Xd5udklVL7t+7Z4FVkkXlo5cf0q3NZUkql3/p5aVSea8L7Xo2+ZvSnq8uS93JS5TLUveXrnD361VW7wKTc1NJpakrKXdl2nt2WckvR3xIaQxerVY3HNhbHbrgodpPm14kydyGis6AfPXZX8GZNuDvHvqRu1dkHOk1yCxosXp15f2pFRdqaEgrlcVX9BrWs84VdKn6rmkJFOMXv3hXdch8SZGFH3eX3BpLVq8ekTi6FwAAAAAAFIvCDwDsj0suSX8u3T/tJfcUlgUPyt0bls8dcPvNpbqmFiRhxrWkWJI6RefYgw1uycvdF/TZPzEpcmfboHOpZvt9oCTmInfVi86w32LlFTI7PJ9h9o16fejrExPtfMYBfS6M1urWiMvdiy38uKmx3Vsjku4tLAgAAAAAAIC44RwAMFj6rYogM69LqhadY1CFEFJZfxV+XD5cdIbZYtZ/75ubtYrOgFkWpg6oxAAraQ78GS9evHhEFl6d1zxTvOqBBx4YzWse0O9KobXAXUdkWXHLwLx3BvJQ1UsLCwsBAAAAAAAwicIPAGBghOD9d6eYW10jI3Nnc8EcY2aZy/qq8GOuRtEZZot7/xV+jMLPwLNoE5KyonNgViVFB9gfrVbr6XKdnscsl28IzfbVecwC5opKKawslZKlRR/pZWYNS22ksBAAAAAAAACTKPwAAAZGNE0UnWFvbqo3ul02/MwSM4vyPtvwY1bRgH6PZWYLis6wt6hI4WfAeQjjktKic2D22NzY8FMK7hfnNcykK3dKW/OaB8wFMSmfEEKxnyrcpVIpVFQShR8AAAAAAFC4gbwzCgAwP1lmLUnFPeR3H0yqZ1nGhp9ZYmaZyfuq8COptGZQj3Fz9V3hx6Io/Aw4y7Jxp/Az2NxLRUd4OPV6/TEyPS2PWe6+xRL/lzxmAXNJMDvRrOjCj6taKSlGLS40CAAAAAAAgCj8AAAGSOgd7dMuOsd07l4vl30wyx99IBlLUqm/NvxIKu9cuHBAS14+VHSCvXGk1+BLQhiXnMLPYAvq8w0/Zv4qSfkca+j60thY58e5zALmEI/xpIL7Pr0cLplpadE5AAAAAAAAKPwAAAZGFrKWu/fVnf9mtihNA48AniWJkijrr8KPycvdbncQCz9BZvnc2X0AonGk16CLSTIuZ8PPgDNJSdEhHkytVlsn18tzGpdGs0tzmgXMGbfc8tdVN63rh12e0V2ubHnROQAAAAAAACj8AAAGRkitZeq7432qJbM1RYcYVFu1tSP38aJz7MFVKpdjregYs8FlI0Vn2EsM0bYVHQKzK03TcUlZ0Tkwe1wKy5erb4/1CtJrTFqWxyyXvtZqtb6ZxyxgLlnoWw83aWkWY9FRFGOUmR3m3t+byQAAAAAAwOCj8AMAGBiJWUt9eLxPdD+x6AwDrOVmW4sOMZ1LQ91uyOWO4TwtWLBgsdxXFJ1jLzG43110CMyuUqk0burLDT/O04w8SZKybElf/mw6PDy8TPKX5TQuynSV+ux4UqAfJEnlyCSEFTEWv+LHo+TRjtXN7yoXnQUAAAAAAMxvffsoSgAADlQnhJbJ2333UFvzk4uOMNDcHuinx1eb2cIgrZM0WBsaut3jrM+O9HL3ca9UtqnTV6e6YYaNLR0bG7q/2ocbfuy/FeMfFp1iAFg062zdunWi6CD74mn6LDM7NZdZ7j+baC78VP8tKwSKZ24n1url2kSz+K/5WYwy8yN3LKgNSf11tCwAAAAAAJhfKPwAAAZGuVxuZZ1Oq5/KH5Ik1yMklSV1i44yiELQZi/+wd67mBSiZ0cUnWOmZe7Hm1m96BzT/f/s3XecXFX5BvDnPffce2d2NwnpCSGhhQ7SBKX3IqhIt9KLio2fvXfsimJFiqKgIE1QLAgKWCkqHemEUJKQvjvllvP+/piJhJiym8zOuTP7fD+fmLgke57d2Zm595z3vEdE5kRRxE4Y3e4p1FCW4i2oquvpq9dvnwMU61hBaiWjgjPad1khPwLm9bdtOKIOoQp54VHsmBegu89/qfTWXbAhAB4tSkRERERERETeFLJtOhER0dpYsmTJgIoWcOFVpvX09LzMd4quletc3xGW11iKMjOBwpWerRMx2AKF+5r0uQULFrCQbgRQ4GnfGf6HyGaLS6UdfMeg4dMbx3sDeEVbBlN9xqpe1ZaxiDrMI498MwLw8jwvRrM3VUCBSLJ0c99ZiIiIiIiIiGhkY8EPERF1kzqAWb5DrEgEfaL6St85ulVudA6K1j1JsBmA2HeMFgoE2MR3iBUpMAc8SmNkUDzgO8JK9AQiO/kOQcPGQOQEAXraM5r8akm9/lhbxiLqMKPyBVMBbOIK0uFHVRGFxhijm/nOQkREREREREQjGwt+iIiou6jc5zvCSgjgdgXfd4dFoGYuClbwI9CZY8ag5DtHq4zBmNFOi1fwA5U5AIqx3Z+GlYgWseAHULeP7wg0PEaPjjdR6FFtGq7uVC5s01hEHUdMuCME5SId4WrDAOqCTX3nICIiIiIiIqKRjQuPRETUVVTkXt8ZVmG/crk81XeIbpSqPq9arIIfQCa7ajTRd4qWiWtjAGzsO8ZKPOM7ALWHOjziO8MqvGLcOIz2HYJaL09xkoiMacdYqvhdtVr9ZzvGIupEgTE7RZENtEAVP41uQ7rBww9/s5s6OhIRERERERFRh2HBDxERdZU8zx9Ewbq9NMh0o7q37xTdqF6vPyOii3znWEGIAFv6DtEqmcVmIjLed44V5Orkcd8hqD3EuecBLPKd43+ITE5r0V6+Y1Br9QKTFHJsm4ZLVORHYLcyopXSO38QwmDHwIjvKC/hcgcVTBsT1sf6zkJEREREREREIxcLfoiIqKuUSqX5AGb5zrEyChwHoFirFd2hDpUHfYdYgeQqB/gO0Sqa69G+M6xIVReJlUd956D20DCcq8Xs6BTmKicAsL6DUOtoHB8uwGbtGQz3rVet/q4tYxF1oIVjF05Vp9ulWbFq4nKnUNUNAjgW/BARERERERGRNyz4ISKirrJkyZJ+qD7kO8cq7NkThi/zHaILKUTv8x1iRSLYa8yYMev5zrGuRo0aNR5i9vOd43+ILChVKo/5jkHtUalU5kHxnO8cK6Xy6p6eHr62dw8LY05Huwp0VS96Dqi0ZSyiDpRAN4/CYHqWO99RXsI5RSkOR2uWTvadhYiIiIiIiIhGLhb8EBFRt0lEzH98h1gZEUxAYE72naMbqeAB3xlWpJCt83p9G9851lWW1XcHsJHvHCvx9AJgie8Q1Da5CJ7yHWJlRNAD507znYNao6cnPlCgO7djLIU+7XrNte0Yi6hTBcCeQWAE6jvJ/zICKEx7uoEREREREREREa0EC36IiKgLuUd8J1glkbfEcbyp7xjdRnI8ASD1nWN5ApQccKDvHOtK1BwiQOQ7x/+Sf/tOQG2mKNrRff8l0Nfxtb0rBFCciPa95l1RXVB9tk1jEXUeAaC6r9MCVvsAUAVEsaXvHEREREREREQ0crHgh4iIuo46/EcLejyGAOOsyHt95+g2qeqzUJ3jO8eKBPoaAIHvHGtrzJgx64noa3znWCnVf/uOQO1lJPsLgGKd6bKMyFQDvMV3DFo3vb29WwHy6naMpar9YtzFQBH7lhAVw+yHPzvdqW7uXDGfJgqFExb8EBEREREREZE/LPghIqKuY0ulfwnwvO8cq6Yn9cbx/r5TdJOxY5NnUMDHXIHNe3p6dvCdY20lSbIfINN951iJFMYU7hg3Gl6l6tj7FHjId45VEcG7y+XyK33noLWnzp0kQF9bBhP8amAgvb8tYxF1qBjRzoGRCUUt+IECAmysf/yk9R2FiIiIiIiIiEYmFvwQEVHXWbx48SKF/t13jlUSKavIOQBG+Y7SLebMwQAg9/nOsSIRGSWqR/nOsZZiAz0DjQM1CkVVHzTGPOU7B7XXPMwbgOqNvnOsioisZ+C+3tfXN8F3Fhq6crm8gUCPbtNwdThc3KaxiDqX5LuUSmFY1IIfpwoIxjw3qW+a7yxERERERERENDKx4IeIiLqSqNzgO8PqiOAVPaXSZ1HAYorOld/kO8FKqTupXC5v4DvGUI2Kov0BHOA7x8qoyB39/f0v+M5Bbafq9FYAqe8gqya7uSz7qO8UNHQG7ggAG7VjLIXeUanXb2vHWESdSp/4ZEmB3fK8mCc5AoBzCqiMLpWzDX1nISIiIiIiIqKRiQU/RETUlcS6u6C6wHeO1RHBO8rl+K2+c7RbqVTaEEC51Z83UPM3ANVWf951JrK+qJ7sO8YQxbkx/wcg9B1kJVQEt/oOQX6ItX8D9DnfOVZHBGf2RdGRvnPQkPRA0b7XacHFKOL7FVGBPKd2sgh2zrLiFvyoAoGR3jxXFvwQERERERERkRcs+CEioq7U35887iDFPdarITCQL/WVo0498mlIoijaqrdU+oERvbRUKk1s9edfUq8/p9A7W/15W0GgZ46Koi185xischyfKoL9fedYGVUsdg5/8p2D/KhUKs+p4p++c6xBWY2c11cq7eU7iGe9vgMMVjkqHwyRndsxlgKPGBNe146xiDpZmIV7BMaMLupxXgCgqiiVQlFpT3cwIiIiIiIiIqIVseCHiIi6VSKqv/QdYhBGOcjFvaXSG30HGS69vb3b9pRK37JG/grBGYCsLyL5MAxVEZi/DcPnXXci0/JAPuk7xmCMGhVtbgQfQ1GvEwX/qtVqs33HII8Uv/IdYY1Epin08p6e6FW+o7RbqVTao6dU+mZvOf6u7yyDFIpxbevuo04v45GERGumkh9kbeA7xho1jvXSTVSVx/QSERERERERUdsVcyGHiIioFYL69QrM9R1jTQQyGoILyuXoXQAi33lapTcMt+0rlb6teXazCN4pIus1/1M2XGMK8A8A6XB9/nUhkGN7SqW3+M6xBn0uNd+EyFTfQVZJcSOA4p7vQcPOhPpXBZb4zrFGIlPFyaW9pdIbfEcZbqVSaUZPHJ/cVy790YjeIIJ3KbCx71yDUS6XdxCRA9oxlqrOy1UvbcdYRJ1s0X2fHKcqO6kWt7vPMrlzMCIbP/vsp1p+XC0RERERERER0Zqw4IeIiLpWpYLnBB3QCaKhbGC+2VOOfxTH8Ua+w6yL3jDctqdU+p4G5lYVnCUiLT++a1XUVP+iqnPaNd4QWUC/PqpU2s13kFXpKZW+CMGhvnOsiqouVcn+6DsH+dXfnzwuqrf5zjEoImMV+GG5XH6b7yjDIOwrlfbsKUXfCQS3iJGLFNhXIKMb/3lYOrm1XKB6Itp0/JiIXJ8kySPtGIuok+VxecsgkM2zrPgvI845KLBpn05gwQ8RERERERERtR0LfoiIqKup0ysA1H3nGCyBvCEw8rtmJ5iS7zyD1dvbO6lcjo7tKZd/rjb4iwjeKiJj251jYABzROTGdo87WCIyIRdcEMfxpr6zrMD0lEofE8HbfQdZPbmjWs3u8p2CvKs70YvRIZ2eRNBroN/uKcc/7+3tfZnvPOtqVBRtUY7jM3vK8U0quFHEvB3ARr5zrY1SqTRDoUe1abharri4TWMRdTQ1+opSyZacK36HH+cUqjq1XquM853lfyhk8iVvbktBIxERERERERH5wYIfIiLqapV6/Y+q+JvvHEMhwOYiuKSnHP++XC6/Dm3qPDBU44FRfaXSHj09pW+ry28xMFcI9HgBRvvMpU5/DqCwW8IF2DoQuaY3DIuy8G97y/FnRPApAOI7zGqpXoaCHtlG7VWtJr9W1Tt95xgCI5DjNc9u7CuVPjl69OjiLQyvmo3jeJOeOD6ttxRf74zcZIx8XyB7oYMKU1fGAK+HyJS2DKa4pVar3d6WsYg6nKoekmcdUdMJADDGBEC+me8cy5t5wzvjDa899UvRqNK7fWchIiIiIiIiouHDgh8iIup2iQO+7zvE2hDIXgZ6TU+59KvecvmdpVJpuu9MANDX17dlT6n0wVo5/o0KbhPFWQJs6TvXMpV6/Q4A9/jOsToi2A42uKo3jvfzmaOvr29ib6n0PUA+CiDwmWWNFM+iHtzgOwYVRg0GP/QdYqhEZJIKPpWnyc29pdKbAfT5zrQqo+N4075y/LbeUunyQOQuMfJDiLwaItN8Z2uRMQBOQPsKHX8EIGnTWEQda+6TX58KYKe8A7r7AIAqEAQGcNjcd5Zlpl53xoR6vXKxlKL3Q/UA33mIiIiIiIiIaPhY3wGIiIiGWxzHv8/q9X9BsKPvLGtDgH0B3TeAfqgnjm8Wkd8gyO8dGEgfxvAfV1bqi6KNHLCJBrKrQPZyWba9CMYXuBnMQkB+A2jRH++ZauTanp7SVyql2rewAEvaOXhfqbSPZtmXIdi1neOuLQWuqaDyvO8cVBwi9nrV/KEiFRwOwfYQ/KinFD8uYq7NVa+r1Wp3Aah6zNTT2xvO1MzsKiJHZtBdBDIRUuBX+3VQKpVeJYJt2jGWAveVa7VfD7RjMKJOl9b2FiNjtUMKfgAgMIJUilHws/61p2xhVc+X0O7t0hwCbDHuhjeNXnDYpW29ziQiIiIiIiKi9mDBDxERdb3Fixcv7Ivj76jI+ejk7nYi64vgzQDerLmZ31OO7xeV+5zIvYHqfc6YR8uVysD8RgeBFMBgz0IwaFwThGPGjAldtToxt2Y3cdhNRbdRxUwRmfrfBd9OWPnNssthg/cCiH1HWR0BRkPx2d5qfKiU9ev91eTXGOYiriiKNg+teY9TvFEaHS4KT6HVXLMrAXTO6h8Nu4GBgTk9pdKlEHzWd5a1FIjIZoC+PxC8p7cc364qv4HJf21tedaSJUsGMHyvB8H48ejJ+uPxmbhXAsE+EH2Z5thKjIwFAOmIF/u1FhrBqe0aTBQXzweWtms8oo6m2KsUW1utdc4JnmIEIrqx7xzTrz7lYDj5vsRmY01ywAgAWa+vUtpuAfAX3/mIiIiIiIiIqPVY8ENERCPC+ClTLp039/lTBLK77yytICLjAewNwd4GChXkom6gWoqf6hF5Hk7nwGAuVOaJuIpAUueQQCRp/HMdoypjAYyH6HiBjIfquCypT0BgpokibnR16MzWDgNp+kBvYP4AkcN9Zxkc2UMhe/SWS79TxaUSBL8fGBiY08oB+kqlvRxwJKBvgmJiJz2sonJbvZ7f5jsHFU+E0k8Srb1LBBN9Z1lHISB7iGAPaPCpPKnP6ymX7gPkXjj3kACPRCKPo1xevHDhwgoaRZ2DIb29vRNF0gnIzEQFNnCqm4nBVtWKbCMGmwBBuflXIZ30wrAO+kqlV6rqbm35glWfySFXDv9ARJ1v0ayvjUuT2r5ZlvuOMiTqFE4xecFjXxwzbtMPLfaRYYOrT3+HGHxeAhmtSfP7pwAC6XUi24MFP0RERERERERdiQU/REQ0Ijz11FO1nig6B4FcAyD0nWcYBABGi8h2ALZr7OgFGvU6jaZGslxvo5cW8iz7u1210pup0e+KyoEoeJefFRwigkPg8id6S6VbAPwBQf5vkXhuf3//ABrH/ay5y81k9JYWl8YHqpuoyN4ierAC2wvQ14EVXAlUvwKgs1b/qC0W1RbN6inFPwXkbN9ZWsii0VVtKqAHwQigGEhEF2itWuspl1JRTVSwVBRLVLAYKksBiKiWISgDUlbRUYCMg8t7nUqPAL0Q9Jnueq1fKzlwohHpbcdYCrmmVqvNasdYRJ0uTbIdgyDYOs0G26SyGHLnIIKJGdxkAG0t+NnkxjPGpP3uc2LwVgBWl//eqUIiC1NPt2tnJiIiIiIiIiJqHxb8EBHRiFFJkt/3lErXieBo31naaWXVISPhXKRKJbmxt1y6BcDBvrOshY0h2BjASeqCqiJ9pKdcmi+KRRAsUuhCqMyD0RcAOFHTp6o9IjpOgQ2wBOuL6MYQmdFY2u/gBX7VGwbq9Vt9x6DC0lzxLSt6NCAzfIcZNoJeQHpfrNNsHri1rHZTXvz4i/9kuT+zyOe/4jjeVARHtmMsVR2ACS5ux1hE3UA1O8baUPK8swp+nFMIZJJRnQjg4XaNu/HVp22e9effMXF4oCY5oCu5wncKQDbZ4Iqzy7OP+0a1XdmIiIiIiIiIqD1Y8ENERCNJmjn38dDI7hCZ6jsMDbtUc3euBOYANDogdSQByoC8bNn/afzWXOXXZYv42lznl04u7VmZRJB/HUDiOwgVV71efzKI48+KwQ8AmDX+AxrRjMFbBBjXjrEE+P1ApXJfO8aikW3G1Se/Gio66+iLfu07y9p6/rHPT4bDQc51Xlm6c4pyOYxqtfoWaNPRWTOuPP3A3OA7YoPNtZ6tJpwCwIZpUB2FRqdIIiIiIiIiIuoinBAnIqIRJUmSBxXyIQCrmRmnblFJkpuh7g++c9DaUehV/bXsz75zUPFV6vWfQPEb3zmo2Hp7eycJ5PVtGi5zoj8GCxapDVTMK1AKL51xzWmnQjuz9lcyHBdFdpMs68wTPPNcoU4OHPaBrjg2mHHtyWch1CslkM01Xf33S52DAhtarY0Z9mxERERERERE1HYs+CEiohGnUqtdAuAnvnNQW9TV4DywwKsTLYEEX8PIOIGO1l0def4RBRb6DkLFpZq/SoAt2jMY/l2tJixCo/ZQM1UCMwYiP5hx7WnnbH3FsZHvSEOhz32lVwRnAiorO5WqE+S5g0J21+e+0jtcY2z8y1MnT4/GfB8Ivg0xYzQbxNFnChhrSoDZYLhyEREREREREZE/LPghIqIRyUE+Iar3+85Bw69SSX6j0Ct856ChEcVXK5XKXb5zUOcYSNN7IPgKWCRGKxdB9bR2DSaiF4Ddfaht8mnIFQACCcyH+qPRP9n4l6dO9p1qsBb0Z28IbLBNlg395VsECERgjTSPN/VDVWGMTJ5fyXcfjs8/7coz9stUbjA2aLyO5YMo9lmOMaY9xY5ERERERERE1FYs+CEiohGpWq3OdgbvBVD1nYWGnQty/RSgs3wHocHSW/trtW/4TkGdp1Lp/bZC/+Y7BxVPTxzvJ5Bd2jTcoznM9W0ai0a4DS8+sSSQsVAFVKHOQaLwuDzHr2b88tQ9fOdbkxce/uIGKu6DQSDQIbT3ERFEgUEISRZm2dJnaskcAeqh8VP145wiCoOSan666g/CVn3eDS8+sTT92jM+FITuGmODnTTNh17WKgKBsuCHiIiIiIiIqAux4IeIiEasSqX+Ozg913cOGn5Lk+QRFXzOdw5aMwUWO+TvB9DvOwt1ovlLxeGjqhjwnYQKRWDwFgBxe4bTa6rV6rPtGYtGOp0Sj1XIelhWLKOA1jNIaF8Old9Ov+aUT29yxRlj/KZcNZX8/aVSNDNN8zX+XRHAGkFsBCHQf9+Sygtfnj1v3jEPPW1e85+nJ3z6qTnzFyTZgkhEjYd2P0mawxhz5POPLdirFZ9v/WtO28GNCa8yFl8AZIwO4nu0UgJAhAU/RERERERERF2IBT9ERDSiDdTrX1TgJt85aPhVKvVLoHqd7xy0WgrFF6vV7HbfQahzDdTrt4i4jwEY2nkn1LWiKNpKIEe0YywFlkquF7djLCIAyKpulIj2rtj1RbMcEOkTG34iDd2vp11z6r5eAq7GvEc/f4AxcnI9yVb790SAMDCIIMmCJOu/4YWls058ZHZ20uPP9ly4YPG0ec71ZkDwi0X967/l0dnhzYv6nwmAum1ztx9VRRgGNoB+SO/7ZLS2n2eTK84YM/3aUz9kVW80UXCYpg5w63BapQIKTJl5wzvbVPRIRERERERERO3Cgh8iIhrpljjFyVC903cQGnZ1cfphVZ3rOwitguJ3vbXat33HoI6nA9XkXIWc6zsIFUMYyMkA+toxlkCv7U+Sh9sxFhEAGDExIPFKj8NyCmQ5TBjsERi5fsNrTv32Rte+tRCdXuY/8tXpAvmOtcEot5JiFmMEkTGIjWTOIXmiUnv6i8+8sOTNj86unz17zoy/V2rrVYGeCAKDRhObUASPp/modz31/MRznp67sD/LX4iNUWljt58kyWEDc8D8OH7/2vz7ja4+fZ8szH9lQvsFWDNhrbv6LE8VAi3bmmvL6yARERERERERtQ8LfoiIaMSr1WpPm1DfqIp7fGeh4dWfJA8I5L0Aar6z0EuJ4n6r+vZ5PMqLWmRctfoxgV7uOwf5VS6XpwFyVJuGq8HhEgAtWKEnGqRAS7qG4+oaRSPSh9Ce5TT764xrTvv6jGvP3LpNCf/HM898sieX5Ly4FG6RNAtaRAAjgtAIYmMgDgvv668suvD5Rc+e/MjsgWMemT3p4nmLJszK8vGhCCKRlU5ohY1PFl+yYMnkNz08W/62uH9OLKiFxqAddT+qClU1Esgn5j56zhsG++82+OWpM2dcc9q5TtwNEgZ7apID+Tp09fmfXCgtlGxUyz4hERERERERERWC9R2AiIioCJYuTR7p6QlPUA1+LsCWvvPQ8Bmo1S7tKZU2EcGnfWehZfRpl7sT+tP0Cd9JqHvMBqq9xr5LXTZVIHv7zkN+BHCvUcgm7RhLnd5eqddvacdYRMtIriUApRWP9PofTqEuB4yMExuc7dLs9TOuPfVywP4wiqLHHj3svHo78qpCXngs/qi1wRFJPYMNDAIA4jTpz13+dJIu+dOi/uyPSyujHq0lwRLojACCAEBoBGv8OtHo9hOJyKNpNv7tTz5fP3ps3wtvmTg22rAcjXZG4jQf3hMfnVNYG0TO5d9+4eHPvzBh84/euKq/O/OGkyfWE3MGVM6UKJiumYOmrc2nCkCkFDphhx8iIiIiIiKiLsOCHyIioqZKJb27XNYTBcGVgEz3nYeGjVZqtXN6y/GmgJzgO8xIp8Bi5PrWSpr+03cW6j4DAwNz4zg+xRrcAGBz33mo7WIVOW0wBQKt4ER+CCBtz2hETerKYkw06L/vFJpkMIGZikDeo0l+Zr1evXnG1af+1gX47ewjLnx0GNOi9uSXzuyx+EDunDrVdFE9m3vPQLV0x0Dd/Lu/Wr+3Vp9cVxUxRgIBYl37tjwWQB2If7xg6bTrFg0MHLFe38ITJq2HDeJoAkRs2ujG07ovbjlZliO0wTjn3M/nPPK5sydv9rFLlv/vU687Y0KQuuPTRN5mQrMNcoUmw9QcTBWAlgObseCHiIiIiIiIqMuw4IeIiGg51Wp2e29vcAJyvQwiU33noWGTBdX47KyUTBfBfr7DjGApnH6gkiQ3+A5C3aterz8WlUon59CrRWSy7zzUPuUoOhSK7doxlgIPWGt/146xiF7CSSxxMORiEc1d4/A5kbKx5nA4PVycmzv9mlNvR65XSWTvsamZ/fjR35/bkpw3vDP+27T19v9Pf/WzT+b5wvuWDCz5a391yqw8H7c0zYMqEFsjCJrHdTVCrvuwBkAsgn7V3h8vWNJ73eL+6qvX63v+9ePXK23eE/U6Y8qZUygUra79SbMc1ppxkQQXLH3sCzP7RpuvTPrjw5PLId6APD8R1mwKI8NX6LMcAQInhnOARERERERERF2GN/tEREQrGBio/6mnJz5ZVH/ITj/dawmWLBit8ek5cDlEdvadZwSqI8dHKkn9fN9BqPstrdX+WuorHWdyXCDAZr7zUFuExpgTAQy+88m6EFze398/ry1jES1HRN06VaqoQtMcEECMTBIJXo1IXq1JWsmC/LHpV5/2mIh7EM4+riFmmQSzkjpeCMLGuVimJ1JJKwoAQRprgjzIS0FfCEyQTCc76FZidDtNqhu956l0s0Tz8rO56xVgogEgIjAiKAEtKfBZFQMgEsFSp+VLFizZ4PpFS/sPGd235PUTRs/fqBRP7DViNDBhpgrn1j2IMYIQAjSOKpNZ1eSkbz06f5cwxLYS2Q3gFJo7aNaeFmQKcZLr8J5lRkRERERERERtx4IfIiKilahU6r/r6el5jWj+PUB2852HhseSev2xOI6PtaI/AWQP33lGClVdCoP3VJL6Rb6z0MhR66/d2huGRyI0F0LlFb7z0PDq6enZFupe1Y6xVLEgd3rJmv8m0TDQoK6pUwhknQpmFECuUDS7zYjpkUC2k9BsB+dep7lCMudcIFlY1lSBTACHJMkdwlyAPLO5E0ifzV1JoQEEgRhjxFoIFM9kOVQVsaz9MV3rygCIIehX9F2+cGnfLxf1Z1tE4aL9xvSle40uh1v2lBBCxotpfD9VGt+aZb+gAJaLL81f5qXfe01ynf+P/gHzl/5a9dbF/eXH02x9WDM9DIbejaklVCEBWPBDRERERERE1GVY8ENERLQKlUrl7lGjRr3GZemXAJyMxhoBdZl6vf5Eb7l8fB16EYCDfefpdqo6z4i+rb+SXOU7C408A2l6f9mWjzKi34Hidb7z0DBy7lQ0m4YMNwEur9frT7ZjLKIVaaB1AIlA4pa2yFFtdp9p1ogIACNGIBFEIln2MSxf/yKNP+uyjyrgFJpkAIp1IW200fEnB+y9STrh33MX4OJ5MjAxtrpVGC7ebVTP3I3L8fhxoRk92gT1HiN5ZBrfAKioUwUEWs9UFrs8nJfl7oU0n/N0pe7urdUmPJCkpefqWdAPjLNofO2S+ay3EZezww8RERERERFR12HBDxER0WosXbp0PoAze8vl+1XdZ0Skz3cmar0F1eozo0aNemOepheK4AjfebqXPiUBTukfSG72nYRGrmq1+uzEiXjLwEDpK6J4q+881HqlUmlDEX3tS9pwDBdFvwF+OvwDEa2cy/LEBEECg3g4j8R68XPrSj7WuQSNiTErggFB75J6hkdrKa5fWllPAIwVqUywQWWMDZIxNpBQJMgB51Q1h+pA5vBckvY+m7v1cmCTZZ/XiDS7CRWACACXOaOp7yhERERERERE1Fos+CEiIlqzfKBa/UZPHD8IwXew3GQ+dY+lS5fOHw+8pVoqfVkEpwMIfGfqLnqbSvCeykDln76TEM2bh36gdlZPT+lZUXwMQOQ7E7VOIHIkgOltGUzwl6XV2t/aMhbRSoQmqjnJE985uoHRZhei5Y4cWwL0LM7zHs1zuDpeLHJarruRARCIFPbCUQCoYKkmdr7vLERERERERETUWkXqqExERFRolXr9t2nuDlXFtQC4Q7YLzQeWVmq1s1RxKhTP+s7TJeqAfNlGpddWKiz2oUJxlUrts5K7Nyhwv+8w1DK9Cj21TWOpg/sBuqLPCXUqlSxRaLJ8kQq1jgEQKGAViLRRHRqh+WcFQm3890IzAiiWRAP1ub6jEBEREREREVFrseCHiIhoCJIkeaRSqx0lkDdB9S7feTqTRmjLOStrzVVqtR8jCA5V4CbfYTrcowbuuIFq9YOLFy9e5DsM0cr0J8nVYoIDVPVcAHXfeWjd9JZKrxFg67YMpvqvajXh+wR5pVFUh0i9yBdW5Fnjh2PBUyf/uOY5CRERERERERG1GAt+iIiIhk77q9Vf2Lh+oCo+AOjTvgN1DNVnBOaKarW6wHeUNRkYGLi3Uq0dCaefU+gi33k6TKLQn1mnhyytJtf5DkO0JgMDA3MqtfrZcPpqKP7uO093UB/3mjGAt6A997kKyGUAlrRhLKJVcurqopoUupSa/FJAgKd8xyAiIiIiIiKi1mPBDxER0VpavBiLKrXaVwKH/VXxHQADvjMV2BMi+IQJ9YCBavUDACq+Aw3S0oF6/eMKc6gqrgSQ+Q5UdAq9RXN3VKVaf9Piev1x33mIhmKgXv+DrdVepYqPAVjoO08HUxFZ1O5BS6XSzhAc0JbBVJ/tMebStoxFtBq9ebpEFf080otWSQFj5EnfMYiIiIiIiIio9VjwQ0REtI6W1OuPVmq1d4jiUFVcqYp+35kKQ3GHg75LArtrf6X22aVLk//4jrQ2qtXqPyq12nEOcrRC/+w7TxEpcL+Knlap1g+tJMmvGx8i6jyLgUWVWu3zDtnBCrlctWMKFP1TfU4hP4fiLUElOrndwweCU9Ho8jPsVPDzeZXK8+0Yi2h1/vO6i5ZCZC47/NAqiSJX/afvGERERERERETUetZ3ACIiom7RX6v9GcBfe8NwW1jzeoUcK8BM37k8qKrir0bkB0Ec/WHx4sULgbrvTK2g1Wr1unHAn2pxfJyIvAOCbQEEvoN59qiq+5EE4QUDAwNzfIchapVqNbsTyN7YE4Y7IgxOgdOjIDLFd66iUdU5AtylRq4IHW5bXKs2O3vV2ppj1Khoc5fqYe3ocqKqC2HcZcM+ENFgqT7OMltaKSNwqZuTI/+37yhERERERERE1Hos+CEiImotN5Cm9yDFPaNGjfpanqaHq+ANBjgQ3f2+qwCeUsXvJNCrKgP1PwBQVKu+c7XcAmAJ6vULJgM/W1Iuv0pUXy+CwwCUfWdrI6fAzRC9LAii65YuXTofSHxnIhoOrpKmdyFN7xo1KvpmluBNxuBEQDb0HcyzRIHbBHKdce4P/UnygO9AeWqOE0FbCrIE+ONAJf13O8YiGhzzsDrnOwQVkFgD1LN/TJ0RPf+s7zBERERERERE1HLdvPA43EIJg8ZyVwFIGMDV0457PAWIJAwKc+iHhAG0mnVGpwaxIqEW53sXGGjuYhXHZvJETY0iCFwC4PJy2W4vak8EsLcItkZ3HKuZQ3G3GvwN0Outrd+xZAkW+A7VLnOAAVSrVwK4tjfs3VptdiIghwuwhe9sw0Z1NkR+LwF+NNBfuwNArUu6Nw1G6DvASnTctV8nW7o0eRjAJ3t7e78L594I1TdCsCNGTpevJ1TxmKj+Bc5dXUnTh9HuNj6rMAYYmwre0qbhVBU/BMDqCioM59wjgeuGS0tqOadQ4G93vfz81HcUIiIiIiIiImo9LhKsJQe5XirJLM01950FACR1ARR3+s4xJPdvrbr97KtcNbtH82JsR5TUBcYY7zuUByPV2gtB3VwAkWKU/OSBQLFIjCzyHYWogOrVanY7kN3e29s7SfJ8SwfsBsEhUN1GRCagQwqAVLEY0EcAud4BN8dxfH/jyK4RLRtIB+5BiveWy+WvG+S7qJiD1OEAEWwAoNd3wHWQAPq8AreKyg2p0zuTpP6I71Ae5FD9FURmAyjEtR+AAM511rVfl2geXfeNsWPHXlStVrc3wN6AHg7IFiIY6ztfi/QDugAq/wbcrVD5ZwY8Wa/Xn0Rhys1flMbxEQJs3o6xFPq3Sr1+azvGIhq02D6CLM8hCIr3DCVvjEDTvGpscIvvKEREREREREQ0PNiJg4iIyKOxpdL0BNhbgd0F+kqIvAzFKsitA3hQofdD5W4Yc1OlUvk32NlgEGbGfaXZr3TAvhDsKcCuAEb7TjUIdSjuUeDPKvLHKIpuW7x48SLfoYgKTnp7e7eBc/tDdS+F7iMiE32HGoJcgQcE+k/A/FtU74x7e++eP3/+Ut/BBqHcVy7foNB92zCWE9G39Vfq57dhLKJB2/CaE9dThLchkG2Rs+KHGsQauMzdE8flXR897LwR05KRiIiIiIiIaCRhwQ8REVFBjBmDsdVqNNFa2UjUbKWiW0KxGRSTBDoejU5AUavGE/y3TUOiqosgskCgC6F4xikegtG78hz3l0ql+UuWLBkxR3UNk544jidZi42Ry04qupMoNodgMiBTBAjbuTy37LFX1RcAeVagT0HxL2f0zjzHQ+VyeR6LfIjWmi2VSlNF3C4GsisUWwHYAIKJgEwUoORhOV5VdSFEFknj9/kqeBwOj6u4x02mD5lS6fnmUZQdpTeO94eR36CF74+r8agEdrf+/v4X2jAW0eApZPq1p33LRPYdmmS+01BBSBjApfnZTx95wbm+sxARERERERHR8ChSBwEiIqIRbfFiLASShUmChwH8ftnHxwGjkyhaXwXTjMg0J26squkTlT4V7RNBn6r2iUgfoH3Q/x4hVYcgVUgiQKKKuggWAjJfNX9Bjcw3aharcwvF2jkiA8/392PeirmSJGnXt6CbVer1+pP1Op4E8Mfmx+yoKNrYCTZyIlMBTAEwDdD1RbA+IOsrMFYa12sGjTqd5X9f9meg0XHJoVHH85I/q2oNwHMCmQ3Bs3A62wHPGqNz1NinKpXKYwBe0sWDjznROslqtdrTAJ4GcHXzY/HoOJ6eQzdwItNFdXMVbCWQmRAdq4peiFgBAjSe28t+X/bn5Z/bL32OAw6quQB1iFRUtdJ4rceTcHhCAsxymT6ngZuraufUavU5AP73SZ6mw/tdGSZqcKq0p9gHDvqzKot9qIgEimv0z5rmb4WIhbLLz0gngYFm+dMG6bW+sxARERERERHR8GHBDxERUcEtAJYgSZYAeGg1f235IhDT/Jiu5NfKj+Kqs8u/B9nSJHkEwCMrfFzQuEazvb29o0TS8c5pKXBByamWNNCS0aCkqmVVLUEkF6DmRKoirm6cVHPJqsZIzWamf3G9Ph+No9kyAPlLh2JhD1Gb1JfU648CeHS5jwkahSoGQNDb29sTZNmoLHB9xmmfM8Eoo6bPOdcHEaciAyJSMc5VcskqxkjVZmYgs7YyMDBQReM5vnxh0EoqeLqr80dfX9/WLktf1Y6+tapYGNjwssbLKVHxOCd/MaIviJUpK77b0wgUCJC5K5866sdP+o5CRERERERERMOHBT9ERETdQdEo5uAST+dTNBbq0+Yi/tzGhzuz+wYRrZJiueqRgYGBfvz3+Q4Mujhn5BZsiub5m0VkbFsGE72+v7//4XaMRbQ2njn6gtkzrjr1bjHBFM15OTiiBQKX5k+H1p7rOwoRERERERERDS+z5r9CREREREREVCC9vZMA98Y2jZaJygVYVZc8oqIIcANMG1peUXGJQEQAxdcff+35s3zHISIiIiIiIqLhxYIfIiIiIiIi6ih9WXYkIBu2YywFbumv1f7ejrGI1kUe2Fu0ng2w6GfkktDApe4vcVy9yHcWIiIiIiIiIhp+LPghIiIiIiKiTtKrgpPaNJYTxYXguYrUAaZM1QegepNYTvWMSEagqZun0P979LBLl/iOQ0RERERERETDj7NARERERERE1DF6eqJ9IbJjO8ZSxYMDtfg37RiLaF3d9fLzUxj5iaa57yjUbs2jvDR3H5991IW3+45DRERERERERO3Bgh8iIiIiIiLqHE5OBhC1abSfAosXtWksonVWTRb/Fqp3g11+Rg4BxBpo5i5+Ol9yge84RERERERERNQ+nAEiIiIiIiKijtDTE+4gIoe2ZTDV53PVn7dlLKIWmXfcL/pV8Q3kqhDxHYfaQMIALs1+43r0fTjuF2zvRERERERERDSCsOCHiIiIiIiIOoMLTgbQ246hFHp1vV5/sh1jEbVSLVtylTr3D2GXn+4mzWKfJLvZGpw8+9ALF/iORERERERERETtxdkfIiIiIiIiKrz1SqUNRfR17RhLFf0qwY/bMRZRq8077hf9RoIvqdMUbPLTnf5b7JP/yRq88YkjLpzjOxIRERERERERtR8LfoiIiIiIiKjwUpEjAZnRjrEU+FO1Wr29HWMRDYen1pv6K2T5pRIGvqNQqxmB2ABI8l+IVlnsQ0RERERERDSCseCHiIiIiIiIim0qeqB6UptGy6zID9s0FtHw2O/TmXH6KZdkT/Bor+7RfCxrLs0+Hcblt8w6+tLnfGciIiIiIiIiIn/Y3JmIiIiIiIgKra9cPlahlwGwwz2Wqt5R6a0fgPlYOtxjEQ23GdeedoxCfipADFXfcWgdSBQAmXs2z/L3zj76op/7zkNERERERERE/nGbFxERERERERWZzaEnog3FPgAgYn7KYh/qFrNed8GV0PxLEgbc8tWhxBpIYKD1/EbN5DUs9iEiIiIiIiKiZVjwQ0RERERERIVVLtudDXBQWwZTna0iV7RlLKI20XTpF7WWXiG2y4p+ZLlf3UgEEgbQ1D2NLH97as3rZh19/j99xyIiIiIiIiKi4mjLDkkiIiIiIiKitWHUng5B1JbBxFxaqVSeb8tYRG0y+7hfVKded8ZZNnFjTBwcoknuO9LaMwKxBnAKzRwAKIyIhAGA5sdchx9dJgIJDVySp0jznyjMObOOOv8x37GIiIiIiIiIqHi6dR8UERERERERdbhRUbRZbuQ2EZk83GMpsFCyfJ+BNL13uMci8mHGVWdMhbjLpBTsq0kOdFJdzLJuN/V0qRq5DYo7Vd1Txpg6oOOhsg2AjRT6MhPZKXAKddpZxT9GIDaAJllVFTeIy78/65iL/+A7FhEREREREREVFwt+iIiIiIiIqJB6SqUPieAL7RhLoZdXqvXXt2MsIl9mXHXGVAT6A7HyGs0U0A4oiDECQFI4dxlc9q1Z+cDdOO4X/9OmaOc7zwiffzLZyBh7gAjeBMHOYoOypgXvaGQEEhhols+Hml+Jc99/6qgL/gHpqJIsIiIiIiIiIvKABT9ERERERERURKN6yqU7BNiiDWPlcHrIQL1+UxvGIvJqi2tPGVVV+bKE9q2aF/wIrMAAqosAfd+sIy64cCj/dPrVpxwMMe8SkcPFGmhWoK5GLz2abL4qLjWCi5868oJ/+45GRERERERERJ2DBT9ERERERERUOD2l0gkiuAhAMNxjKfTW3r764fPmoX+4xyIqhCuODTYMR79HjfmwBGZ8EbvgiA2gafaCOJz41DEX3rA2n2PmDe+M60ntEHF6Nozs2yj8cX46GxmBGAGMgSbZUijuciK/Nnl29axjLn68/YGIiIiIiIiIqNOx4IeIiIiIiIgKZepU9CxeVLpegP3bMZ46Pa1Srw+pewhRN9jw6lN2g7FfhpU9C9XtJzCA03ki7oSnjrjwt+v66Ta44tiyhKNfK5CzIdhFbGDaUuQkzU4+ADTLB6B4SFWvVDU3zR63/r+w36ez4Q9BRERERERERN2KBT9ERERERERUKHEcH2iN3NiOsRR4PKzGOy/G4kXtGI+oaDa54owxaZifLSJnSWgnaJZ7LfyR0MClbh6cvunpoy9s6evAzBveGaeVytFq5Qwxsg9Mizv+GIEE5r//1yXZEhG5C6q3K9yvnh77+N+x3y0s8iEiIiIiIiKilmDBDxERERERERXKqCjaQoNgGwBumIcyOTCrWq3eOczjEBXeJledsm1u5P1q5Cixts9H4Y+EATTN56i6E54+6qLfD9c4E694e18cJAeJkXeI6F4S2lCzHFAMrvhHmv8jaBzT1ehIBE3zBap4CiJ3irobXYZ/pWPqz8055KcDw/W1EBEREREREdHIxYIfIiIiIiIiIiICAEy/5rS9BHgDoEcjCCaJEfy3GGYYSRhAc/cksvTUWUf/6ObhHa3pj/vYGQu2OASBOxyKQwDMkDCwMNIo/HHa+LoFgBFAZFlhDxRSE7gXALkPIncr9AGk7oG4t/feRw87r96W/EREREREREQ0orHgh4iIiIiIiIiIXmKDK86cJlF2HCDHiGJ3iQIgV6jT1h2BBTSOwYoCaC27w7j89CePvvju1n3ywRt3wztH96XVl8PhICg2hmA8FJMUOkqAxQoskEDmI9OnNZC7gzy4e0m5/4ntyjMrt+z3aR7TRURERERERERtx4IfIiIiIiIiIiJaqfHXnjKqJ5dXwpgTRHQfVZ1i4jBE7qD5OhT/SLOrT5JXRORCJMk5Tx334+dbm37tzbzhnbGrLhzjNCpHkR1wNl7Kzj1EREREREREVCQs+CEiIiIiIiIiojWafNWbJ0W2tJs4vBLQPVXl5RJISYw0jrxSNI680uZRWMuKgUQaBT4iQND4ey7JUjXmBpPh27OO+eEffH5dRERERERERESdiAU/REREREREREQ0JJN/9+beaKBnCoxuI+q2V8XLxMgMOJ0CYJQCfSYMQgBwaZ4BUhXoIgBPAHKHs3L56Nqiux847heJ1y+EiIiIiIiIiKhDseCHiIiIiIiIiIjW2dTrzuixGaYak43OgVGBSh/UaA5UYFGBuoWz/7nB4/j0p53vrERERERERERERERERERERERERERERERERERERERERERERERERERERERERERERERERERERERERERERERERERERERERERERERERERERERERERERERERERERERERERERERERERERERERERERERERERERERERERERERERERERERERERERERERERERERERERERERERERERERERERERERERERERERERERERERERERERERERERERERERERERERERERERERERERERERERERERERERERERERERERERERERERERERERERERERERERERERERERERERERERERERERERERERERERERERERERERERERERERERERERERERERERERERERERERERERERERERERERERERERERERERERERERERERERERERERERERERERERERERERERERERERERERERERERERERERERERERERERERERERERERERERERERERERERERERERERERERERERERERERERERERERERERERERERERERERERERERERERERERERERERERERERERERERERERERERERERERERERERERERERERERERERERERERERERERERERERERERERERERERERERERERERERERERERERERERERERERERERERERERERERERERERERERERERERERERERERERERERERERERERERERERERERERERERERERERERERC0kvgMQERERERVdHMebOOdOARADUN95ADgAl6Zpeq/vIERERERERERERERE1H7WdwAiIiIioqLLsmwjY8wHAIS+syznXwBY8ENERERERERERERENAKx4IeIiIiIaM0cgATFKfjJRMT5DkFERERERERE1AITrLXfF5ENfQdZQS1N01cDWOw7CBER0cqw4IeIiIiIiIiIiIiIiIiIfIkA7ARgY99BVpCjOJu/iIiI/ofxHYCIiIiIiIiIiIiIiIiIRixFo7Ny0dTRyEZERFRILPghIiIiIiIiIiIiIiIiIiIiIuogLPghIiIiIiIiIiIiIiIiIiIiIuogLPghIiIiIiIiIiIiIiIiIiIiIuogLPghIiIiIiIiIiIiIiIiIiIiIuogLPghIiIiIiIiIiIiIiIiIiIiIuogLPghIiIiIiIiIiIiIiIiIiIiIuogLPghIiIiIiIiIiIiIiIiIiIiIuogLPghIiIiIiIiIiIiIiIiIiIiIuogLPghIiIiIiIiIiIiIiIiIiIiIuogLPghIiIiIiIiIiIiIiIiIiIiIuogLPghIiIiIiIiIiIiIiIiIiIiIuogLPghIiIiIiIiIiIiIiIiIiIiIuogLPghIiIiIiIiIiIiIiIiIiIiIuogLPghIiIiIiIiIiIiIiIiIiIiIuogLPghIiIiIiIiIiIiIiIiIiIiIuogLPghIiIiIiIiIiIiIiIiIiIiIuogLPghIiIiIiIiIiIiIiIiIiIiIuogLPghIiIiIiIiIiIiIiIiIiIiIuogLPghIiIiIiIiIiIiIiIiIiIiIuogLPghIiIiIiIiIiIiIiIiIiIiIuogLPghIiIiIiIiIiIiIiIiIiIiIuogLPghIiIiIiIiIiIiIiIiIiIiIuogLPghIiIiIiIiIiIiIiIiIiIiIuogLPghIiIiIiIiIiIiIiIiIiIiIuogLPghIiIiIiIiIiIiIiIiIl8EQI/vECvRg0Y2IiKiQrK+AxARERERERERERERERHRiLUUwLcATPIdZAUJgIrvEERERKvCgh8iIiIiIiIiIiIiIiIi8mVplmVf9R2CiIio0/BILyIiIiIiIiIiIiIiIiIiIiKiDsKCHyIiIiIiIiIiIiIiIiIiIiKiDsKCHyIiIiIiIiIiIiIiIiIiIiKiDsKCHyIiIiIiIiIiIiIiIiIiIiKiDsKCHyIiIiIiIiIiIiIiIiIiIiKiDsKCHyIiIiIiIiIiIiIiIiIiIiKiDsKCHyIiIiIiIiIiIiIiIiIiIiKiDsKCHyIiIiIiIiIiIiIiIiIiIiKiDsKCHyIiIiIiIiIiIiIiIiIiIiKiDsKCHyIiIiIiIiIiIiIiIiIiIiKiDsKCHyIiIiIiIiIiIiIiIiIiIiKiDmJ9ByCiYSUA4tGjR/ekaVp2zpWcc2UAAYBAVQMARkRSAHURSYwxSRAEtYGBgUUA6h6zU2eSlfxZl/vY8n+ml5Llfuf3bGSLyuXyxCzLxqnqGGPMaFUdo6pjAIwWkR4AEYBw2e+qGqHx2p6LSA4gQ+M1vCIiA865ARFZICLznXPzrbVzarXacwAST18jkQ+2XC5PzrJsiohMUtWJqjoWQJ+IjAJQRuP5ZNG4TxIAqYhkAFI0nk9LnHNLRGSBc25OEATP9fb2Prtw4cLF/r4sGgblOI7Xz/N8sjFmYvNnZbQxZpSq9gEoAbDL/ay45s9Jhsbrar+qLgGwxBgzzzn3fBAEz9fr9WcB1Lx9VURUdLanp2dCmqbjVXVMEASjnXNjAIxpvgb1Nq/5VrwGXP51KMeL14AV51y/iCxcdg0YBMFcvhaNWOGoUaNGp2na65zrVdW4+T4WoHHP6UQkE5FEROpBEAyUy+WB+fPnDwBwfqN3PNPb2zsxSZIpzrlJxphJqjoOL16D9qDxvLaqGqJxDZotdw1aFZGlzrnFIrLIOfe8Meb5OI6f6+/vnw/OGRARUfGU4jiemuf5JFUdZ4wZt9z8Sy8a8y/L7qsDNK5HBI15zWXXtAlevKYdEJFFzbmY+caYF5IkeRbAUk9fH3UOrlfRiCBr/ivUhWI03kyXfyPV5i+HxkR12vyVecpIq7deHMfj8zwf27xgmqyqU0RksqpOATBeRMY2L6J6RMSi0dEraP6+rLuXNH+5FX+pagJgoYjMUdW5IvK8qj6qqo8bY+alaToPwPPgz0g3KwNYL4qiMc659ZoFB+OMMRNEZCKACc0ChFHNSapRqhqjMeEc4sWi0rz5qy4iNQBVVe0HsFhEFgF4QVXnOufmiMg8Y8yiNE0XAJgHoNLeL7mlDIAJURSNd85NVNWJIrJscm+Sqk4SkXEAys3vWwmN12eLF1+LcwA1ERkAUFHVRQAWicjC5vfsORF5QUQWBEGwoF6vzwfARefiGx1F0WTn3CQRmaaqG4nIBqq6QfP/TxaRMhoLOcs/n4J1HNeh8d6eAKipalVEnmm+rj+U5/mDIvJMlmWzAcxex7G6ThAE+xpjfgWg13eWpkxE3pgkyS98BymgniiKZuR5Pk1EthSRbQHMVNWNm+9Xy15vI6z9/ZBDY7G0jsbz6TkADxljHszz/F5jzBNpmj4FviYX3fgwDKc752aIyDYAthSRzZqvxz148eckWocxUrz4c1IRkScBPKSq96vq/UEQzEqS5CmwAJNoJOgDMMlaO8kYs75zbuPmNeC05u9Tm689IV68/gux7teAisZrTAIgab4WPaeqT4jIfwA8oKqzm9eAT4PFHZ3IAJgahuEk59xEY8x0ABstd38xCcBYEVm2SWDZHNGyOSHgpfOCDo170UxV6yKyAMBcVX1WRJ4B8IRzbrYxZk6aps8BeKGtX21xhQBmWGunichmALYFsLmqbioi66FxDRqhcX2xtl33FS+9Bn1BRB4C8JBz7h5jzOPNa1A+Jp1D8GLR17K5euClz8d0uV98je4cfGyp25WjKJrunJsqIjMAbKWqm4nIRsvNbS67pw7RmhNnlr+mrQGYJyKzADwK4AHn3BNBEDyXJMlsAEtaMB4VSwhg7PLrVQDWE5GJzc1aE1R1PTQ2zPahsV5Vxov3VWHz8yxbr0pFpAqgisbGrUXN9aoFy9ZEnXMvGGMWGmOWrb2wyIwKiQU/3cegMYnUa63dqDlhPb05eTQZQG9zAqm03E6eZQU/DoA2u70s+1VX1SqApc0K2rnOubnGmDmqOqt5Y7/sBZHdYForQOOxHBPH8ZZ5nm8jIpujMWkzSUQmABjX/DvttlhV56jqc8aYhwD8A8AdaZo+A2ARWBXbScpo3HxOiqJos+ak80xVnSEiE1R1bHNiaiwak1PtsFhV5zeLzZ5vTkLfk6bpvwE8h8bFepFugpe97o6Nomhr59yOALYWkanN5+pEABMxvMdo9gOYD2Be83v2GBrfs3+iMWm/GCzO8yEAMAqNyfedAbxcVWeKyGQAUwBMxos3GkVRU9VZAJ4SkftF5LYkSW5H4+er6jmbVyz4KbQeANPCMNxDVfdoFm5sBGCqx0zzATyhqg+IyB/TNL0NwDNgRwXfxlhrNwewF4DdAGwmIhsCWM9jptkAngDwTxH5Q5Ikd6BR9Fykax0iGhqDxjXgxDAMd0LjGnBzEZmybKMO2ndvNVipqj7dLEp8EMBf0zT9G4A56OxNGN2oBGC0tXYzADsD2F5ENlbV9UVkCoAxbcwyX1WfATBLRO52zt2a5/m/0LgOGgnvYxGAqVEU7aqqewHYvrmZYzr8zbkvVdUnADwM4FYRublZANTvKQ81fk760Ni8uXme5xs3i/E2ADCuOU/fs1zX3hWLQvLl5+qbC9wVAEtEZH5zQXKuMea5er0+C43n37K/k7f1Kx15YjTmB8ZGUbS5c275x3bsOjy2i0Vkgaou2xj5XL1efwrAAvCxJb/WC8NwY1XdE8AuIrIpgA0BTPOca0VzATylqo8D+CeAP2dZ9hAa61Yj4fqk08VozPONC4JgUxHZVEQ2aW7im6iq45Zbr2rXHO0SvHTt5VEA9wD4V5qmy4rLuPZCXrHgpwuUy+X1kyTZSUS2BrAdgO2ab7Y9GN4FZofGwuAzzcXlh5sdYP6T5/mDaCwy0xDEcbyJqm7nnNsawMvQeCw3QaMoo+hyVX0SwF9E5M8A/pam6X2eM9FLlcMwnCkimzvnNm2+TmwBYDMAk1D8Yx4zVX0MwB0AbgdwZ5Zld6JxY9xuk4Mg2DEIgh2cc8ted2eieM9Vp6rPArjdGHNnnud35Hn+d3CybziNC4Jg1yAIdnbObQ9gBxHZGMV/fq3OEgB3qOotqvrnPM//hhFYtMCCn8KxQRDsFQTB3qq6P4BdULzX4OVVAfxFVX8jIjelaXq370AjyLgoivZT1b1V9UAR2RLDe4+0ruap6u9F5Hdpmt6MRqEYERXfqCAIdhGRnQDsAGDH5v3BunQI862CxiLJbc1Cjj+D9xFexHG8sXNuFwDbo1FAtpOIjEcx53XnqOrNInJjmqa/A/Cs70CtZq3dxRizj6ruB2BPAKN9Z1qNFMA/VfUGADdlWfZXcJPecJMwDLcFsL1zbmsR2R6NTWHTMPwbfnI0NtE9BeAREXkEjfn6/2RZ9iDY7WJdmVU8tuujDY9ts+v38o/tI6r6UPOxZccJGhZxHG/inNurWdi6Z7ODXZHvp1dGm5sb/wLgNhH5M9etCiOIomhTAJs116tmotEdcfNm8WTRNsquKF+29gLgLlX9Z57n/0CjuIyorYp4Y0hrNra5k2d/ETkQjcX6KSjORFK12VJ2lnPuVgB/jKLowWq1yuNBXiqOomgjNFod7gNgdwAboNEJpOhvZIMxD8BjIvJb59wNWZbdhxHeHaKdRo0aNb5Wq00Rkc3yPH+5MWbHZmeRsQDGo/MuzFdmsao+KSJ/UNXrsiy7B8N0MVUul6clSbKFiOwpIns125MWcWfumlRVdTaAv6rqVVEU/bNarXIhcd30hGG4maruJiIHq+r2zcmeTvvZGKyB5vPuBlW9OsuyewEM+A7VDiz4KQQJw3BbVX0tgKNEZAsU5/EYihcA3AngR2EY3lKpVJ73HagL9QVBsIsx5lhVPbhZeNlx1z6q+jSA3wH4SbPIuWO7bIRhuIOqHg4/hdpDYQAszrLsR+iee5fJ1trXo1EUWaQdrYGIPJWm6S9Q/J+LlYnCMNwMjd3Nhzjndm5eA3bi+9Jg1FR1loj8wTn3izzP/w1OZA+bUqk0PU3TmQD2McbsB2AmGp0LO2oet/kzcx2Ai9I0/ZfvPOsijuOZeZ4fIiLHo3FU11jfmdbCEgD3qupPgiD4Xb1ef9J3oG5RKpVmOOe2U9VDmx1Hl83vFsWiZifte5sFeX9N0/RR8PjhNSqVShs2H9tXqeruzcd2gu9cy1nUXIe5V1VvEpG/NR9bFnfRWmsW+ewD4Hg0Ggys7zlSq80D8B9VvcoY87skSf6DYt0ndavRURRNyfN8IxHZWUR2VtUtm0Xs41Cc9e11UVPVZ4wxt6vqtcaY23m9Re3SUTeKI1xkrd1FRI5CY/fIzlj3c9zbptmV4+8i8ps0TX+PxpvqSNQbBMEuAA4SkV1EZGc03sy6XQLgz6p6QxAE19Tr9cd9B+oyFsCYIAh2FJFXoHlOfPMIOB9HvvmgAG5X1euzLLsMjaMx1oWN43iGc+6AZkHers0dDF1FVR8WkRtV9WdZlv0dbAk8WDYMw61U9QgROQCNY2Fi36E8yNAoHrsmy7KfA+jqogUW/HgVB0FwmIi8SUQORuOYlK6gqvcDuKxZXNB1O+A9mGStPV5EjkXj2K5uoQBuAXBBmqZXoTO7rE0Pw/AmNDarFJ6qfjTLsnN852iFMAy/B+CtvnOshAJ4U5qmP/MdZAiCKIo2cc69Fo17+j0wcu63VvQPVb3OWntprVZ7yneYLmDjOJ6R5/mhAPYDsHOzWLVbLFXVnwdB8OV6vf6o7zBDEARBsJeInADgsOamn66gqrNU9RdBEJyfJMnDvvN0qHFhGB7aLGjeXUQ28h1oCFIAdznn/iIiv8yy7HYAdd+hCmR8GIavUtXDRWQ3NI4s6hQJgDuXe2zvaH6sk8hyv4rQkUzQKAYpQpbhFAVBsL+IvAmNRgPdVuSzKotU9U8icnmaptdjhGxqbAMDoM9auzWAV6JxBO3maJw2Md5rsjZqbuL6o6r+Is/zm9A9m4qogFjwU3DNHSSvEZHXo9G6t9MXFBWNBcFfOueuzfP8VnT5i9yYMWPG9vf372GMOUhVXyUiG6I7qlXX1mIR+XWe55fkeX4zOnM3p3dxHG+aZdnWIrKTiOyJxuvDGIzsn61lFgD4ORq7CO8ayj9sdo7YT0SOQON4mCK35m6lOoA/Oed+mOf5r9GZC4nDLo7jjfM8P1xEjkHj56PHd6YCeRbAZQB+kqbpPb7DDAcW/HjRF4bh6wC8A8DL0UHF7mthtqr+IAzDi6rVKgt/hiiO443yPH+ziJyGzpqQHyoFcFee599wzl2JDpu8D4Jgf2PM9eiM989+Y8xr6vX6n3wHWRdRFB2jqj9FAecRnHOfy/P8475zDEZPT8/UNE0PBXAcGhuwRmqRz8rMB/ALVb24uWBMg2ettbsA2ENEDkPjWqdrippX4WkAH0/T9DIUey7IBkFwiDHm7QAORHfPsywE8FMR+TYLfwZFrLV7quoxxpgj0ejU3unrK3VVfRDA5c2NuiP16GGx1u4lIscBeB0aHU264bG9H43H9redMlcThuF2AD6FxvVrEYpsLIBL0zT9qe8gw2H06NHjqtXqkQBOReNapBtOnlgbTlUfAPAja+0varXaLN+BOk25XF4/SZJtRGR7EdkdwK5oFPd0axf8ochU9R4AF4VheC1PXKDh0OkXLV0rDMOdAJyhqoeJyHTfeYZJhsY50peGYXh1lx35VbbWvkxE3qiqB4jIVujAYwSGWQLgHwAuTNP0V2hMFNLKBQAmB0GwtTFmfwC7q+omXfza0CoLAFwhIuc2W3OuVKlU2jDP84MAHKOqO3TTrr21oM65vwRB8M0kSa4Hd3gBQGyt3UFETgLwKnT3QnIrzAVwDYDvpGl6r+8wrcSCn7Yqh2F4JID3oFFcN2Ko6n8AfDPLsh+jg49vaqOJURS9zTl3coftql5Xqqo3q+qX8jy/0XeYobDWflREPosOmItQ1X9FUXRYpx67F8fxRs65mwBs4jvLSvw6TdNjUezNPzYMw60BvKXZ1bEjulN5tEhVbwBwXrNzKK1cHEXRpgBe3TyidDuMnE0my8wJw3DHSqXynO8gKxE0i1Pfj0anJes7ULs0j584P0mS74DzcyvTF0XRoap6JhodfotyT9hSqjoPwG2qelGe57dhZBwLNSoMw8MAnI7GY9sJhelDpqpzAdzafGz/DGCp70yrEgTBAcaY36NYaylfTNP0w75DtNhYa+2bAZwmIi/zHaZIVPVxY8yPgyC4qMvWLFttkrV2Y2PMfqq6j6rObDY7GKlFY4Oiqo8aYy5KkuQiAHN856HuUfhJtpEmDMMdVfWsZkefrrx5WIWnAVwqIj9a3cJ8BxgVhuGxAF4PYH909070llHVewF8N8uynwLo952nIEwYhi9rHie1OxrtgTfwHapDzVHVL2dZ9j28uKgQxHF8QJ7nx4vIa1Css9WL4npV/dwI3qkrURS9VlXPAHAI+Ho+VIsB/DAIgm/VarWnfYdpBRb8tIe1dh8R+TAaz7uR7KbmkUL/8B2koGwYhm9R1fc3C+tHqgTAD9M0/TyAIi6crkyPtfZKEXmV7yCDoao/zLLsDN851oKx1v5URN7gO8hKPJam6YEAnvQdZFWCIDhQRM4QkVcDKPvO02GqAC4RkW90+NxOS/X09ExNkuR1InI4GnNFI/nnaq61dqei7Wxuzr98UESOxwi+91PVfxpjPp4kyQ2+sxSEiaLoaFU9C8A+vsO02V/Q6Jx9BbpzrjZozuG/Hd11FPBg3IbGY/sLFPD4oiAI9jPG3IBidQU5J03Tj/oO0SImDMPjmvfSO/kOU3BPqOo3syy7AAV8rvgQx/FM59y+qroHgN1EZAvfmTqVqj4sIl9L0/TH4KZragEW/BTHtDAM3wngTADrec7i0wtotJI9P0mSB32HGYIp1to3ADh9hC86rBNV/aeIfCNN01+iwDsNhtE4a+12InIAgMMAbIqR/XrQar9X1XOaF6KnoHEMWpFuHotosYh8NUmSb2Fk7OwCAAmC4KDmrs690d3t29vhSVX9YpZll6DYu/jXiAU/w25KGIbvBfA2FOd77NsiEflKkiTngt1+/isMwx1U9TPNRdMi7fr0RlUfNMZ8KEmS63xnGYwoirZU1ZvQOCqh6LI8z09xzv3Ed5ChCMPwFAA/RPGeI/3GmGPq9frvfAdZGWvt7gDeLyKHYGQXZLTCnGan1e+hUQg+EpWstbs0N/QdAWCa70AFMcdau3OBCn5GR1F0uqp+AMAk32EKooZGN+5PoTFPOyJZa3cTkY8BOBgjqNvTilT1HhH5dpqmV6NLuj9Za/dsPrYHYmQX+N0tIt9K0/QaNI73KwQW/AyfMAx3BPAZAIdiBL+urYU7RORTI7QYtmyt3RbA3s3NENsCmOA5U7e5UVU/wS6ptK5Y8OPfsoraT7Ea8kWqOkdELknT9Dw0uv8UVWytPQnAu0Rka99husifReScJEl+i2Kc1TucRllrdxKRo1R1LxHZHsWbmO8mGXhDM2SqeqMx5j1JkjzgO8twiqJoS+fcR0XkWDTOCqfW+S2Aj6VpepfvIGuLBT/DJ4qiVznnvsg20iunqtcZY96XJMkjvrN4Flpr3wXggyLCznz/q+qc+3qe559HBxRYGmPeFATBReiAwlpVfc4Yc0CnbEhpFlTdDGCq7ywrUtUPZln2Zd85VlQqlabnef5BACcAGOU7T5f5q3PuY3me/9F3kDaaYK09plnoszt4rMGKClPwE4bhzgC+jEbXJfpf/1DVs7Ms+5vvIG02LgiCDzc7vY20I/dWSVX/JSLfTNP0cjSKwjrRhDAMP6Kqp4kI3+9fdBeAc9M0vRIFeGwLWvDzhTRNP+I7xDooWWvPBnA276XXWg3Aj9I0/RwA79cww6wchuEWAI5C4xppR3TpcYcFsqi5YfYbaHRyJhoyFvz4tb619jMicqrvIEWlqrMAnNtsm1e0ji/TwjC8CI2dHtR6qar+KMuyT6MLL6LCMNxZRA53zh3ZXOBkkQ8Vmqo+qapvy/P8t76zDANjrT0dwCdFpHCLY91CVV8A8Kksy74PIPedZ6hY8DMsytbaD4jIh1CsybzCUdVHAJyWZdmtvrP4EMfxxnmef01EjvSdpQPckKbpmQBm+w6yJmEYfg/AW33nGKTfpml6FIpfTFW21l7R3H1ZKKp6eZZlJ6EAC0nLa27AOkdENvWdpYsNiMgXkyT5Gor/HFprcRzPVNU3OedOEJFNfOcpsEIU/IRheLqqfk5E2NVnNVT1BRF5d5qml/nO0g7NQoMvAdjFd5YC+6Nz7pw8z//gO8hQBEFwgIh8mUcYrdYfmo+t1yJdFvy0VnMzwLngsektoar3q+rZeZ7f6DtLq8VxPDPP88NF5HUA9gCL1ttOVa/Jsuxd6ID5HCoeLjB7Yq3d01r7axb7rJ6IzBCRr4dheGMYhtv5zrO8IAi2AIt9hlMoIqdba38bBEFXfJ/7+vomhmF4vLX2N2gcL/VpEdkBfC2mDiAiGxljfhaG4Ym+s7RST0/P1CiKfiwi32Wxz/ASkQki8i1r7SW9vb2Tfechv0ql0vQwDH8mIp9CsSbyCklENhORa8MwPMF3lnYLguCAPM9vYLHPoB0WhuG1zXbthdY8KqRTOr8dEkXRe32HWBNr7ZkicpjvHCtS1XuzLHsvilXsMyYMw28BuITFPsOuV1U/G4bhlXEcz/QdptXCMNwmDMNznXO3NLt3s9in2EaHYfhdAN9jsc+aicgEABdaaz+M7l74C621/2eMuRYs9lmT/Ywx14Zh+AN0RgftyFr7AWPMtSz2WaMDjTHXhWH4HYzgo85WoSMbJwRBcLSq/hYs9mkZEdnGGHO1tfaj6I7u8H1BEBxkrb3MOXeLiJwLYF9093t+YYnIkc35HL5f0ZBxkdmDMAxPEpFrmgv9NDivAPBy3yFW4HwHGAlEZFtjzFXW2nf4zrK2yuXyBtbaD9dqtT8A+LmIHApgnO9cRGthPQDfC8PwZN9BWiEMwx3SNL1OVd8MXhO1ixGRN9br9d9Ya4v2vk5tYq3dJcuyXwM4wneWDjMWwA+ste/0HaRdwjA82RjzCxHZ0neWDrOzql5jrd3Dd5A1mKOq/6eq/b6DDIKo6oeCICjssS9hGO4kIh9Hwa5pVHU+gLejQF1b4zjeNAzDKwG8E90xUd8pDsvz/DdFfh4NRRRFmzWLxm4B8G4A63uORGsQx/HG1torAbwNXMweipKInBOG4RfRnQuAY6213xORrwHgEV6D0wvgJBSn++2qjLfWni8iXwLQ5ztMh+gDcDKAsu8gtE6kWcR4CYANfYfpQn0i8jlr7fmjR4/u1DWeMWEYnh6G4Q3GmN+LyBvAa9mi2BnAVdbaV/oOQp2lUBNBI4CJoujDAM4HMMF3mA7Uccd/UMv0ici3Om1yIY7jTYIg+GyWZf8QkXOaR3cRdboygPOiKDrad5B1Ya3dXVWvQvGKSUcEEdkRwLVRFL3GdxZqr2bXvqtFpFCdGztISUS+FkXR+9GhuwwHyVhrPwLgAjQKnWiIRGRDAD+P47jQC+vNY+o+B0B9ZxmEXhH5BoAidoToA/B1FHNTwSezLPuz7xDLRFG0VZ7nVwI40HeWkUhEZhpjrurwrqGTrbWfVNU/o1E0Nt53IFqzMAxfluf5NSJykO8sHez/wjA8F11UCFAul9e31l7GDvxrpe47wOo0N1/+TEQ6+f3Gl0I/tp500r13HIbhV5tFjD2+w3QzETmhWq1eGcfxRr6zDMEka+07rLV/RWOdei/fgWilNgJwhbV2V99BqHOw4Kd9wjAMv6Sqn0MHFSwQFYgA+GAYhl8GEPkOMwjWOfclY8zHwOpo6j69qvpta+0rfAdZG9ba3UTkcrbb90tEpqnqT7ulYxStWRRFxxhjfiYiG/jO0uFCVf28tfZdvoMMkzAMw3NE5DPg/eo6EZENnHM/ttbu7jvL6mRZ9k0A1/vOMRgi8jJr7Tko2M9mGIbvA7CP7xwrUtWLsiz7vu8cy9nSOXcluy17tx6A7zeLVwv1XFoDE0XRsdbaG5tHkhax+I9Wovk+eKWIbO87Sxd4exiGX0BnHOW0WlEUbZZl2dXNLtzURaIo2jLLMhb40UjU2+w++H++g4wg+znnrgzDcBvfQQYjDMOzROQ8EdnadxZaPRGZDuDHURRt5TsLdYZOurHuZNK8GXof+D0nWlfvCcPwM75DDIKgmDtsiVplCoDvofM61m0qIj8GwIKDYhgN4HvW2rf6DkLDK4qiY1T1QvC9sVVCEflCGIYn+A7SYrbZ0fGD4FEbrbIBgJ+EYbit7yCrUTPGvBfA076DDIaInBSG4Vt851jGWrsPgLN951iJf2RZ9gEUp1Pv5DAMf8zJ7cIoqeqXoij6mO8ggzQpDMPvqurP2aWws1hrXykilwPYzHeWLvLuKIo+6jvEOtpIVX8GoCM3MdFqbeKc+xnYzZlaqxM6/JSstd8EcIbvICPQzqp6BYBOKMzgnFwHEZEtVfW74JGjNAgsPhl+QRAEnwGraola6X0dsqu9KJPbRMNCRHZsFuB1yvXEaGvtD8DJ3qKJReTrYRie7jsIDY8oil6jqj8Ab1BbrQzgW3EcH+A7SIsEYRh+CsUsXOhozY52F6NRrFtI9Xr9UQDvB5D5zjIIAYAvFKSIaqyIfBXFe32dB+AsAPN9B2kKrbVfB8CW6MUiqvrJ5hGORb6fmBCG4WUAzkSxc9IKwjDcCcAl4GaPllPVj4dheJrvHGtp/TAMLwWws+8g1HLTwzC8jJ38aASyzS65PJ7QExHZ2lp7GYCZvrOsAderOs++YRh+DrwPoTXgD8gws9a+zRjzYXRGFTBRpwhE5PNBEHTLAhdRJzslCIKOaIEdhuH7RISvG8VUBnBuEARH+w5CrWWt3VtVLwZ3EQ2XMc6586Mo2sJ3kHUVRdH/AeB90/B5eRiG5wGIfQdZlTRNL0eje2AnmKqqXwPQ4zNEGIafQPF2sOcA3pem6V2+gyxjrT1VRN7oOwetlBGRT1trz/QdZFXCMFwfwI6+c9DQxHE8U1V/KiLc7DE8AgBfDYJgX99Bhmi9MAzPB1Do405prYxtPrbs2kQjThRF7wM3zngnIjuEYXhRT09PYTfaUMc6MwiCI3yHoGJjwc8wiqLocBE5B2xHTzQc+kTk2wCm+g5CNMLFxphPA+j1HWR1rLW7AHin7xy0Wj0i8m1rLSfousdmAC4CMN53kC63iap+G0Cf7yBrKwzDN6jq58H70+F2TBRFH/IdYnXiOP4MgNt95xgMETnYWvs+X+NHUfRqAG/3Nf5qfDtN05/4DrFMHMebAvi47xy0WlZEvhhF0WG+g6yCQ2d0H6MXjXPOXSwinXC0RicbIyI/ADDdd5BBMs0d8of7DkItFzSPBe6IzWjUkQq7KSWKoqNV9VO+c9B/7ZUkybkAIt9BqKtEIvI5ABN8B6Hi4oTq8NnCOfddAKN8ByHqViKyZRiGHwVfy4h8e7m19iTfIVZDAHwAwHqec9AaiMgUABcAmOY7C62zCWEY/khENvUdZIQ4MAzDD/oOsTastXsB+BaA0HeWkUBVPxgEwcG+c6xKf3//C6p6NoDFvrMMhoh8IAiCAz0Mvb5z7kso3kTyH9M0/TgA9R1kGefce0Rkfd85aI1GO+fOD8NwG99BqOPFURSdB2BP30FGAhHZPIqir6ADruOstWcAeJvvHNR61tq3A+AR4TTihGH4MlX9OgrcxXUkEpHjgyD4GLhmRS0kIlsHQfAu3zmouPiCMzx6rLVfFZEZvoMQjQCnxHG8n+8QRIS39/X1FbLKvFQq7S4ir/adgwZHRLa11n4FnLDoZIG19gtgq/x2e1+RCzlWpqenZyqA74C7lNqpLCJfLZfLhS2AyLLsryLyGd85Bqk3CIJzmz/L7WKstZ8Rka3bOOYaqeosEXkHgKW+syzTPO7weN85aHBEZBqAbwIY4zsLdS5r7XtU9Q2+c4wkqnq8tfY03zlWJwzDnUWE3SS7kLX2Fc3rxsJ2YKGuUMSfr7KqfhUA1yALyBjz/mZHVqKWMcacFUURj6ulleJF7jCw1p7JhUWitik75z6EDthNRNTNRGTrer1exLNkTZ7nJwAo+Q5Cgycib7DWcodeh7LWniYip/rOMQKVROQL6JxuZlGWZV8Xke18BxlpRGS7LMsK3REqSZLzVPVq3zkGQ1W3SZLkc2jT/EoYhseLyEntGGsIElX9vyRJHvAdZHnOuWMBTPSdg4bkgCAIPuA7BHWmOI4PEpFPoJgLs93uEwVegOoF8FUA43wHoZYbJSJfRefc/xC1jLX2/0TkIN85aJVKzrmvlUqlTjn2kjrDOFV9O3itSyvBgp8Wi+N4UxF5v+8cRCPMAVEUvc53CCLC6QCs7xDLK5fLUwAc4jsHDZ2IfCQMw21956ChCcNwBxH5NHjz6YWI7BSG4dm+cwyGtfZUVX297xwj2OmejqIarDTLsg+q6qO+gwyGiJwYhuEJwz1OFEWbqernAQTDPdZQOOe+nOf5Vb5zrKAXwNG+Q9DQGWPeWSqV9vadgzrOtDzPvwagx3eQkUhEpjjnPo0Cbsaz1p4IYB/fOaj1rLWnANjDdw4aEQo1vxGG4U4i8j7fOWj1RGRmlmXnoGBz5dTxjo/jeGPfIah4WPDTWkGe5x8E0M523kQEiKqeDnbwIPJt+ziO9/UdYnl5nm8PYEPfOWitTAXwGfDGuJOUAXwFwGTfQUa4d4dhuL3vEGuwlYh8yneIEa5sjPkkgFG+g6zGo6r6QQCZ7yCDEAD44jAXqgbOuXNEpFCTe6r66zzPv+g7x4rCMNxCRF7mOwetlVF5nn8BQJ/vINQ5wjD8KLsG+iUirw+C4HDfOVawfnNjbqEW66klZjQLHvjY0khjAXwa7GzVEUTkTVEUvdZ3DuoqU1WVG1vof7Dgp4WaO5rf7DsH0Qi1r7V2V98hiEa4knPuNSjQhIuq7u87A62TI8Iw5E1Mh7DWvg1AkTuGjBRjVPVDKG6xXGit/RKASb6DEPYIw/B43yFWJ8/zqwGc5zvHIE0G8A0MU3eJ5nGJRXtPfCwIgvcAGPAdZEWqui8459XJdrfWnuY7BHWGIAheA+Bk3zkIYoz5MApUTBwEwdsAbOQ7B7WcBEFwFoANfAehEaMw85zNObJX+c5BgybNDnic/6CWcc69EUDsOwcVCyc/WkhV34bGzmYiar8QAAvuiDxT1cMAjPWdYzk7+Q5A68QAeD+Acb6D0OpFUbSZiLzXdw5qEJGjgiDYz3eOlQnD8PUi8hrfOQhAo0vm+wBM9B1kddI0/TSAv/rOMUgHhmH4gVZ/0jAMtwPwWRRosQHAEmPMWfV6vajHru3gOwCts3eVSqUZvkNQsY0ePXpcs2sgOz4Xwy7W2jf5DgEA5XJ5fWPMib5zUOuVSqXpxhjOAdNINAqNObJCHe9Lqyci21prT/Wdg7qHiGwZBMFevnNQsbDgp0WiKNoKAFuzEXkkIoeA1dJEXonIzCAIdvCdo2m0qvKYzc63s7X2Db5D0Oo55z4CYH3fOei/omaL+9B3kBVMVtWP+g5BLxKRLay1Re+KsFhVzwawwHeQQXp/EAQHtfDz9QL4iogUqjBLVb9Qr9d/5zvHKoQiwkKRDiciG+d5fqbvHFRslUrlrSLCTR7FIQDORgGOmknT9PUApvvOQa2XZdkbwXtPGoGaBZU7+85Ba+UdLGSnFioBOMR3CCqWorZ570SvLtoE3CApGhOnS1V1QESqqroEQA1AisaNWigivao6CkAsIr1oVBOPAauJqVimhWG4f5qmP/cdhGgkM8YcnOf5zb5zxHE8Ps/zXt85qCXeCeBSAIs856CVCIJgPxE5zneOtbBIVeeIyPOq+kTz9wE0roNDESkDGKuq00VkGhpFxZPQITvIRWTvOI4PqNfrv/WdZZkgCN4uIlv4zrEW5qjqXADPiMgTAOaragWN+6WSiJRVdRIai0rTRGQCGsc7Fakby+qcDuBHAOZ6zrFKWZbdbq39lIh8E8X/vvaIyNcBHAbg6XX9ZNbaswC0soBonYnIFWmaft13jtUYo6rriRT9R4UG4XQA5wN4yncQKp4oijZzzr3Nd4610L/cNehTIvKMqvYDqAAImtego1V1AxGZrqqTRGQSgD6/sQdHRDa31p6QZdm3PMYoiUihjy1djRoa9yn9ACoiMqCqSwEkADI01nMiERmlqj0AyiLSh8ZcfWGOUxtGPQA68d4TePGxXYrGY1tZw2Pbs9w6zEh4bIusCBeV4wCc4TsErR0RWT/P83cC+AAaa7JE60REDkDj2rDfdxYqBhb8tEakqsf4DjEEiwH8WUT+BuAhVX3CWvt8tVqdh8ak9eqUyuXyhCzLJovIdOfcRgBeBuDlzcn7aHijE61WAGBvAJeDF05EPr0SjfeDxGcI59zo5mQpdTgR2cxa+4Ysy77nOwv9j5Ix5r1oTLx2gn5VvQnAbwDcnWXZ/QCWDuYflkql6WmabhUEwa6qeiiAV6DY91Ol5iLYjQBy32HiON7YOXe67xyDpapPi8hvANwsIvemafofDO77aKMo2gzAVqq6l6oeJiKbD2/adSMiM621b8yy7FzfWVYny7LvWmv37IQCw2bb9s9mWXYy1uG+xFq7q4h8BAXqzqyq91trz4bn67zVKZVKPVmWdcTCOK3RxDAMz0jTlN3h6H+o6ltFZAPfOQapDuCvIvJr59ydzWvQFwb5bydba7cwxuykqgcD2AfFv/Y+bfTo0T9dsmSJl+581tpdAWznY+y1oKr6BIBbANyhqo8FQfB0mqZzMLjuhutFUTTROTdFRGao6kw0jjZ/uYhMQYGuIVohjuPdnXNb+c4xSKqqjwP4E4A7VfXxIAhmNR/bhYP49y95bJ1zmzU7mr1cRCajyx5bWr0wDA9F5x9ZmwGYD+BJVZ0tIs8AWCwiVedcFYBDo4ixDKBPVddvvq5t2PyZL1oH46E6MY7j79Tr9Sd9B6HOJyIvC8Nw0zRN7/adhYqhyBPUHcNauxOAHX3nGIQ7VfWyLMuuBvAslivuSdM11fn8V61arc4GMBvAXct9vC8Mw41U9WAROVBVdxOR9VoVnIbEobEYkaNRAGNRjCr0tlDVfQGMRqOwjYg8UNWNAWwA4HHPOSIR6eZrnQyN13yHxut9p9/4ro5BY4f3pQCWeM5Cy4miaD9VPcx3jjVR1WdE5OcicmGapo+g8fwZklqt9jSAp/M8/z2Ar1lrdwFwmogchcaRO0V0qLV2lyzL/u45hzjnzgJQ+GMWVfXfAC7KsuxyrF3HmyxJkgcBPAjgagCfCcPwVWi8hu3bqpzD4EQAF6PY19B5EAQfyvN8h6IXUQGAiLwlDMPb0jS9cC0/xWgR+QYanXWLYjGAt1Wr1Wd9B1kdVQ3R3ddFI+kaEKr6RgDfQ2MeiggAEEXRVqp6iu8ca6KqiwBcA+D8LMv+jUaHj6Gak2XZHAC3AvhuGIZbAThFVV/f7PxTOCKyXbVafRUa928+xj8UQNE3/1QB/EZEfpym6S1Y7hosz4dUq78oSZJFAB5Z7mMhgFFBEOxojHkVGpsjX44umB92zh2K4ndcrajqr40xl6Rpehta/9iObj62h6Hx2PKIp+Hn+7ljAby1ADmGrFn09o/mr79nWfYIGu+FyzpbrY4BEAOIm2uPu6Gx8eqVHdo5eKJz7hQAn/AdhLpCoKp7AmDBDwFgwU9LGGMOak4oFdU8EflckiQ/weCqx9dGf5qm9wG4D8C5YRhuKyKvVdU3A+jEN9+iWozGzvS5AB4RkdnN1r/PO+cWisiyowVyNCb/DBrP80BVe4wxE0RkgqpOB7CZqm7SPIpuPXRJdyYR2TwMwxlpmt7rO0sHywAsVtWlzZ+vJ0RkrojMd84NAKiLiFPVyBgTq+poNI44maKqGzd/pkajQ9pNt1AOYIGqLhaRJ1R1lojMEZEFzrm6iNRV1RpjYgBlVZ2gqlNEZANVnSEiowCMRRfs0BGRaXEcb1Kv170W/KDxvey0m2GHxvNviYjMUtXHl73ON5+DCwHURCTFi4s9isbXGjWvR8oisoGIbKSqGwLYRkTWR+Pnq2OP4hSRHaMo2i9Jkl/6zkL/Fajqe1Ds51mqqj81xnw5SZKHWvh5q1mW3QrgVmvtD0Xk4yjYkTtNkYicjMbkmrfuh83uPif5Gn+QXlDVr2VZ9kM0dh22ysI0TS8DcG0YhscD+BiATVr4+VtCRLaNouiAJEmu9p1lder1+hNBELxPRK5E8e9fDIBzwjC8I03Te4b6j8Mw/CCA3Vsfa605Vf1YlmW3+Q6yJqpq0JnX1IvQKGx+RlUfa14DPte8n1gAoCoiyxZHlr8GDJvXgCVjzDQAGzXvL7ZG46jBsejgoiAR2chae3iWZT/wnaXg6nhxAS1V1RSNe/elAAbQKC6oq2qCF+eNFI2fJUHjZ2nZr0BEYjReZyMAsar2otFVZtmminCFXzHad00oqvp2NOayCktVfw3gcy0uvE6aO7nfHYbhBar6IRF5PYr5mncqgJ+j/Z0mIwAHt3nMofqzc+4TeZ7/cZg+fwpgQZ7nN+V5fhOAMUEQ7CoibxKRVwMYP0zjDreyqh5Y8CM7/6Sqn2zeKw6HFMD8PM//kOf5HwCMXe6xPQyd+9jSasRxvKdzblffOYagAuBmAD+x1v6jVqut7dGsDo3rl2qapv8G8G8A3yuXy9OSJHl58+f+UHTQkXeq+vqenp7vViqV531n6VBL0FgfXSwiTzaPSJ3XnDOv4cV1q3i5davJeHHdagIa61ZF3bQ3JMaY3QF8x3cOKgYW/Ky70Dm3a1EvNFX1PhE5MUmSf7ZxWNec0LwHwHlhGB4F4GQAe7UxQ7d4HsCdAO4F8B9VfSDLskexloVbq9hFsFEURdsD2L5ZEboHit8aeHUCNCq9WfAzNAsA/B3AnSJyb5Ik96PRnaW+Fp9rUqlU2iLLsh3RaDN7AID1W5i1SHI0FlFvFZF/Avh3mqZPYOidI8oANg7DcAc0Wi/vgcbPcTHfXNYsyPN8CwB/8B2kg9yJxo7NfwK4N8uyh7F2uz9XRqIo2kxVd0Rj4fAwADNb9LnbSlVPAnAdeGxjIQRBsDeAPX3nWI3nAHwgy7KfDucgzcXvI8Mw/AiAD6J4hXWvAfBFAE/4CtDcxVbkyee/A3hHlmV3rfFvrr1KmqYXx3F8m3PuXACHD+NYa8Oq6slodCUqtDzPrzfGnAvgA76zDMIkAN8A8DoM8vhAAAiC4AAA7xqmTGtFVX/EgovWa87Z3ILGteA9zeMDB9b2863knn+jKIp2VNXdVPVVIrLtOsT1RkROAnAR1nwM/UgxH8BfAMwSkWebhWFznXMvZFm2EC8Wj63N/fyahGjMGY0Ow3C0qo42xoxV1fGqumyT2RQRWb95FMdGaCysLFPCut/nbgKgyMc7DojIZ9M0/TqG8We2udHtzXEc/8U5dw6K1REOAF5hrd1jGAsfVmUjAIU98klVL8iy7P1oPE/bZXGe5zcCuDGKoi1V9QRVfbOITG9jhlbYWES29B1iNb6fpukHMIRrvhZYmOf57wD8LoqirZd7bKe1MQMNL1HV49EorO0E1xljzqvX638AhnSyyKBVq9VnADwD4JfW2j2MMW9vfo+KNhfzP0RkZq1WOwjAT3xn6RBz0Thp5h4ADzfXRx8HMA9rNzc8JQiCLUVkJ2PMy1V1fzQKgjqSqm6GRvHSWt8/Uvdgwc86KpVK62dZVsgJE1V9VERen6bp/R5jLE7T9GIAvwiC4AAROUtE9kHxd2P68hyAhwDcpqo3h2H4SLVanY/hmaRZ5skkSZ4E8EsA5SiKNgBwhKoei0a71yLuElqTlwO4wHeIDvCsqv5VRK4NguC2Wq02F60pMJjb/Fy3AZCenp4paZruC+AENM6aL3pb5TVS1YdE5HoAl6Vp+jjW/YihKoAH0jR9AMBlAEZba7cSkder6pEisuG6Zm63Tl1MaLMXVPUaABdnWfYghm/CT5MkeRjAwwAu7+vr+1y1Wn2FiJwhIgeh+O2wl7dXGIbbsotbIYiInIqCFgmr6n8AnJhl2T/aNORAmqYftdY+KyJfQbHe66Zaa1+VZdl3PY2/gaoeX+ANEldmWfY2AC+0Y7x6vf4ogDdYa88TkRPbMeYQ7BuG4cvWphtNu6Vp+vkwDHdDZ2wq2T8IgvfneT7Y1u2TRORrKFa3zNuzLPsgWGzRKktU9deqemGe5/9CY/PFcFl2v38NgC8GQbCjiJwmIoejg3ZDA3hZEAR75Xl+s+8gRaCqt2VZdjwa3XzaLUWj+/TiNSzilQD0lEqlvizLporIVgB2ATDZGLNOua21b0KjoLKI5ovIqW3sSqr1ev27URQ9raoXo1gF1j0icjQac0Nt27ARhuFeKO49ykVZlr0dHt9Pm11PPwLgO1EUvdk5d1LBi2j+y1q7N4pb9HB+mqbvgt/H9gEAHwLw7SiKTnDOndgJx+B2CG83s+Vyef0sy17ja/wheArAZ9I0/SnaeH2SZdlfAPwtCIKrROQzIrJNu8ZeS2KMOcE5dxna3wGvEwwAuB/Abc6530RR9FBzfbRVm2Kfz/P8eQB/AmCaz68DALwFjbmFTlu3Xj+Kog2SJPmP7yDkXycu5BdKlmXri8gM3zlWIlHVsz0X+yyvP8/zX2ZZ9irn3BGq+iv4mZgoormqegWAE0XkgDRN90/T9JNZlt1SrVafxfAW+6yomiTJI0mSfDVN0/2cc8c459q9E6cVNkXndkYZbqqqd6vq2SJyQJZlx6ZpemmtVpuF1l04vWS8SqXyXJqmP0vT9DDn3OHNttad2p3jYVV9V5Zl+6Zp+oFmO9F1LfZZmSVZlv0jTdOzgyDYH8BnMLwLAcNha98BikxVfwngoCzLzsiy7G9o4+6+/v7+eXme/yrLstc6517dfE52ivGqWvT27CNCFEWbi8hrfedYGVV9wBjzujYW+/xXlmXfUdWPoGDvcyLyBni6NgrD8GARKWRXMRH5eZZlp6BNxT7LWdpc7LmyzeOuSR+Ao3yHGKQlAM5W1Tm+gwyGMeZ9QRAcMpi/G4bhJ0Vk++HONFiq+ryqnoX2P0+61S2qeniWZW9sHrPSzmv8BXme35Rl2RtU9WBV/RkaRyV0gh5jTCcsdrVLguLPqdUALKjVarOa97Y/StP0rDRNjxkYGJi3Dp93PQBvbE3ElptnjDnexxHESZJcLyKnAOhv99hrcCQaxwq20w5tHm9QVPXuLMs+gOIUzz6TJMmXoijaT1XfpaoP+g60JiKyo+8Mq3BXmqYfQnEe29lJkpwThuF+qnp2czMMrRtv6wxZlu0DoOgdm/4kIoemaXoR/FyfuDzPr46i6KDm9W2hicgeYRhu5ztHkajqE865L6jqIWma7pWm6fvyPL+p2c1pONasAMBVq9XZaZr+OE3TQ5vr1p22uWCKiHTryRo0RCz4WUfNKunCfR9V9YY8z4u4gJfnef7bLMuOcM4dAeBXKNiCSJv0q+r1AM4Mw3CHLMuOT9P0kiRJinRzVcnz/Jo8zw8GcKaqPuM70GCp6hQAE3znKKAagNOyLNsjy7Jzm7t62knzPP9jlmWvA3AGGkfWdYqFzrkvpWm6V5Zl5wFo2+JSvV5/PE3TTwLYH8Bv2zVuC2yIRrt3+l/nZVl2XLNgzKvmos/rVPVdaLRDLbzmLtHCt+ntdnmevwHF7AzwPICTPLzH/VfzfaJox95sb63dxcO4xjlXtC42y/yht7f3rWhvy/3lVcIwfJeq/svT+KtyGIp3JMhKpWl6F4BP+c4xSGUR+SbWMFkfRdHrAJzWlkSD45xzH86y7E7fQbqBql7e19d3RJZlf/adJcuyv2dZ9kYAJ6nqk77zDIaqHo5GsQd1/gantZ4HNMYcIiKbtjJMiwyIyFvr9fpNvgIkSXKdqn4KxZpnnR6GYTs3bFg0jnwrGhWRb6BxHF+hVCqV57MsO6+3t3d3VX23qhZl8/CKQgAb+w6xEg7A1wAs9B1kRdVq9dksy87t6enZvVn4U6R1BxokVT3ad4Y1uCaO4+N8zsEsU6lUnsuy7GQAX/adZQ3KzrkjfYcokM9mWbZrnucfaXZs8lE0ljXXrQ9X1XejczZeB865ohcEUpsUrlClAxWxEtOJyM9QrBu8Fbk8z3+bpunRxpjDVPX3KE4V/LBR1fudc58GsFuWZUelaXp+pVJ5zneuNainaXq+MeZgAL/3HWYwRGRCFEUs+Plf/c0j9nyf6ZmlaXqBqr4WjTNYC09V/5Tn+YfQODfWizRN707T9FgAX0VntPwcVSqVpvgOUTSq+vvmzq8i7cjNsiw7T1VfLSKdcFTWDmEY7uA7xAg3TkSO8B1iJRIA786y7A7POfI0TT+uqvd5zrG8Uap6WLsHtdbuZozxUWi0Wqr6iMj/t3ffYZIV5f7Av2+dqu6Z3QU2kDMIKCYURAmKFxAVA2JAhWsO915RrwoiKmYRFQNiwHx/5kRQVIKIZJQoAhIlChKXzbszfapOvb8/uvcyzJ3dnd3p7qrT8/08zz7w4Nrnu3t6uutUvfWWvHPhwoWLU+ZYsWLF/ar6AfRux9q62NVam+Mz7oRCCN9T1Z+mzjEZIvJ4a+3nsOqC6C1V9fPIq43412OMP0odYhCo6l9DCO9K/bkznvf+x8aYA9E+cidrIrJjo9HYK3UOSsoZY16NdlFHVkTkuLIsT0udo1N4flbqHGOp6ivQpzWIGTNmbKiqOR6J/i/v/W9Th1idxYsXLwohfLXZbO6vqkeq6j9SZxpreHh4I1XdKnWOCfzTe//71CFWZ8mSJQtCCF9pNBr7qeoHVPW21JlqKEmh7dDQ0DZoH4eZqz9479+8bNmynDYQtrz3HwLwWWS8PtpZa6vFRpteE5GfIp9usqMhhK+q6ivqUiQpIjkWOlMCLPiZuuza06vqwyKS0wLD6pStVuvszlFfrwZwYepAPRDRLpQ5LISwV1VVn/De/x1ASJxrrZRleaP3/lBV/UXqLJMwJ8bY75bBdSAAhlKHWCmEcKUx5lUAst8xLCLDqTN0LPPeH6Wqn0bGDy0djRDCZqlDZMar6pcBrEgdZCIhhCtE5OUAUhdLrMmwiLwwdYjprNls7ioiORYEfM97/6vUITrmG2M+iozGe8aYAwDM6Oc1ReRgALl8h65UGWM+XJblramDAO1OawC+nzrHGIWIvDh1iLUQQghHqWryHaWTISKHOufeNMH/5Ky1xwHYqc+RVud87/1HUZ8jn7IWY/wa8pnIfoyyLG/23r9aVf+QOsuaqCqP9ZrGms3m1iIyqeMR++ycsixPSB2iowRwjKrmVFz4TAB9KdQIIcwWkew2Hqnq5ejjMd5TsXz58gdDCF8OIeyjqh9W1XtSZwKAEMLcTO/tZUjXMXStdLo5fSGE8FxV/UiduvlPVzHG3XM9rkdV/14UxdsB5PR9s1L03n8MwHdSB1mNXa21O6YOkQNVbabOMF4I4UJjzCvrUPQTY8yxGJYSYMHP1OX4hftIo9FI1oViHcWqqn7jvT8QwOtRgwKASSgB/DbG+ELv/UHe+58DWJI61BQtCCG8VVVPTR1kDZrGmNmpQ9CatVqtu0TkdbntHJrARqkDjBVC+BSAE1PnWAOnquy09Vjzq6r6c+oQq9NqtW733r8294XTGONeyKsDwrTSaT2c1bFqqnpLZ7E8G2VZng0g2bEOE9jdOdfPIzDmqmo/j3CYFFX9WQ478MdQY8xXkLCL4AQOAJDdpNtq3G+MOQKZFtSOUwA41jm3y9j/aIw5TERelyjTRP4lIu9C/Z9fczHqnLsgdYg1eCCE8LoY46Wpg6zB7sjzSFHqg6qqXgpgZuoc4ywE8EEAI6mDrOS9/5uI/Dh1jpVEZJtGo/H0flxLVWcgw6P/ROQO5L9pa7wHQgifDSHsDeCzqpq0Q72qzgKwfsoMExGR21NnWAf3hRA+E0LYC8Dxqvpg6kA0MVV9DjKbe+lYCuCdo6OjWRQErkLodPq5IHWQVWgA+LfUIWjVyrK8qbNudV/qLGuwSeoAlAcW/ExNQ1Vz7CLily1b1kodYh2NeO9/4r0/QFXfASDrBcdV8AD+EGN8kff+5VVV/RFAXe/HRFaEEP4TwOWpg6yOqs5OnYEmpyzLW1T1vchogmw8Vd0Aidq3roJ2diqcnzrIajSMMfNSh8iJqs5HPb4P7gDwdgA5teR9DBHZvdlscgdDGrNVNbud1SLy5ZGRkdx2KI7GGE9EPscwun4e61UUxS4i8uR+XW+SHhSR45FZx5JWq3VbjPGHqXOMsaO1ti8Lc91SluXZMcZcuiusycYATkBnQbLRaDyhKIpPIZ+xZktE3luW5Y2pgwwKVV3YarXqUJA23xjzn6p6R+ogq/EEa+0TU4egJKyIvCR1iAl833t/TeoQ43nvT1LVR1LnWCnG2JfugTHGechwcVxVl6fOMAX3eO8/bIzZF8DX8Wg3j76OW1R1LjJcy6r5vf2n9/5oY8x+AL6JRwu9cxmT5iTF38mwqu6f4LprFGM8KYRwUeock7AQwJGdf2ZHRA4Ef96y5r3/a4zxSGTUvXu8Tvc7vo8ov0FSzcxBRsfjjFEAcKlDTNGiEMK3ms3mPqp6DNo7XrM7o3s8Vb0WwOu89wd22vNntZjQRY+o6vuQ8Y7PTIvxaBWqqjoTwP+kzrEaDeS3k3Cpqn4QQK6TC6Kq2e2+Sqw23wkhhEtU9VOpc6zGRqqa45FSA68oir1EJKtiKxG52nv/s9Q5JlJV1fkArk6dY4x/Q/8mAl6C/J43f9Y5Wjc7xpicuoGuj/bxG3WiVVUdh7yLocfatyiK9wMoYoyfA7B16kBjfKksy1NShxgwuRR+rpH3/gZjzNHItxPFTAC7pQ5BSewEYJc1/q7+us97/83UIVbhJgA5HdO3D/owh26M2bjX11gXqprj+sFaKcvyFu/9uwHsr6q/RHvxs29jfd7b3inL8kbv/eGqegCAU9G+t1w8Tu9xItLPDr2TdUdVVbl3nf9f3vu/ikiueXcGsE3qELR6McaTVfUXqXOsSmcdlJ/ZlN0EbN0MI8NdAwDWbzabA1HssGzZsodDCMeJyL7GmAtT51mNxQA+E0J4nvf+V8h3cqxrQgh/AfCt1DlWg4UGNVMUxfEAkrYIXg0LYFbqEOOFEK5A3oVS2f2d0eSFEH6AjBdOO62Nqf+eg7yOU4sxxu8BWJY6yCqMquqPkc/Y8PFDQ0P9KNhqGGP26cN11sZCAN9PHWJVvPfXqWpOuySfjTyfdVdnBYAjkO948jGMMYdba38qIn3pejBJZ3jvj00dgtIqy/I3IvLL1DlWY+/UAaj/nHPPAJDbkdGnoN0dNUuq+kNksiNdRDbvU/fAGX24xloTkc0wIItx3vurQwivU9WD0MdO3Z3j2rIjIpunztAtIYQrvPeHqurLUY/u1P3U959f59yeyPCYZRH5LmryvLWStfY7qvqP1DkmsGGj0Xha6hC0RpUx5rMAsumcOM4M1L8BCHUBC36moNFoNEQku0lQEdk0hDBQlaFlWd7YarVyOxN35UDvClV9mff+IwDmpwzUb0VRfD3XMyxFJLsBMa3e6OjoP2OM2ZwzP45Fu8gzR99X1Vxbk2Y5IUOTtqwoio8j34mevVIHmIZmdVq5Z0NV/xlCyHlREsaYPyKTI/JEZOsY45N6fR1r7VMB7NDr66wNVT3De5/zccGViJyaOsRKIvJsABukzrG2vPd/A/DR1DkmaY6IvAaZdLJV1duMMe9BxsfsUt8EAJ9AvpPaeyDPbtvUQ6r6wtQZxhkF8N3UIVanqqqrVPWG1Dk6ZqEPz28Zd1vZBXltmpiqEEK4GO2fg37J8t6KyC7IZCzXJb5zb8vUQaY7VX0mMisUVNX7y7LM6SjqSVmxYsX9yHPzj1PVXVOHoDUry/JGVf116hwTERG7/vrr53YyBSXAgp8pUNUG8vw7bIgId733mIgEVf1ps9l8cQgh5+5DPTM6OnqPiGR5hAZY1VpLInIyHj0PPBsiYhqNRpYFP97760Qk188g/hzW3Ojo6KUi8tvUOSaiqlsD2C51jumk0WhsDqAfO3MnTUR+g0zPY1+pLMtbAPwtdY6OIsbY86OaRGRXALN7fZ21EI0xpyDzY3WKojgP+byfNymK4qmpQ6wL7/2POl0NaPJGVPXdGW6yoUQ6310/SZ1jIiKysXOu58WrlJWZyK/Y/zzv/S2pQ6zBAhG5OHWIMZ6B3ncPzLUo5AnOuZ1T56i5LO8tgCc5556QOgQNnFki8vjUIcYTkVNQs+4+K1lrfwHgwdQ5xusUdg1SQegg+zHy3BQrVVVxDYayLFapk1xa8/8fIvI6AHNT5xhkIYSrQghvWbZs2bTq6jOeqv4W/d3RMVn8kquhEMK1AK5PnWMCRlVzfU8pgN+nDrEKg7TLabqKVVV9C8Dy1EHGE5F5RVFwYq2PVPVZyGsiolTV01KHmAxVPSN1hjH27PHri6ru0eNrrBVVva0syz+lzrEmo6OjD2R0rJcRkazu41rwIYQPisjfUwepiaiqn6yq6uzUQSg731fVLDrUjTMT7W4ZNE1Ya58mIhunzjFGBHAaAJ86yJqIyJnIZ/76aeh9QXguf9bxhgC8BZl166iZXO/tDABvTh2Ceq6vP7vNZnNjVd2+n9echJEY4+mpQ6yr0dHRe1T1d6lzTOApANZLHYLWLIRwHYAc5xgkxsg1GGLBz1SISIl8d4nuUBTFkalDDLgRsL0lQgh/A5BLi2CqPx9jvCB1iAkIer8TbZ15788FsCx1jglk+3dGk1dV1YWqemXqHBNoikhWRwYNOlV9buoMY6nqDSGEHB+2/w8RuRSZLAqJyFPmzJnTy6OahkVk7x6+/lpT1bOQ5/fkeCWAy1KHWMkYU+f24g+IyBGqWof7npSqnhpCODF1DsqP9/56AOemzjEBAfDE1CGof4wxeyCjI7ZV9WHvfa5ddh+jLMurVDWLjYoisqNzbrMeXybnYylfb619VuoQNZbzvX2TtfYZqUNQT/W14Keqqk1FpNefl2tFVf9RVdXlqXNMQVTV3yCz9TwR2cw5t03qHDQpiwDk+DMgqsqCH2LBz1SUZTmqqjF1jlUxxhxhjDk0dQ4aeEtVNcfFtlx3ftAaFEXx59QZauhhADelDkEDqxKRn6cOMREReRK4S7JfhkTkyalDjCUilyOf449Wy3v/T1XN5diHOUuXLu3ZUU3Oue0A5DRhVRVFcX7qEJOlqlcAWJE6BwDEGHcEMC91jnXVarX+COCLqXPkTFVvDCEcgTw7tlIGVPUXqTNMRFV3Ql5dB6l3TIzxaalDjCUiNwKoyxGIC0XkitQhOgq0j/XqGRHJuShkNoBvDg0NbZ06SE3lPFaZKyLfHB4e3iJ1EBoMIrIzMlu77WxiqvVmis6GxntT5xhHADw9dQiatBwLfogAZPalUUMtACF1iNUYKoriW865t4PHqlBv5TJ5MFa2xXi0emVZ3oQMjw/K3Iiq/i11CBpcxphzkOFZ1wCehHZ7dOqxRqOxNYAtU+cYQ0Uk+yOaxngE+bT+HQLQs4IfALsio0VYVb3XGPO31Dkmq6qqa1V1QeocACAi2/ZhJ35PhRC+AOCc1Dky9QiAdwDIbdKbMlJV1UWqemvqHBPYEb0/GojysEFn4TMbqvpH1GeTWegUyeditx6/fs5FIRCRp1VVdRq7way9zIu5AOAZIYTTnHNcuB9M/d5oll0nwxjjIBz/uwxAjpuBnpI6AE3a1ci7JoCmMRb8TM0SZNKafzXWB/Ada+2PnXNPSx2GBpOq/gP5TXbklocmbym48LC21BhzZ+oQNLharda9AC5OnWMCO4AFP31RVdXWADZJnWOMEWNMjkfNrUo0xtycOkSHiMgTevj6T0NGnbdE5M7R0dF7UudYC4+IyF2pQ3TMjjHmVOi3LlaIyHsB3J86SG5U9RMhhItS56DsLRKRM1OHGE9Etm42m+unzkG912w25wJ4fOocY1lr69aV+Cbksymup8VbxpgsiqbXYDcROcta+wEAc1KHqQsRqcO9fSaAs621RwLo5RHKNPh2Sh1gnCXOuWtTh+gGEcmx4Gf71AFocrz3D6B9tBdRdljwMzWjNRlsQkReC+Bc59w3WGlO3VZV1Z0AqtQ5xmHBT32Ngosya01VH0idgQZaUNU/I7/P1nkANk4dYjroFIjk1DHyhtHR0YdSh1hL1yGfzQI7AGj24HUNMluUQ3sHVi6LXJP119QBVsrtKL910eke+SHk8/OXnKr+Twjhm6lzUD2IyJ+R3/P+jKqqat2BjCYnhPA4ALNS51hJVf+lqnenzrE2VPV2ZHIMrqpuPmvWrI169fpVVc1HPcZ9G4rI5621F1tr3zU8PFz3AuueizHW5d5uLCJf7Nzbw3nMF62DQlW3Sx1inGtHR0cfSR2iS25EfgUbmwJYL3UImhSvqvelDkE0ERb8TF2dulDMA3A4gAsajcaviqI4CBk9NFOtLQaQW2vV3BalafJaqjo/dYi6EZGFyG8ingaIiFwAYEXqHOPYRqOxY+oQ04GI5NZS+q/IvGX/BG5CJplV9XEA5vbgpeep6lY9eN11VlVVjkfPrsn1qQOMsUvqAN3gvf+pqv4wdY5MXBlCOBocN9IklWV5RY6bC0QktwJT6oEMC09vabVaOR51vEre+7tUNYuFWhHZtNVqbd2r1zfGLEUmxU2TISJPEpGvee/Pc84d75zbBYBLnStHIrIE7fnnWhCRp4jIN7z3f3LOfc459xTktYGG1k4/O9huhPapHTm5Ee3jsGqv852YVeGuqm7cbDa5mbEeShF5OHUIoomw4Gfq6lTws9L6qnqIMebX1trLnHOfsNbuBb4f6qQJYAbaBVszkf5hUFWVBT/ULRUyWRCtk6qqRsEzZKmHvPd/R37jHokxsvVt74mqZrWoZoy5ATX7ri/L8k60jwROTkS2ajQaXW8z32g05gHYvNuvOwXRWptT8cykqOqtqTOsNEAL6mFoaOjDqjoQreinYD6Ad3T+STRZd4vI7alDTIBjwOmhl8eQros7kN+GtzVZKCK5dMacHWPctFcvXhTFslyKm9aGiOwI4CgAf3HOne6ce1uz2Xxc6lw5KYpiiarW4qSFsTpj6aMBXOac+41z7i3NZpPfX7RKzrlNRWRG6hxjiUg2z6ddsFBEsir4EZF5VVXxiMd6iKjfOJCmCVYVT5Gq3izSzwLfrjIi8iQATxKR9znnbhSRs2KMZ4YQsmn3Oo0MA5jTaDTWr6pqc2PMNiKypapuqqobisg8ALNU1aH9s2vwaHV5EJGAdqFES1UfFpH7VfUBEXkgxnh3URT/LMtyMXrTjafqwWtOVa0WAekxFCz4WRcttAt+enFECxHQblv6t9wWf0WELbJ7rykiO6QOMUYVY1yC9s63Og3EC7SPrMzhPTskIpsDuLmbLxpj3KgzZs3Fw6paoGZH/6mqEZFlyKAbq6puivYO0yyK1aZi2bJlDxdF8V4ROR357Zrth1BV1QdijFenDkK1dA2AfVKHGCu3jnLUGyKyU+oMY4nIg6jfGFQ784OpcwCAiEjPOvyMjIwscM7dCyCr981aGAZwIIADq6q611r7VxE5zRhzcavVuhdAmThfMqOjowucc/cBqGsh1AwALwbw4qqq7rHWXi0ivzbGXNJqte4Bj57NXd8+QGOMmxhjZvbrepNQArgtdYhuijHeYIw5KHWOMWap6uzUIWhSoqqOZjKmInoMFvxM3fVoL07X/Sd8fQB7qOoeIvJx59zVAP4sIheUZXkxgNrtjqiBYWvtkwHs3mlRvIOqbq+qWxtjHACotmtWxn6BTObLZOXvWflPYwxUtbTW3iUid3faFv4dwNUhhOvQnQn83M5RZsFPjYkIjxhYSyISwfc99d41AF6TOsRYqrpl6gyDrtlsbhFj7Ho3mCkQVf24tfb9qF+HymwWJ6uq2gnAed18TRHZDnk9F22gqidbayvklWt1FEADmRTwishM59y23vvrUmfphqqqLiiK4vOq+pnUWRL4ZoyRx5rRusquUExEOAYcfOup6kaZLaq8yVr7MtRrDBpFpGddddZWp5tNr4ygvTC9Xw+v0Redz7gtARwUY1zonPuzql4C4PwQwt/Q3vQ1nSxX1dtE5Dmpg0yViGyF9nPhwTHGBc65S1X1Ujx6b6dtYRcBxpiNkcmzYMdyVb0jdYhuMsbclDrDeMaYTauKyyE1oODR2JQpFvxMUVEU91VVdX9nh+ygMAB2B7C7qh7unJuvqlcAOBfANSGEmwDUroVmJnZ0zu2uqvuLyHMBbIIxO3d7PInR6OyM2mnMdVY45xaq6nXGmIuqqrqsqqobAAzCOZQsfCAi6jJjzI3arkbNZtZdRDZEe+ySW+HpwKiqaksRaaTOMYbpFJbQFPRisUVVt8lsUW5IRHI7CqRuZsYYtwYwEAU/AFCW5YnOub0BvCh1lj660Hv/EfC7ktaRqt7U2ZRRpM6ykqrOQbtAkgujA6rZbG5cVVVuHdm2YIfRqVHV7dF+nuzJvJ2qXpfZeLQb5gB4sYi8GMCyThej8wFcCOAG7/3NmB5HvA/MeHSMuQBeKiIvBbDMWnuPiJwH4CI8em+5uDyNqOo8yetDbGTWrFn3LFw4OIeBqOrtef0VA6rKsQURTQkLfqao1Wrd75y7DcAgFfyM5QBsJiIvA/AyAKPW2lsAXCci53Zait4PHr+zOnMbjcb+qnqoqj4DwFYZDShmAJghIluo6oHGmCAiNxtjrlPVP1hrzxsZGbkPNZwY7nQ7ISKiLoox3i8iS5HXUSgbAJgJYGnqIIOqs6iR0w4z6gJV3aYHL9uzIxoomaYxZvMB22243Hv/Pmvtk3t5rEguVPXuEMK7MADHslE6RVE8UlXVQyKyWeosY8ycOXPmnOXLlz+YOgj1RlVVG4nIeqlzUNdtjXbxYK8KVK5GuxAwpw0L3Th8IWcAAFz7SURBVDQLwBM6v94B4CHn3K0ALosx/qGqqmsBzMdgboS8Cu3il2yKT7tslojsDGBnAO8E8GDn3v6lc2+vx2Bs0q0dVe3bYo6qzslo7QiqunDhwoWLU+foJmvtPVVVtZDRPJeIbJQ6AxHVGwt+pm45gCuR2VnmPTQkIrsA2AXA62OMy6y1f0Z7R8HFIYTLwDNnAQDNZnM7VT0sxvg6VX0C0PMOPt1gReTJqvpkAIeFEOZba88WkbO89+cCeCh1QCIiSqcoigUxxgXIqOBHVWeiXcDKgp8eUdUtRaROxxbQJPRid7qI9KKIiBJT1U1SZ+iBW0XkgwB+hMGeF/GqehTaxzkTrTPn3NKqqh4AkFPBz7D3fgMALPgZUMaYjVSVBT8DptMlv4EeFfyEEK5zzt0FYKdevH6GNu78erYx5v0ici+A80TkIhG5qCzLfyTO1zWde3s3gO1TZ+mTTTq/nmOM+YCI/BPte3uxMebCVqt1e+J800nfFnWMMXP6da3JEJH7UmfottHR0RXW2oc6x+tlQVU3TJ2BiOqNE/ddEGM8CzXsgNIls0Tk+SLyGRE5w1p7tXPuC9ba5wKYlzpcCkNDQ1sVRfHpGONFqnpszY8R2FBEXgfgp9baK51zX7XWPhP1mBQfxJ0sRERJtVqt+aqa27Ges5rN5ozUIQaZiAziYv+0p6obYMzRsl16zU27+XqUBxEZyPvqvf8lgO+mztFjX6iq6uTUIaj+li1btgSZFdaIyBCLQQabqs4F564H0XCz2ezl88UKAOf08PWzJiJbisgbAHxPVS92zp1rrX2Xc+7JaHfyr7OlAP6YOkQqIrK1iLwJwPdjjJc4586x1h7unHsS6jFXT2smnSNLs6GqD6TO0AOliGQ1rgXAgh8imhI+NHVBVVVXqOrdqXNkYD0ReQqA94vIBdbac5xzX7LW7omM2uP1kLPWHh5COM8Y8xEAW6YO1E2ddvfvFpELnXOnG2Neg0fva44FbzlmIiKquyUiktXB3SKyXoxxZuocg0xVZ6fOQD0xq9lsdrNt9BDax+vRgFHVzTCYiwjRe/8xtI/+GERneu8/kzoEDYwSmRX8ABg2xmTTdZK6T0SyWvSkrmlUVdX1TpNjxRj/hPbRT9PdJgD2F5GvAbjUOfd7a+17m83mtuhjx5IuUgDngXO+ALApgANE5Bto39vfWWv/e2hoaBvU897mrl9/pxZAVsXMIjI/dYYe8Kr6SOoQY4nI3NQZiKjeWPDTHUtF5LTUIXIjIrsCOEJELnDOXWCtfU+j0RjIdqrOuV2cc6eLyDdEZIfUeXpsCMCLiqL4uXPuvEaj8arOf+ODNBHR9LAodYBxZqjqcOoQA8wA2CB1COqJ4Rjj7C6+3hxMjyL/aUdV52Fw7+18VX0PgCWpg3TZncaYd6Pd5YCoK3Ir+gYwpKpd7VRHeeHxFgPLqmo3i87/j+Hh4UtVdWCOsuqS9QE8X0ROiDFe02g0ftpoNF6Jmj3rNRqNC1X1jtQ5MrMBgBeKyIlVVV1jrf1Jo9F4OTI6ip0mzaJ9ZH02RCS3Lt/d4AFkNa5VVW6eIqIpYcFPl6jqLwEsTp0jUw0Ae4jIV2KM51lrf2itfTbq30YUAIxz7s0AzgZwYOowfSYA9lLVXzrnficiPX1YX1sxRh7pRUTUA6qa1UMx2ovQg7oQnYMhEanVJDBNjogMxxi7dm8bjcYcEeHP4gDqdFgY2HsbQrhUVY/F4BwJvDzG+M5Wq8XFMOoqVV2UOsM4Bu3NRzS45qUOQD1hjTE9vbfLli17WERO6eU1am62qh6qqqdYay9uNBofbTab26UONRnLly9/kBuvV2uOiBymqqd27u2HAWyTOhRNmhGRrAp+YoyDtjECACoRye3PNQvszkVEU8CCny4JIVylqpemzpE7EdlCRN4gIudba39lrd0ndaYpGHLOHQfg+2i30ZyuDIDdkd+OELZ3JSLqgdza3gIwqjoIRcS5aqA98UCDZ7goiq6N32KMszCYxz5Ne5324o3UOXophPA1Vf196hzdoKqfqarqrNQ5aCBlt8NbVVnwM7hEVdmdYkB1ugf2lIj8FIPXwa/rROQpqvqpGOOlRVEcNzw8vHnqTJPwYwDLUofInIjIU1X1M9baS4uiOHbGjBnTef1iqvpViFGoalYFPyKyNHWGHsntM6SBAX/mJqLeYsFP96iqfhXtc81pzayIHCwiZzrnvgFgy9SB1tL61tpvAzgarLzN1aDs0CUiykqGxzkAA9x5IgOWR6YNLKOq3SzYHgYLfgbV3KGhoUGffBwtiuJ9qnpX6iBTISInhxC+lDoHDSYRWYT8nrNZ8DO4jIjweIsBJSI9L/gpy/JWAD/v9XUGyGbGmA+FEC5yzr0NGXfm997fqKonp85RFyKyhTHmGO/9xZ2TCvjMli+D/Oa3RlMH6JGs/lwiYubMmcNxLRGtMxb8dFFVVX9S1d+kzlEzMwEcbq09p9FoHJQ6zCTNttZ+T0TekDoIrVZuE5FERIMiq4fijqx2QA0Yi3YhBw0gVV2vi681E5w8HlTDMcaB/xxotVq3q+pRqOkmHlX9e1mW70dN81MttJDZc3Zuu+Cpqwq05wxpMPWjS3g0xnwRwIN9uNYgeRyA71prf9psNrdNHWYVojHmeADzUwepmR0AfN9a+6OhoaGtU4epmX5t+DbI7Jk6xthKnaEXVDW3P5cJIWR174moXljw011BRD4HtgtdayKys6r+0lr7YWQ2qBlnhrX2ayJySOogREREifjUAcYzxgx654mUHLh7fpB187i2IeQ9jqcpiDF2rTgsZ1VVnQLg26lzrIMlAN4J4J+pg9DgEhGPzAp+jDHZdqCgKROwqH9g9atYr9Vq3aaqX+/HtQaNiBxSVdWZRVHsmzrLRMqyvBnASalz1JCIyKEhhDOttfukDkMTKlIHGGdQNxNkN7cZY8zt3hNRjbDgp8u899eIyOeR2SRITQyJyGestScByHFC2TjnPiEir0sdhCYlpg5ARDSIRCTHh30+FPfI0NCQEREWcQwoEenamLuz6MrnywGlquunztAv3vtPAbg8dY610FLVD4cQLkodhAZbVVXZFfyAY8BBJgBY1D+4ZqBPHTNCCCcBuKQf1xo0IrKzMeZkY8zrU2eZiPf+awAuS52jjkTkSSJyijHm0NRZ6DEE+Y1tBnWNJbc/l4kxcu6NiNYZJ2R7oCzLrwA4M3WOuhKRt1tr/x+A2amzjNU54/bI1Dlo0nKbiCQiGhQ5FvzwobhHVNUgvwkn6p5uFnEU6F+rc+qzoiimTcEPgPmq+h5VXZA6yCSFoihuSh2CpoUS+S2OcIwyuERVeX8HlIjMQP8Kuhao6vtq9L2em3lFUXzHWvuO1EEmMF9V36uqi1MHqamNiqL4vnPu7amD1EC/nnMFXLPtlxzXjjifQkTrjF8evbHCGPNeVb09dZC6EpFXOue+j+4uQqwz59xuqvpZ8GeGiIgox4diFvz0joB/vwOry8cpWHCCamCpajePf8teCOFyAB8DEFJnmYSZVVV9EcCGqYPQwOMYkPpJ0D5algbTMPp4f0MIV4nIUcjwCJeaGBKRE6y1/5U6yHidMdvRqMeYLUfDAL7qnHtb6iCZE/TnWVeRX3H1oI61shtjiEiVOgMR1ReLF3qk1WrdBuB1AP6ZOkuNvcJaeyKAZuIcwwA+LyIbJc5Baye3wTER0aAY1Id9mpgBnxkGWRPdm7jk+2SwpX4m6zsRmY+aFLGJyNOttceBP4fUWzkWduaWh7qLn2mDq4E+d+jy3v8/Vf04AC6orpumiHzJOffa1EHGCyF8V1U/Bc4Fr6shAF9pNBqvTB2EoMiveG0gj9dU1dwKfqIxht9PRLTO+ODUQyGEy2KMb1HVh1JnqSsReZNz7uMpM1hr3wZg/5QZaJ3kuPuQiGgQ5Fjwk9uEyCCJ4N/vIGuge8+EARx/DSxVHciJ3tXYGcAXUaPjgkTkbc65f0+dgwZajgU/HKMMrhwXPal7HPq/LqEhhM/HGI/v83UHyQwA37DW7pM6yDgxhHBcjPHLqYPU2ExV/Za1dq/UQTLVr/GPIrOiRGNMboUxXWGMye35VlnwQ0RTwYKfHquq6k+q+loAd6XOUmMfMMa8PsWFh4aGtgJwVIpr05RxwYmIqAdUdTh1hglwMaB3Itj6fmCJSDc7/Hhw/DXIhlIH6KPZRVF8C8CWqYOsJVHVYxuNxs6pg9BgKopiCCz4of5RESlTh6DeUFU3a9asFEW1saqqj4rIxwDw/bVu5gL4JoBtUgcZp6qq6kMAPg0+v66rDQF8C8BWqYNMY4r83r8DWfCDzP5cqqpLlizh9xIRrTMW/PRBVVXnA3gZgKtTZ6mpwhjzBefcLv2+cFVV7xQRDnLriQtORES9kWPBT24TIgOj1WoFVeVi2uBqoEuLtzFGj8x2I1JXTZcjvcQ592ljTG471ydFRLZW1S8jz+9qqjlVHUJ+84gcowwuBQsyBpmNMabqHFuVZflpVX0PgOWJMtSaiDzROfcV5Dc+DN77j6nq+wCMpA5TRyLyFGvtl5BZMcQ0UolIVu9dVZ2VOkOPrJ86wDge/NwioinI7UF9YHnvryuK4uUATk2dpY5EZBMAx6O/DxLbqWqSzkLUFSz4ISLqAVXN7aEYMUY+FPdOjjvMqHsKsMMPTc60mDtwzr0ZwDtS55iiF1prj0wdggZPZwyYVYcfjgEHGgt+BlvyIzNDCN8yxrxCVW9NnaWmDrbWvjV1iImEEL4hIq9S1dtTZ6kjEXmVc+6NqXNkpl/jnwqZFSIaY+amztADVlXnpA4xzgpwAxURTcG0mLTLxejo6D3e+9eJyIcALE6dp4aeb619U78uZq19lYhs3q/rUddxwYmIqAeMMbNTZ5gAF3t6JwBopQ5BtdACJ6gGWVaL/L1grX0mgM8ig0XIqRKRo4ui2Dd1Dho42RV9i8iK1BmoZxTAaOoQ1FPJxxatVuucEMKLAPwmdZaa+mCz2Xxc6hATKcvyzBDCgQB+lzpLDYmqHtNsNrdNHWQaqlQ1q7FNhoUx3eBEJKs/l4gsS52BiOqNBT/9N1qW5edU9SUALk4dpobeM3PmzI37cJ1hY8wb+nAd6h0W/BAR9YCIzEudYRwVERak9E5LRJamDkE907WFFhFZDO7EH2TJF+V6aebMmZsA+CaAfjxr9sMsEflyn56daZrIcAwIsCBkkFWquih1COqZnMYVt3vvD1XV/wbwQOowdSIiW8UYD0+dYzX+4b1/jaoeAeCh1GHqRES2jTH+Z+ocGelnh5+sCj9UdRA7/DgAWRX8gA0iiGiKWPCTSAjhEu/9i0Tkw6p6f+o8dSEiO7dardf0+jpFUeyrqjv2+jrUUyz4ISLqgQwf9lvgYk8vjYITD4Osa8flGmMWgQU/A0tVbeoMPeRardbxIrJr6iDdJCJPa7Vax4LzPtQlqppbwU8UkayOvaCuiiLySOoQ1DNNVc2p6Gc0hPA1AAeIyK/ArpWTpqqvB5DzHPpICOEEAAcAOA1ATJynNlT1TQC2S51jmgkisjB1iHEGcQNBQ1U3Sx1iLFV9OHUGIqq3QZ60q4NlZVl+ttFonKqq7wFwGIDZiTPVwZsAfBe9W9wTY8yB6OICSJ8tUdVFIvKwqt4pIveq6n0iskhEFlVVtQyAR3sAGVXVAWgURTFLVddX1TmquomIbCYi23b+fX0AG6Befycs+CEi6r4ZaH8fZENVl/I4h55qqepikZzm4wFVPQfA+RiAo3cSMiJyO7q0oFGW5SJrbSu39wqAk1T1X8hrJ3ndGBG5IHWIXmk0Goer6r+nztELIvIW59yl3vsfps5CtVcAyK3gZyTGuCR1COqp7Ap+VPVvAH4JjkGnwgCYPzIykt3Pr/f+7wD+vdFo/EBVjwbwHLBwdrVEZCNr7WtCCMemzrI63vvrALy20Wi8QFU/AODZ4PPBaonIptbaQ0IIx6fOMs0sSB1gnG1SB+i2RqMxR1U3SZ1jLBFhFzIimhIW/GSgLMtbAbzTWvtDEXmrqr5aRGanzpUrEXlyo9F4XlmWv+/RJWYD2K9Hr90TqnoPgHMBXAXg2hDCrQDWqiq4qla51tNsNBrbVlW1g4jsCOApAJ4hIk9E3p8h3LFBRNRlw8PDc733szNb0F/qvc+q5fGAUWTY4UdE7vDefy51DnqMRciww0+M8fyqqk5JnYPy1OnseiwGd+G2APBZAFcAuClxFqq3WSKyUeoQY6nqSOc4SRpQqrogs+cOAFgQQvgigJA6CPVMKMvyLADnOudeqapvE5H9U4fK3KEAvoYMnxvH8Z31hD86516lqm8VkX1Th8rcvwM4CZkdM5VA376MVHVhTt99IjJ3gw02mLN48eLcOg+tMxHZTlWzev4TkfmpMxBRvbFCPSMhhCu89/8ZQtgDwPGqekPqTJlqqOoL0KOBlnNuewA79+K1u2xUVc+MMb46hLBbCOEtIYSTQgiXYi2LfdagVZblLVVVnRFC+EoI4a0hhOcCeLqqvhvA6QD+2cXrERFRpkIIG4rIhqlzjLMEnHzqqRwnHlR1D7Q7TlE+Whm2H4cxZp/UGShb24jI1wDMSh2kxzaz1n4ZwHDqIFRfQ0NDG+R29AGAFZ3jJGlA5TgGBfCkZrO5deoQ1Bfee/+LEMJLY4wvVNVTADyQOlSOROSJRVHU6WjUlvf+pyGEl4jIi1X1NADsrjEBEXmKtfZpqXNkQNCnoh8Rya3Dz/CKFSu2TB2im6qqelzqDOOp6n2pMxBRvbHgJ0+3eO+PDiHsJyKvVNVfoj3oZMeSDlV9Pnp0pIiqPgf5t/Q8L8b40hDCi6uqOhndLfCZjEXe+7+HEL7uvT8YwMtUNauHXhHhkV5ERF1mjNkEwJzUOcbqFBjkvpOw1lT17tQZxhORxzebzU1T56DHUtU7UmeYwNMwuN1baN01nHMniMiTUgfpBxF5YaPROCp1DqqvqqrmiMgWqXOMs6zVauVYEEJdEmO8H8Bo6hxjicgmALZPnYP6aqSqqj+EEA4Rkf1V9b0A/oL2xhPqMMYclDrDOlhRluWZIYRXAthfVY8AcDl4b8cSEanjva2tGOMDyKtz7gwR2S51iG4SkaekzjBejPFfqTMQUb2x4CdvD5VleVoI4bWNRuOpAN6gqt9T1esArPL8pelARHay1vaqC88ze/S63VACONZ7/5Kqqs5NHWYl7/1tAFakzjEOC36IiLqsswsmq6JYVX0EbKnfU8aYu5HXhBMADMcYa3UE63QgItkV/Kjq4xuNxk6pc1BerLVHA3h56hz9pKofKIqCR5LQOokxbofMjvQWkUVgl8eBZox5EO0jQ7MSQnhe6gyURlmWN4YQTvTePxvAc1T1SFX9DQAu1AJ7AhhKHWJddTa2nuC93wvAPqp6lKr+FgC7brTvbTN1iOlCRB4EsDx1jjEaMcY6nIYxWQ7AE1OHGGdFhp2diKhmWPBTE8uXL3+w02ry7SGE/QHsWlXVW1T1B6r6N1Xtd4eXHOzZg9ccEpEde/C63dBS1SO99x8FMJI6zDgOmS0AgwU/RES98LTUAcYTEU6u9t7dyGx3NQCo6vOQ3/hjusuu4EdENlLV3VPnoHwURXGQiByTOkcCM0XkSwDYHY3WxdNTBxhPVTkGHHDe+wdUNbtOGyJyADIrgKO+i97760IIXw4hHFIUxZ6quo+qfgjA71X1VuS3MbLXtm00GoPQBSR6768NIXwxhPCqzr19rqp+GMCZ0/Tebt9oNLZJHSKxvs07hBAeUNXc3mM7Y3DmXjZX1ayO5lTVR4qiyO54dCKqFz6c1NN87/18ANfFGP8fAOeceyKAJwHYXVWfKyJPADCcNGXvPavbL9hsNjerqmojkSzHL58PIXw9dYga4RF4RETdZQA8I3WI8VT19tQZBl1Zlvc451YAWD91lnGeOTw8vMXIyMi9qYNQW4zxDmOy21MiqvpiAD9KHYTSazQaO8UYv4ppuktZRHax1h4bQvgP8HmJ1oIxJrtOyCJyW+oM1HMLctzxLiI7WGt3CyFcnjoLZSGMjo7eA+AeABd3/tu8oiieIiJPBrCXiDwb7YJblypkH2wMYAcAN6UO0kV+dHT0nwD+CeCizn/bcMy93VtE9gawCQb73m5aVdX2AG5NHWSaeADtY+WyOUq1s9a4HgbguLtms7ldjHHL1DnGEpEHW63WQ6lzEFG9ZTcbS+vEe++v9d7/zHv/vhDC3iLyNAD/oao/6RwBNnCTeSKyDYAZ3XzNqqo2FZG53XzNbogxXuy9/2zqHDXDDj9ERF3UbDa3zfDcbi2K4pbUIaaB5chwck9Etgsh/FvqHPSooijuA5DdzrTOTvztU+eg5Gaq6tc7z5HTloi8yTn3+tQ5qFbmqWqORyPenDoA9Zyqao7FA+ur6ktTh6CsPVJV1QUhhK+HEF7nvX+yqu4rIh8DcIaq3pM6YA9IjPEJqUP0wfyqqs4PIXwthHBY597uJyIfB3DWgHafMyLy+NQhEuvn7vAgInf18XqT8eRGo7FJ6hDdUFXVs5FZgZ6q3ocBKKYiorRY8DOYRsqyvNV7/90QwutDCAeo6nM6bUUvAjAox39t3Gw2N+7mC6rqPACzuvmaXRAAHIcMj9LIHAt+iIi6KMb4bOTX4aVstVr/SB1iGogArkkdYhXeiMFpLV17ZVk+oKp3ps4xgTnW2tekDkFJiXPukwAOSB0kAwWA45xzT04dhOqhKIpdRWSz1DnG6xyrQoPv6tQBJiIirwEwJ3UOqoUIYEkI4dKyLD/tvX9pURT/JiIvA/ANVb0R7Q0WgyDH4tBeigAWhxAuKcvyU977FxdF8VwRORjANzsFi7kdzbROWPDTd7kVNc9U1T1Th+gCEZEXpg4xnohwXpOIpowFP9PDQyGEP4cQPue9f66IPFdV36mqvwGwNHW4KdioqqqNuvmCxph5yG/R6Mqqqi5a82+jcVjwQ0TURar6HGQ2dlTVewFk1+Z/QP0tdYBV2Ntau1fqEPS/FojIHalDrMJrAMxOHYLScM79O4D3pM6Rkc1V9UsY/GPAqQuKotgT+b1XFhRF8UDqENQXWRadi8gOzrmXpc5BtaStVuuOsix/671/VwhhtxjjQTHGTwO4CjWezxSRHZHfvHo/aavVur0sy9O994eHEHbt3NvPqOpfU4eboh1TB5hmbkwdYDwReX7qDFPVaDR2BJDjpofrUwcgovrLatGG+qMsy5tCCCeFEF5tjHm6qh6B9hnDrdTZ1tIsVZ3dzRfsdPjJzXkYkN0AfVbbB2QiogxtBODfUocYT0Sux+Dshsyaqt6OPLsNDhtj3o12xwrKQ3aTkwAgIrs4516VOgf1n3Pu6ar6OQA2dZaciMjzrbXvT52DsjekqgemDjGBm1utFou+pwFr7b0AHkqdYxUOB7Be6hBUe6NVVZ1XVdXHvPf7q+reAL6qqrl1+JiMLcDnsrFGq6r6U1VVHwkh7KeqzwbwdVWt3bHkqroFpncxV1//7J3OX7Gf11yTGONuaM8N1laM8WDk17k8AKh7QSARZYAFP9Obb7Vat4cQTug8ULxAVb+Pep0XObubL6aqG3Tz9bqgijFekjpETbHgh4ioSxqNxp4iskPqHOPFGK9F++GYesw5d7uq/jN1jomo6sHW2r1T56C2GONlyGxyciVVfQ94/MZ0Mw/AN0Vki9RBciQiHyyK4nmpc1C+rLW7AHhG6hzjdRbC69yxmiZpdHR0PvLd+b4bi4mpy5aEEP7ivX9Po9HYt6qq16O9STfLsfUE1gcwI3WITC0OIVzqvX93o9HYF+2jqS9Ffe7tBsiv218/9bXgpyiK+1X1X/285pqIyA6NRuM5qXNMwXoi8nJkVrimqvd67+9NnYOI6o8FP7SSDyFcGEJ4m6ru3znuK3si0u0jvXJ7KCmttXXc0UFERAMkxvj61BkmUBljbkodYroYGRm5T0RyHZM0AXwMwMzUQQioqupKAI+kzjEREXmytfZdqXNQ31hr7WcBPCt1kIzNEJETAGycOgjlSVUPQ4bdsYwxN4CbfKaLFWgfc5Qjo6ofArBJ6iA0eFasWPFAjPEn3vv9Aby+Jl1hXLPZzLF7flZWrFhxv/f+R517+yZVvS11pjURETc0NDTd723fCkVardYDGR6VbWOML08dYl0VRfEMZPhcKCLXgEXsRNQFLPih/yOEcFUI4bWqejTyPLphrG63znVdfr2pWtpqtRamDlFTddkhQUSUNefcLiKyb+ocE5gvItelDjGdqOqFqTOsiojsa619a+ocBABYCOCy1CFWRUSOcM7tljoH9Z619m0i8ubUOXLXKYQ7DpwfonGGhoa2FpGDUueYwEiM8crUIah/RORSAGXqHBMRkR2dcx9DZh0DaKB47/3PQggvAPC71GHWoIgxchPG5LW89z/u3NuzUodZAzvN722/P+NHkOFR2SLy4maz+bjUOdZBISLvRIbf1ap6Bdi5nIi6gBM6tCqtEMLxnZ0q2TLGNLv9kl1+vSlR1WVg4cq64m4/IqLueCvaR6Lk5t6yLP+ROsR0IiIXIN/vVyMiH7XWZnfsyDRUqepFqUOsxmwAX1p//fXnpg5CvWOt3VtEPosMO5PkSETe7Jx7Q+oclJcQwqEism3qHOOp6vwQwjWpc1D/lGX5F1XNeTPcWxuNBo/2ol6723v/egDnpA6yGgbt7qu0du7w3h8G4PzUQVbDqCrvbX9dhvzmX+bEGP8rdYi1NTQ0tLeIvCh1jgmMqurVqUMQ0WDIqrihprbGALe/DiF8Q1V/njrHqvRgoJljNW1uA7u64N8bEdEUOeeegvbZ8jm6DHl+bw8s7/3tqvr31DlWY0MA35kxY8amqYNMd9baywEsT51jNZ47Ojr66dQhqGe2APBNtIu7aHKMqn6m871PhOHh4S0AHJ46xypcCWBZ6hDUV/NFJNvugQCaMcYvOeeemjoIwTrnnoTBXfNYbIx5J4B7UwdZBVHVRo9e2zUajSf26LVzsEhEDgfwQOogq9DLe0sT6HzvjaTOMZ6qHtpsNrdLnWMtmBDC+wAMpw4ynqo+UFUVi9iJqCsGdfDbN865fYuiONNam935j13iReSLAJakDrIK3W7D57v8elMiIusBKFLnqCkW/BARTY0F8AkA6yfOMSERyXln46BaoqpZtxoXkad777+J7h/7WifJJ7JGR0evAHBz6hyro6r/2Wg0PoAM23r30VDqAD3grLVfFJFcClfuV9VfpQ4xGSKyOYAvAZiROgulF0L4kIhsnTrHKnAMOD39OnWA1RGRrQB8v9lsbps6S0LDyGOt4dPOuW8izy61U9ZqtW4Tke+lzrEaPRtbq+rnnHPfADCnV9dIqSzLmwF8P3WOVZjOz0xAgj9/WZZ3Abip39ddExHZIsb4ntQ5Jss5d1imR9QCwFUA5qcOQUSDIYdBeN1FY8xuInJGs9l8NwawZbj3/q8xxiwrTVV1RZdfL7edyOsB2Ch1iJpiwQ8R0RR0jvZ4eeocE1HV+4wx16bOMQ0pgD8AGE0dZA0OttZ+H8Cs1EH6yTn3FOfc8c65jyD9hGwrxph1cRiAQlU/a619b+ogfVY0m80XWGt/6Jw7OHWYbrPWHiEir02do0NV9dMhhP8E8OfUYSbpgEajcVTqEJRWo9F4MYC3pc6xCktE5IrUIaj/vPd/BnB/6hxr8IwY488BbJk6SD81m81tG43Gh51zX0H68XdE+0ip/3DOnWGtfXbiPD2hqr/LcA4bAKKIdHWufuxro12sfrhz7vfW2j17dJ2kVPW3AHr1dzgVlYhk121mwJUxxlyLnN9urX1u6hCTsCWATyHTdXAR+V3qDEQ0OLL8oKupeTHGE621p3Zahw4UY8zlqTOswtIuv97iLr/eVDWKoshld2rdsOCHiGgdWWt3V9XPIH3RwKpcPjo6+q/UIaajqqr+rKq3pc6xJiJyiLX2hwAG/XivuUVRHOScOwXAhQCOUtXHI4NxUGfyKqvumRMwIvL5RqNxDIBBb1G/vbX2Hc65S2KMvxGRN6jq3NShuqkoiheKyEdS5xjjtyGE7wFYpKrvA7AocZ5JUdWjiqI4IHUOSmbHGOOX0V4wz9EN3vtbU4egJG5H+zi33O3hnPtlo9HYOXWQHhsuimJfa+33YoyXqepnVDWX7vex889nichZjUbjYwA2SBmo27z39wK4M3WOCVQi0stCpJX3di8RObszhs+yI/G6CiHco6p3p84xgcoYk2ORWb+kmhu7FHkeZT9DRD6H9rHquRqy1n4BQK7Hjy3I/LhSIqoZFvx0l4jIQap6Tmen6MC0SFfVLHfRxBgf6ebricjCbr5eFxhjzL6pQ9SRiCRf6CIiqqNO4fKPRSTXQomVXWZynPSYDkZFJOsjFVYSkVc45053zu2aOkuXNTrdfD5jrT3XGHM6gFfi0db2WfxshBBuBFCHCSynqsdaa7+JweusOavZbD7fWvs/1trzROQkAHvg0efUuJr/b600m83HicjXkb6zAABAVe8RkQ+iU/QWQrhCVT+GDIrxJmGmiHx5eHh4WnWoIGB4eHhL59wPRGSn1FlW41wA03nBcTqLAE5JHWKS9ooxntVoNA5MHaTLDIDtG43GB5xzfzTGnCMibwWwCQCISJk23oRmqeonnXNnNJvN/VKH6aKlIrIodYgJhLIs+zW3vr6qHuuc+/3Q0FAdOo1M1mIRyW1DMlTVt1qtRalzTDdVVV2lqjkW9wHAHo1G4wvI9MQT59wxGXV+/T9U9dKyLHO9t0RUQyz46QER2VxETnDOnVmT1naTkeVksIh0u+BnATKbhFXV/ZF3tXSusrqPRER10Gg0dlLVX4jI41NnWY2FzrkzUoeY5k4GsCR1iEl6pqqeZa19FwCXOsxUDA0NbeWce4tz7jS0d7h/WESenjrXaiwzxpyMmozJROQtzrkziqKo/WKQc+7pjUbjQ9bai2KMZ4vIm0Vkm9S5emhGjPFEEXlc6iAdUUQ+VpblzWP/YwjhJFWtxWK1iDzZe/9p5Nvpj7pv8xDCzwHslTrIagQAtSg6pt4YGho6E8AdqXNMhohso6qnOOeOBTA7dZ4pmttoNA6x1v7YOfdXVf08gL2R6SLvKuwdYzzDOXfi0NDQVqnDdIEizzH2CvS/e/5zqqo6yzn35eHh4S36fO3pZDnyOxlhOngQwMWpQ6yKqr7JWvvh1DnGs9a+E8CHUudYDa1JR2QiqhEW/PTWviLyO+fctxuNRs47pNYo013+o93ezRBjXIDMzskVkZ2dcy9JnaOGcnzwJaLpTQDkuOsRAFAUxQGq+jsReXLqLKujqueNjIzcmzrHdOa9vxHAH1PnmCwR2VhEvuqcO9Vau3fqPGtjeHh4y0ajcbC19udVVV0C4PsAXox8j1p5DGvtrwDclzrHWtjdGHO6c+5LzWZz+9Rh1oJpNBo7dY7sOg/AH1X1uE5B2MAXbDjnjkH75yILqvpT7/2PJ/ifqqIoPqSqtTiOSETe4Jx7U+ocAyLrMaC1dnfn3G8APDt1ljX4i/f+5jX/NhpUS5cuXQDg56lzrIUZAI5xzp3daDQOQo2OD501a9ZGRVEc4Jz7trX2ClX9pYgchnofjTUE4L+rqrqwsxlgduI8UzFLVXM8yuo+AFWC6w4DeF8I4UJr7X+h3u/T9VR1vdQhxhOR+5DphvA+SfZMpaonp7r2ZIjIR51zn0IeRaBirT1SRL4MoEgdZjUe9t7/LnUIIhosLPjpvfUA/EeM8YKiKD45Y8aMzVIHWkdPSx1gPFWdH0KY383XNMY8rKoLuvmaXSAAPjBr1qzcu/zkNoiazg8hRJQhEdnWWvtRAHNTZxmnaa19rzHmFAC5FyhXqvqL1CEIVYzxx6hXca0AeKmInGut/YG19hnI91loI+fca6y13/PeX6Cqv+60ot46dbC1tXz58gdjjLXoaDLGLABHVFV1gbX24xnvAi+azeYO1tp3WWtPU9XLOkd27QtgXupw/VIUxSEAjkqdYyVVvT2EcAxWsdjVarVuN8YcjXrs5jQAPuecy7oQuA5EZMOiKD6aYecB45x7o4j8FsDuqcOsSadD1kjqHJSUeu9/paqLUgdZS89S1dOdc6cWRXEA8u06uV5RFAc6504cHR091xhzDoD/6HTQG6QC4u1E5GvOubOdc69FvvdjlZxzm4pIds8Gqno70s7HPk5EvumcO9M592rkUYCwVpxzm4tIdseqdu7tdJbsM7CqqitU9aZU158EC+CjzrkTkLaQcgPn3BdF5HhkXmAbY/w1gAdS5yCiwZLrJPfAEZHNjDEfK8vyz9baDw4NDdWppfoWqvqM1CEm8DCAh7r5gmVZ/gtAV4uIumTnVqt1LPL9mbUActxZQkSUk/VF5FPW2oustf81PDy8eepARVHs65w7S0ROQA0+x1X11uHh4QtT5yCgqqpz0D5Wqm6GROSNInKhtfb0oigOyeBnUZxzT3bOvcFa+zPn3HUAfiYib83oiKJ1Zoz5MepzBNz/EpGtROQTVVVd5Zw7qXNU88zEsWZZa/e01r7PWntOjPGvIvI1EXkZgDmJs/Wdc+4pIvJF5LNQF1T1gwDuWd1vKsvyNwC+2pdEU7cxgBPQLoSjddc0xhzhvb/EWntUs9ncLnUga+3u1trTAPwPgBw7Oo/3gLX29NQhKAvXATgrdYh19BJjzO+dc39yzr212WwmH+c1m80diqJ4pXPu2865640xpwP4bxF5aupsffAsAD+11p5dFMXBaHcAqos9kOHYzxjzj9QZOvYC8DNr7VlFURyEmnRHBQBV3QMZdijK6N6mlKroZ4GInJbo2mvjXc6531tr9+j3ha21z3DOnQ7gCOS7frbSqIj8LHUIIho8tatyrjsR2RbAZ0MIb3fO/cwY88NWq3Vb6lyr02g03qSqOXaXuQfdPzt2hYjcC+DpXX7dbnibtfYfIYQvpQ4ynrV2exHJbaG4Tl0HiGgaEZEnAfim9/59zrlTAfzKe/8PtM9E74dZRVHsKSL/ISIHIv0C9qSp6qnLli3LsTB3OhpBe8H6R8h/QmUiM0TkJSLyEu/9rdbaq0Tkt8aYK1ut1nz0tkBldrPZnB1CeIoxZh+0Fxt2ArCJyCBtnm7z3l9jrf21iLwxdZZ1tDGAd4jIW6y1N4jIxTHG3zUajZtHRkYWoHfdJiyA2Y1GY2NV3V1V9wHwdBHZESy+ANoLIV/LbHf7d6uqOnUyv9F7/6miKPY0xuzV61Bd8Dzn3Pu9959IHaTuOvNBx1dVdbhz7req+vMQwo3oX1HkkLV2NwBvF5GDkOFi8aqo6hmjo6N3p85B2fgqgJehfWRW3TQAPAfAc2KM/7TWXiMiZ4jIxWVZPgSgl13H1xseHt6gLMvHG2OeA2Cvqqoeb4zJ6bu034yI7Cci/2aM+TOAb3vvzwLwSOpgqzEE4O2pQ6zCjakDjFGIyPNEZF9jzKVo39uz0dufsamaCeBtqUNMpKqqG1JnSEnSP6j/EsC7kf9Gvb1F5Azn3A+NMd9otVo97QzVbDa3izG+C8AbUZ8ut38JIVyWOgQRDR4W/CQiItsD+EiM8fBOC/afV1V1AfI7huipqvouZNi6VVWv68Xrxhj/aox5aS9ee4oKEfmMtbYKIXwldZixRORg5LfYx4IfIsqaiOwE4EMAjnLOXaSq5xVFcXmr1boC3V/4MZ0jjPYTkRcCeG6XX78fFlZV9cPUIehR3vvTnXNXowbHgKxO52dxJwCHxRhHOh12rhGR2wDcqap3eu/vQ3tyeG2O4Vmv2WxuUlXVFiKytYhsF2N8nIg8Mca4szGmNsV2UxRF5KsAXg1gOHWYKWiKyK4AdjXGvCeE8LBz7hoA16vqHcaYOwHcWZblg2hvSpjsc50BMMc5t5kxZouqqrYVke0A7KiqT1LVHdB+DujJH6qmjHPuM8jou0xEri/L8hOY/DPIEhF5H9pdKnI76nMiHyiK4pKqqs5NHWQQdAp//ltE3u2cuwzAuSJyWVmWl6EHC5HOuaeq6n4i8gIAByC/47jXZATA91OHoHyEEK5sNBq/VdXXps4yRVt3CldfpqrBWnsDgGuMMbeo6l2qemcI4V60i09G1+J1ZwDY2Fq7hYhsqarbAdheRHYOITzJGPO/xX4cX/wvA+DZAJ5trf07gJ+FEE4GkN0m3Uaj8e5MO/EviTHemTrEBAoA+wDYx1p7Hdr39hQA2R1R1Wg03qOqOW5CXmSMubuqJjyxlvrAe3+9tfZcEXlF6iyTMBfA+2KMhznnfq6qvw4hXIwurtUMDQ3tVVXVK2KMrwWQ25G5a/ItAGXqEEQ0eFjwk95cEXmbiBxmjLlOVX8mIud5729E+oKFLZ1z30am7Z2LovhLjwaal/fiRbukKSJfcM5t5b3/NIBFqQM1Go0nxhgPy3CSIPXPDxHRZFm0C3H2izGusNY+DOAmEbk6xnitiPzLGPNIWZaL0O4CtBwTf8YVAGYMDw9vEELYQFXnAngi2sUYz+gsLmXXGnotnIwMJ+WmuWVo77D+ceogXTSMdsedZ6kqAAQAy5xzI6raArBIROYDWKGqJdqLLxXaP8cNEZkFYH1VnQdgZoxxSERmAJihqhlsDEyj0+XnFyLy5tRZumgjAM8H8HwRgaqOAli+8r3SeZ8sBDDaee+UaH92W7SPllsPwGxVnSsiQwCGY4wzOv8OgItwq+KcexOA/0qdY4wRETkKa3ncdAjhCmvtJ0XkxB7l6qZhEfkygBcBuDd1mAEiAPYEsKeqtpxzDwO4FcDVVVVdY4y5xxjziLV20YoVK5ahPQacqJjQABgeHh7eoKqqDWKMc2OMOxVFsTva48DHiUhtuvlM4E8hhKtTh6CsVDHGr3aOtKxzMfFYVkR2AbBLZwwaRWSZc24FgJaqLhGRhwEs74xBW2gXohdoj0Fnoj0GnQtgvZVjC7S7WtatyC8pEXkygOOcc+9T1QtU9WdVVV0B4L7U2RqNxitV9ePIb9MlVPXumTNn3r54cbeb8XdP56i6pzrnjlDV8zv39koA96fO5px7jaoegzw3Xd8ZQrgrdY7pTlW/LSIvQbtTXB1sAuC9IvI259zfAZwTY/xLURR3jNkkMxnrNZvNjUII2xdFsaeqHlBV1dMArNer4D10eafTGBFR17HgJx8zAOwhInsAmO+cu0JV/2CMObssy3vQu1bxE7LWPlNETgKwWz+vO1mqOt97/9devHaj0bguhDAfQI7HmAHtn9sjnHO7qeqHQwh/ThVkaGho66qqvpFZK/2VuO2AiOpohohsA2AbAC80xgBAjDE+aK1dICJLACzpLB4HtBd9rIg00H7on+W9nysi80SkLu1sJ2MJgG+DxZzZ8d6f6px7C4B9U2fpEQtgNoDZ44svVleMwUKN/0NF5Euq+hIR2Sh1mB4Z6vxaef8ft/J/4Hule6y1zwTweWTUoSTG+DXv/Tnr8v8NIXyz0Wg8W1UP6XaubhORp1hrjw0hvBn8Pu6FJoAtO7/2K4r2WzzG+FBZlvOdc0sALEW7iNDjsWNAB2Cm934u2pvKNiyKIrvF4HXkO3NT3AlNjxFC+Iu19icikuvRRlNl0D66ZX3gseMFjiv6ZiMROaTz62YAfzbG/K4syz+j3XWpn/OO1lr7NlX9HPI9kvv6xYsXL0wdYpI2FpHXdH7dhPa9/W1Zln9Bu9Nev+/tfwH4DPI9pvBaZLDpOLHkH65VVV1kjLkYwP6ps6ylWQD2ALCHMQYxxvucc/eq6sMA7heRR0RkRYxxZWH7jE4R62xV3VxENqmqanNjzNadgti6igBOQv+O8iWiaYYFP3naEMCLRORFqjraOSrhfBG5RkSua7VaPWsn2mw2t48xvllV34mMz3MXkUvRo/OUR0ZG5jvnLgfw4l68fhc9V0T+6Jz7PoDveu+v7+O1G41G42UhhI91dr5kR0TW5sgNIqKcGRHZDMBmK//DdJvkVdVTQgg9KfSlKRspiuKTVVXthfZiJdGEvPc3NBqNb6jqJ1JnodraCMA3kdfGjCuqqvoM1r0AxovIB2KMu3WO/c6aiLzOOXeR9/5/UmeZLkRkYwAbj/tvq/q9/YjUV6p67roW1NHgK4ri8zHGFwPYPHUWGmwi8gQAT1DVN1tr5wO4CMDFRVFc32q1rgMwv1fXttY+F+1jILM+ykdEannsp4jsDGBnVX1Lp9vyhQAuGXNve7L+AABFUewrIu/pdCvLloj8KXUGAgCMxhi/ZozZDxkUIK0rEdkcwOZjx62qOuE4duV/G5Ax7l8233zzX919992pcxDRgGLBT/6GAOwNYG9tu985d7+q/h3AX4uiuDHGeL/3fjHaxyosR7ul62Q0AMxuNBrzVPVpqvqSGONzAWyR+ZeoquofMfk/59pqqer5IvIi5D94mgHg3QBeY609uyiKn3YeRh7o8nVmAZhnrd0KwP4i8mJVfbqI5PoZUlZVtSJ1CCIi6oqFIvK11CFo1UZHRy90zv0QwH+kzkJ5K8vy29baV4rIU1Jnodqx1tovisiuqYOMsUhVj8QUd2m2Wq27iqI4SkR+jvxb9BdoH3NyZZ83nND0NKqqJ4Dde2kVWq3W7dbaE0TkC6mz0LQhnW6VrwTwys6R3PcD+KeIXAPgWlW9tXMk9xK05+lXYOLjGCcyc2hoaG4IYTMA+6jqSztjn1m9+MN00aKiKP7kfa33XkqnyPYQAIfEGJdPcG//URTF/FartRSrP259IrOGhobmhBA2R+feGmN2Rb4dm1Z6xFp7Xs3vbTdksUZUVdXZInK2iByYOgutFR9jPO7uu+8eTR2EiAZXrov1NDFBe9fK5iKyG4A3xhgBoGWt/VfnLOf5qrpIRJYCWBpjHO10OgkAClVtGmPWU9XZaO+Q3EpVdwAwnHmRz1jzQwh/7OUFQgjnOOc+CmCDXl6nizYWkTfEGN9grb0ZwFUArlfVG4wx9zrnHlqxYsXKYjBBuzWwAdAYHh5uxBiHYoyzVHWWqs42xsxV1Y1FZHNV3VREtlLV7UVky4R/xrWxWEQWpQ5BRERd8QPv/d9Sh6DV895/1lr7wkyP+aR8PGCM+bSq/hwZHclE+bPWvltE3pA6x1iq+sUQwiXdeK2qqn5tjPk6gCO68Xo9tgmAE+bOnfuKBQsWsCU99Yyq/qaqKnYVoNUKIXzLOfdKtI8LIeq3GSLyOLSPct0XaHeiUNWF1tr7RWS+qs4HsERElsUYlwIoO3P1EYBT1WFjzAaqOkdENq2qalsR2Xbla9WBqp47Ojp6X+ocXTZTRHYAsAOA/YD2/YgxLhhzbx9Bew56WYxxGR69twrAquoMY8z6nXu7WefebrPytepAVf8wMjLyYOoc9L9aqvpFEXku8j0CjsZR1V9XVVXLLmhEVB8s+BkMzU777+2Bxw4YjXnsse2D0AZPVS8CcGuPL/N3AJcDeH6Pr9N1K9vMdv7dA2h5771zLqL9MLny5gsACSGsLAAqRKQQkQKAk86bpI7vGVV9OITwcOocREQ0Nap6j3PuS9xNVgt3xRiPKYrih2iPK4gmVJblqdba/ycib0udheqh2WzuF2P8WOocY6nqeSGEbnafU+/9p51zewLYs4uv2yv7L1269EgAH08dhAbWYhH5LCbfFYOmr2WqeqSInIn6bNqjwTdHROYAq5+nH/u/12nedZxKRE5Fe7PxdDBXROYC0+LeBmPMaWCnvaxUVXW+iPxCRN6SOgtNysPGmE8AKBPnIKIBx8l4qpuoqv/Th+sogB9i8m05c+XQbvs6B8A8tLs6bdj5NQ/A3M7/tkHn9w2j3Ua+tk8iACAi/wLAgh8ionpTETl2ZGTkX6mD0OTEGH+mqj9KnYOyF0MIH1PVm1IHoVrYpqqqbwCYnTrIGA+JyJSP8prAIlU9otMJoA7eXxTFC1KHoMEUY/wKj42jyQoh/FlVj0f95/CIakdVb/Xen5k6B3Wfqt5YluXZqXNkIqe1EjXGfE5V70kdhNZMVT9TliXnPoio51jwQ3Xz56qqLuzHhbz353Ahorb+Bu4EJCKqu7O99z9MHYLWSgwhHAOA4ydak/uNMR8A0EodhLI2w1p7QqeDaTZU9dheHTUZQrgMwLG9eO0emGGMORHtY8eJuunqqqpOAIs3aC10uq7xuAyiPjPGfA/dL4KmDBRF8V0Ay1PnyIQgo6Kfsiz/AeCzqXPQGp0ZQvhO6hBEND2w4IfqRAF8E/0baM43xnChsYaMMZzkISKqtwUAPgwWA9TRfcaYd4GTvrQGZVn+XkQ+kzoH5ctae6SIHJw6xzi/7fWkbQjhWwBO7eU1uujx1trPot1ZlqgbRmKMHwKwOHUQqp2lIvJuAHemDkI0XajqP4qi+GXqHNR9qnpzURSnpM5BqxZC+L6qnpY6B63SvZ2usCOpgxDR9MCCH6qT8733fR1olmX5A1X9Rz+vSVOjqre3Wq2rUucgIqJ1pqr6sV51T6Dea7Va56nq0WC3PVqDsiw/LyI/S52D8lMUxUEi8mFktJNWVe8TkX50pmoVRXGkqt7R4+t0hYgc5px7Y+ocNBhijCdUVfXH1DmonsqyvMUY8w6wYIyoL4wxX+cR3APrxBUrVjyQOkRGsnkmGaMMIRytqnelDkL/RwvAkWVZ3pw6CBFNHyz4obpYYYz5NICyz9d9CMCXwVbStSEiv0a7MwQREdWQqp7c6W5ANRZC+DaAb6TOQdkrrbVHArgidRDKyuNF5EQAQ6mDjBFE5JiyLG/px8VGR0fvVtX3o//Pv+vCqupxzrmnpA5CtXdhVVWfSx2C6q3Vav1BVT8BzuMR9drlZVl+P3UI6olLQwg89aAebjPGvBfAaOog9KgY4+e9979KnYOIphcW/FBdfLvVal2Y4sKdAe4FKa5Na20RgJ+nDkFEROtGVa+11r4fQJU6C02Zeu8/qKq/SB2E8rZixYoHROTNqtqXQgrK3izn3NdEZNvUQcYSkV9473/Sz2tWVXU6gJP6ec11JSIbATgRwPqps1Bt3QXgXQCWJs5BAyCE8PUY4+dT5yAaYMtijB8EsDx1EOq6xar6QfAYotooy/J0VT02dQ5qU9WfVVV1XOocRDT9sOCH6uBq7/2xSLc7Z0RVj1HVJYmuT5Okqr/x3v81dQ4iIlp7qroAwOGjo6P3pM5CXbMihPAOAGenDkJ5K8vyRhE5VFX/mToLpeWc+ySAA1LnGEtV7yjL8iMAQp8vHb33nwBwWZ+vu672dc59IHUIqqUREXmv9/7vqYPQwAhVVX0ENSmaJKqbzvGLF6TOQd2nql8KIVySOkeGcjzS63+FED6vquy4ld45IYR3ofdHQBMR/R8s+KHcPayq70DiI5pCCH8BwErpvD1ijPlC6hBERLRORmOM7wkh/Dl1EOq6RY1G400Azk8dhPLmvb8GwOtV9cHUWSgN59xhAN6dOsc4QVWPBnB3ousvVtX3ot3JtA7+u9lsvjB1CKoVVdWPlmV5euogNHAq7/2Rqvqj1EGIBswZVVVx/nUw/SaE8OXUIWidhBDCkQA4nkrnUu/9mwEsTB2EiKYnFvxQzkYBvCeEcGXqIAAQQjhRVX+ZOgdNTFU/V5bljalzEBHRWouq+pEYY1+PSqH+Wb58+YPe+0NV9azUWShvIYSLAByiqnelzkL95Zx7OoAvA3Cps4wVY/xeVVWnpMwQQrhcVT+JdB1v18Z6VVV9GcAWqYNQbXwxhHBC6hA0sEZDCIer6ndTByEaBKp6rff+cPD4xUF0tff+neAxbauSdYefjsXe+/8EcG7qINPQJcaY1wG4L3UQIpq+WPBDuVIR+ZD3/uepg4xRhhDeC+CK1EHosVT1tyGEr6XOQURE6+RzXOiZFh4MIbxOVU9LHYTyFkK4WEReoaq3ps5CfTMPwDcAbJI6yFiqen1VVZ9InQMAQggnqeqvU+eYDBHZ2Vr7WWRWvEX5UdXve+8/CiCmzkIDbXkI4XC0i0qJaN3dLSJvAMAjeAfPHZ17y2KF+nvQe/96sOinny723h/aarXuSh2EiKY3FvxQjryIfKAsyxNTB5nAA977N6nqzamDUJuq/tVa+9/g2ahERHWjAL7gvf84uNAzXSwIIbwBwLfBe06r4b2/RkReAYDH/A2+olMcsmfqIOOMdI7yyuWIuTKEcJSq3pY6yGSIyGHOuTenzkH5UtUfdDZU8Tme+iF4748WkY8CGEkdhqiG7lLV13jvr0sdhLrudgCvZtf8gfKA9/71qvqb1EEGnaqe6r1/FYB7U2chImLBD+VmVFWPKMvyi8i3ZflNIvJqFv2kp6q3ishbRkdH706dhYiI1trnvffHAAipg1BfLffev1NVjwTbhdNqeO9vaDabB6vqj1Jnod6x1v6niLwtdY4JfK2qqrNThxjnDmPM0QDK1EEmoQDwKefcLqmDUH5U9XshhHcBWJY6C00roSzLY0XkjWAXC6JJU9XrAbw8hHB56izUXap6DYCXe++vTp2lBupwpNdYD3Q2W30ndZAB9o0QwpsAPJQ6CBERwIIfyoiq3hdjfF0I4eups6yJ9/56EXmVqnJnQyKqeqOIvNZ7f23qLEREtFa8qh7tvf8wAJ86DCVRhRC+EmN8larekToM5WvZsmUPhxDeqqofArAidR7qLmvtswF8CvlNoF8xa9as45DhBpSyLE8DcFLqHJO0CYCvApiZOghl5YshhHeCRb+USFmWJwM4CMBVqbMQ1cC5RVG83Hv/t9RBqOv+UBTFK7z316cOUhOC/J5Z1mSp9/4dqvpBcNzVTQtU9V3eexavE1FWWPBDubhIRF5SVdWpqYNMlvf+BmvtQQDOSJ1lGjrXGHOw9/6a1EGIiGitPALgP0IIxyPDhVTqr6qqzi6K4gUi8kvwiC9atRBC+FyM8eDOLlQaADNmzNgMwNdFZF7qLOMsVtUjFy5cuDh1kFXx3n8KwGWpc0zSPs65Y1C/BRLqvuWq+n7v/YdQjy5VNMC891d77w8EcCJ4xBfRREYBfNl7/6pWq3V76jDUVaMAjvfeH9Jqte5KHYZ6LoYQPh9jfA2Af6QOMwCuVtWXhxC+kToIEdF4LPiZOv4dTs1yAMd5719Wx+KN0dHRu733h8YYvwSgSp1nGggxxhO994eUZclBKhFRjajqDap6sPf+B6mzUD5ardZtZVkepqqHq+oDqfNQvqqq+mMI4YUAvg6Ou+tuqCzLE0Qku+OeROSLIYRLUudYg4Wq+l5VXZA6yCS9p9FovDB1CEpHVe+OMR4aQvgSeJQr5WO+9/69McZDVfXm1GGoq2zqAHWmqjfHGA/13h8JILcCaN7bKVDVG2KMr/beHw1gaeo8NVPr4vWqqs4wxrxAVX+aOktNeQAneu8PDCFclDoMEdFEWKwyRTHG+arK1m3r5g9FUbzIe38MgEWpw0zB0qqq3i8ih6oqi1B6RFWvE5FDqqp6L+r9fiEimnZU9achhANrsIhKacQQwrdF5Hmq+jNw5/9UDfJE+EPe+3eLyMGoT4eTnBUpLmqtfY+IvCbFtdfg/LIsv5I6xGSEEC4HcGzqHJM0I8Z4wvDw8Bapg1D/qeoZxpgDq6r6XeosRBOpqur0EML+AL6iqrkVN9SKqrrUGdDuIvvP1CHqqFNI/CXn3P5VVf0mdZ4JqKrenTpEHanqIwA+H0J4Hr+Pp69Wq3VnCOGNAN7ENay1cmWM8RXe+/cCeDh1GCKiVWHBzxRVVfVHEfk3AMep6m3gcQRrJCLXAjjMe3/w6OjowFTElmV5srV2fwDfArAidZ4Bcr+IfDyE8PyyLH+TOgwREa2Ve1X1v0IIbwZwT+owlDfv/Q0hhNeJyCvAYo519S8AA19YV5bl7733B4rI+8DPlnVRqup1AP7e7ws3m80XishH+33dSXgQwPsB1GYzTwjhG6r669Q5JkNEHu+9Px5ADovB1B8LRORDIYRXl2V5U+owRGtwn/f+fQBeCOAMsBPVupgvIuejfVxQSuq9PybGeJCq/hLtI6Vp9Vqq+ksROcB7//6RkZH7UgdahRhC+GCM8WWqejJ4bydjVFV/LiLP895/EAA76lLlvf9hp9D1S8ivi1dO7lPVo733L6iq6vepwxARrQkLfqau7Jz9fEwI4RkA3qCqp6F9VBU91s0i8oHh4eF/897/HOkfArtudHT0Hu/9O2KMLwHwh9R5au4+AMcbY/Ypy/JTaE/CExFRPaiq/kRE9gshfBvt9rdEk6FlWZ7hvX+eqv6Xqv4tdaAaKAGcCeA/nHPPCCF8JXGefllUluVXjDHPBXA8OFacjIdU9QcickgI4VkhhAv7fP3tYozfADCzz9ddI1U9znv/19Q51lIZQjgCwJ2pg0yGiBxmrX1L6hzUF78D8LyyLD8HboaiGgkhXOa9P0hEDgNwQeo8NXGxqh5ljNnDe38E8ujUOb+qqt+FEF4rInup6ocAXJE6VIYUwFki8soQwmtrMg56uKqq34YQXi0ie6vqMQCuSh0qQxHAGcaYl4cQDvPe/y11oAFQ6yO9JnCP9/79qvo8Vf0xgFbqQBl5BMAXjDHPDiEcD2Bh6kBERJMxyO3eU1jsvf8pgF82Go3HAXiZqr4MwC7IcFKzj65S1e8NDQ2dtmzZsofLModnv96qqur8qqouK4ri+SLyLhF5DoBm6lw1EFT1OmPMz40xvxodHWUbXiIaGKp6p4icDeBlADZPnaeHLogxfqGqqnPA3bG07pZ3isVOttYeAuA/ReTpqUNlZBmAmwD8EcDJ3vubALS8n361da1W604ARzebze/EGN+uqoeKyNapc+VCVR8QkeuNMb8GcFar1borUZQZzrmvAdg+0fVXSVV/F0L4Tuoc6+guETlKVX+KGjxvisjHnXNX1mRRsWtU9SEROVVVXyAi2f0MdNFVAL7kvf8NBnCDF00bsSzLkwGcWRTFgcaYdwPYC5xDX6lU1VtE5CJV/UUI4VoAS0PI87GvLMtbAXwOwLestbuIyGtUdT8ReXzqbAktVtU/qupJVVX9BTX9vC7L8hYAxwE4qSiKpxljXquq+4rITqmzJbRIVf8A4JshhMvAIg5agxDCVQDeZK09CcA7AbxARDZKHCsJVb1LRE4Tke90Pl+IiGqFDyu9ETpfCscD+LK1dg8ReYGqvlxEdkANJuK6YAmAP8UYf1ZV1VkAli9bVpvu6N0yUlXV6QB+XxTF/iLyehF5KYANUgfLTKWq94nI72OMv6uq6kJwFyARDaZF3vvDG43GV6uqekPne2HL1KG6pEL7CKaTvPenoaaThpSlBZ3Cn18YY15QFMXrAewHYEbiXCmsAHCNqv4OwCWdyTlO4na0Wq3bAXyw2Wx+p6qqgwC8XkSeiun3zKsAFgC4EMCZxpi/lGV5Y+JMKIriIwBenDrHeKp6vzHmKNT4e6ssy9Occ98C8J7UWSZhMwAnAHgp2nMG00XLe//BoaGhz4cQ/h3AWzqFP4OwW1xV9ToROcl7/wtMr/tKg215VVWnVFX1u6Io9hWRwzpzerNTB0tgVFVv6YxBL6iq6krU72d9Uaez4YUANi6K4jlFUbxMVV8AYCMMxufx6kRV/aeqniYivwohXJ46UBctqqrqgqqqLgCwSefeHqyqB2D63Nu7VfVUETk5hMBuVr0xyO+j2CkQu8w591QArwHwWgDbYbD/3ADgVfV6AD8piuLXCTfHEBFN2XSb/EwhhBAuAXAJgOOstbur6ouNMfsA2B1AkTZeVwUAl6rqWUVRnNpqte5Au4XkdFd1uhycA2AHa+0hIvJCAHsAaKSNlkxU1b+JyJUico73/nwMZnvE3O7vUOoAk6WqTiSrZ4ohVc36GExVNSKS2z12qQNkxgBolGV5M4APz5o164TR0dFXAHiFiDwX9SwIXq6qf1LVH3bOtB7kNn4GeX2OWlUdpHHkmiyOMf4qxniKtXZXVT1MRPYTkV1SB+slVb0JwLUALhORc733t4JH5K1W5xnkKwC+XRTFASLyagD7iMhWaZP11AiA6wBcA+BSa+35IyMj9yOTZzHn3OsBfDB1jgmoiHxkAHZwqvf+k865vdCeY8jdPs65T3rvj8L06QQoAIZGR0fvRqcbgXPuJap6iIjsB2BW2njrxKN95NFPQginYrCPtRfkNQYE8ptrGGStqqrOBnB2o9HYKcZ4qIg8H8CzMFhzuo+hqnehPQa9AsCfOp18alscO85DVVWdWlXVqQA2ds49T1VfCGDvQevCpqoPAzhPRE4PIZwFYFHiSL32YKdQ75SZM2duUpblAWPu7bapw3WTqj4I4HwR+XUI4Q8AFqfO1EW5zb0A0+R713t/HdrPlV9wzr1IVV8hIs8GsEniaF2lqrcDuFBVf9UpFmzl2qmuB3Kcq896zWUCuX0eDKlqVgtplAbfBOlsYK19PIB9O8UfO6GGx3uo6r0icpOqng3gohDCTRjsiZ5umeWce7yqPr9z/3dEe7fjoFrYaWP+d1U9H8DlIYQ70T4TdVBJo9F4fIwxm45OIhK899cgk8Wf1Wk2m9tVVbVx6hxjVDX4fFu/872SzSDZWvtAZ2Ej1fWf1TlCa3aqDGOp6rUhhGfi/xbFNJ1zT+58J7wE7THBhv1POGkrVPU2EfktgFO999ej3eFn0OX2M6YhhNvQ7uQxXW1UFMVTjDEHq+rzOh2z1ksdagoWqup8EblVVS8EcEmj0bhrxYoV96cOVnfNZnPbGOOzALxKVXcXkc2R50TXZFQA5qvqQ8aYa1X1PABXee/vQaaLOI1GY8cY44bIbAwqIqX3/u8YkCK64eHhzb33dShsExEZ7Swo9OQ90XnPnZdLJ0VVvTeEsBuAh8b9T4Vz7omqun+nc8iTkPeCSqmqd4jIWar6yxDC3zA9Os3NcM7trKrZbJo0xiwoy/IfqXNMY+tba3dW1ZeIyItFZBsAc1OHmoIlnTHoXTHGSwBc4Jy7fXR09B60OwdOC0NDQ1vFGHdR1Reo6j6d+5rNnN4krVDVe40xl6nqWSJyNT8rgKGhoa079/aFqvqczvG/dbu3y1X1X8aYv6jqWcaYq1ut1m2pQ/XI+tbaJyCjtUtjzJLO5r1p85m4UrPZ3CHG+EwAr1DVXUVkM+RXkLUmy1T1XwD+bIz5dVEU14yMjNybOlQKQ0ND24QQNk2dY6wQwvWoz4kf0mw2H1dV1bzUQVbqrPn9HdPjuYxWI5svzemu2WxuH2PcA+2uL3uhPdGT2xdnBDAf7R0efwNwtff+LwD+mTLUIBgzcHoagGeq6lNFZDbq9zOqAFqdnUA3q+oNxphbVPWmEMINaO8+JiLqixoV/DyGc24XVd0LwG4A9hSRxyP97tEVAK4CcFGM8YKqqi7GYHfzofqZYa3dDcAz0B5L7yUimyKfAq3xfGfC6WYRuRbADZ3xUu7FpYNgk6IonmmM2V1V9xaR3QCsjzzH3Yr2ws1dAG4E8DdjzM0AbizL8lZkVkBDlIsaFfw8RqPReEJnDPgMVd1TRJ6I9DtIS7Tnfy6IMV7UOYJ72p3XTrQa1lr7NHSe3QA8u9NJJPXz26pUqvqgiNyK9vzu38eMQafzRoLxrLX2GWh3ctoDwB6dIpHcni28qt4J4BpjzLVVVV1RVdVl4PPE6rjOvV25DvOsTifQHO/tHXjsvb0cvLeU1tyiKJ4pIruLyG6dAqAtkN/PT6WqdwO4Eu25zCtDCFeiPkUlRERrLcdJTWrvTN640Wjsoqq7qerOnV2om6C947/X7Z5HATzcafv5EIB70W7ld2VnJ/kyDE4b1xwNo13JviOAp3Um+bZT1U1EZB6AeQBmJsoW0G4RukRVF6E9GfCwiNwN4PYY421VVd2O9lneyzEgu2WJqJ7qWvAzzgYAtnLO7Qrgqar6eABbiMgmaO8i7UVx8CIA9wP4F4AbAFzmvb8CwAPgwzHVgwWwgXNuWwC7dn7t1BlLbYT2eLrXE1IlgEWqulBEFqnqAhG5W1VvVtVbqqq6Fe2fteXgLpyUhgHMbjabO1dVtSvaY+9tVXXjzntldh8yLMdj3ysPi8jtaBfP3xJCuKPze5ZhenRTI5qyuhb8jLMegM2cc7uhPQZ8QufPsynaY8AZPYi6BO3x3n1oFxle4b2/DO0xIYt8iNZMAMx2zm2B9oa+3QDsrKqbiciGADZC7zsMVgAWoj3OXKiqC9Ge171ZVW8piuLWsiwfRvu5jpvyJqfAo88WuwHYVVW3B7CpiGyM9jxtr+/rIgAPoz1f/1BnrHi1iPy1LMsHASwFx4nrYuW93Q7te/v0zr3dbMxzY6+7uy1C+94+NMG9fQi8t5QvB2C9zs/P09BuYLDTmO+8fqxhLUe7QcHDqnq/qt5ijPk7gGs6HXCXgD8/RDRNsOCnPmY1m82Nq6qaq6pzjTGbdL48N1XVuQDmiMj6AGaq6jCAJtqD1gLtnaElgFJEWp1/b+HRlq3zO/98OMY4X0TmF0Uxv9VqzUembeGnqTnNZnNu5z0w2xizkapu2nkAmaOqc0RkA7QHUsOd94HDo+8Dg/YuYEV7oOMBeBFZ+X5YoaorAKwQkSUAlojI4hjjws77YrGILBWRpcaYJa1WazHakwhERFkakIKficxtNBobxRjnqOo8EdmyUxg8t/NdMA/ABqo6hPaucNf5p6BduFkCGO0sLC8E8Igx5l+q+s8Y433GmAedcw/yGCEaMIJ2Qf28GOOGnTH0liKyoapuCGDDzs/OsKo20B5LN9AeQwV0xk1oj508Hh1LLxSRRWgXbCwSkQUxxodEZJExZlFZlovxaGEP1cMQgI2cc/NijPOMMVuKyOaqOk9VN+xMXs5G+5z0se8VQfvzdez7xAMYUdXFABaJyCIRWdQZXz8iIg+JyGJjzOKyLBehXVjPAjCiKRqQgp+JbNBoNDbujAHnGmO2EJEtVXXlGHAugNmduYAGHh0HGjz6XTYqIotXjgFF5D4A98QY7zXGPGStfXBkZOR+cHGEqJs2XDkG7RQVb7WymKAztpiH9nzuyjFFA+0igwrtsUVAe0535bPc0rFj0JXPdZ0x6AIRWVwUxeLR0dFFaC92Um9s2Hkun9t5Lt/MGLOpqm7c+UyeA2CWqs5Au8h85bPFys/kEkCrMy9boj1mXCgi89E+vvVhEZkfY3zYGPNIURTzR0dH54OFWv2wUaPR2LBzbzcUkU07xxhtpKpzO1351+t8387Ao/PvE93bFoDRzr19GI+9t/ONMfOttfNHRkbmgxusaTDMbjab88atY24iIhur6kYA1heR9QCs3/l8tGj/DK0srqvQGbeKyAja8y7LACwWkYdF5EFVfTDG+KCIPFIUxSOtVusRtJ+liYimLRb8DCaZ4N913D9p8E30PlhJV/HvREQDY4ALftaGjPsnxwNEkzP2Z4fjJloVfsYSZWiAC37Wxvj5AH4+EdUDx6CDiWPGwcV7S7TuVreOOf7fiYhoNXrdkpDS4JciAXwfEBERJ5uI1hV/dmgy+D4holxxPoConji2GEy8r4OL95Zo3XG8SkTUJSZ1ACIiIiIiIiIiIiIiIiIiIiIimjwW/BARERERERERERERERERERER1QgLfoiIiIiIiIiIiIiIiIiIiIiIaoQFP0RERERERERERERERERERERENcKCHyIiIiIiIiIiIiIiIiIiIiKiGmHBDxERERERERERERERERERERFRjbDgh4iIiIiIiIiIiIiIiIiIiIioRljwQ0RERERERERERERERERERERUIyz4ISIiIiIiIiIiIiIiIiIiIiKqERb8EBERERERERERERERERERERHVCAt+iIiIiIiIiIiIiIiIiIiIiIhqhAU/REREREREREREREREREREREQ1woIfIiIiIiIiIiIiIiIiIiIiIqIaYcEPEREREREREREREREREREREVGNsOCHiIiIiIiIiIiIiIiIiIiIiKhGWPBDRERERERERERERERERERERFQjLPghIiIiIiIiIiIiIiIiIiIiIqoRFvwQEREREREREREREREREREREdUIC36IiIiIiIiIiIiIiIiIiIiIiGqEBT9ERERERERERERERERERERERDXCgh8iIiIiIiIiIiIiIiIiIiIiohphwQ8RERERERERERERERERERERUY2w4IeIiIiIiIiIiIiIiIiIiIiIqEZY8ENEREREREREREREREREREREVCMs+CEiIiIiIiIiIiIiIiIiIiIiqhEW/BARERERERERERERERERERER1QgLfoiIiIiIiIiIiIiIiIiIiIiIaoQFP0RERERERERERERERERERERENcKCHyIiIiIiIiIiIiIiIiIiIiKiGmHBDxERERERERERERERERERERFRjbDgh4iIiIiIiIiIiIiIiIiIiIioRljwQ0RERERERERERERERERERERUIyz4ISIiIiIiIiIiIiIiIiIiIiKqERb8EBERERERERERERERERERERHVCAt+iIiIiIiIiIiIiIiIiIiIiIhqhAU/REREREREREREREREREREREQ1woIfIiIiIiIiIiIiIiIiIiIiIqIaYcEPERERDSoB0EgdYoycshARERENqhzHgJI6BBERERERERENHps6ABEREVEvGGOWqOoFANYDoInjCIB/AIiJcxARERENtKIoVsQYLwawMfIYAz4EoEycg4iIiIiIiIgGEHcYERER0aAqAAwjn/FOBWBF6hBEREREA86gPQbMpat1RHsMmLr4iIiIiIiIiIiIiIiIiIiIiIiIiIiIiIiIiIiIiIiIiIiIiIiIiIiIiIiIiIiIiIiIiIiIiIiIiIiIiIiIiIiIiIiIiIiIiIiIiIiIiIiIiIiIiIiIiIiIiIiIiIiIiIiIiIiIiIiIiIiIiIiIiIiIiIiIiIiIiIiIiIiIiIiIiIiIiIiIiIiIiIiIiIiIiIiIiIiIiIiIiIiIiIiIiIiIiIiIiIiIiIiIiIiIiIiIiIiIiIiIiIiIiIiIiIiIiIiIiIiIiIiIiIiIiIiIiIiIiIiIiIiIiIiIiIiIiIiIiIiIiIiIiIiIiIiIiIiIiIiIiIiIiIiIiIiIiIiIiIiIiIiIiIiIiIiIiIiIiIiIiIiIiIiIiIiIiIiIiIiIiIiIiIiIiIiIiIiIiIiIiIiIiIiIiIiIiIiIiIiIiIiIiIiIiIiIiIiIiIiIiIiIiIiIiIiIiIiIiIiIiIiIiIiIiIiIiIiIiIiIiIiIiIiIiIiIiIiIiIiIiIiIiIiIiIiIiIiIiIiIiIiIiIiIiIiIiIiIiIiIiIiIiIiIiIiIiIiIiIiIiIiIiIiIiIiIiIiIiIiIiIiIiIiIiIiIiIiIiIiIiIiIiIiIiIiIiIiIiIiIiIiIiIiIiIiIiIiIiIiIiIiIiIiIiIiIiIiIiIiIiIiIiIiIiIiIiIiIiIiIiIiIiIiIiIiIiIiIiIiIiIiIiIiIiIiIiIiIiIiIiIiIiIiIiIiIiIiIiIiIiIiIiIiIiIiIiIiIiIiIiIiIiIiIiIiIiIiIiIiIiIiIiIiIiIiIiIiIiIiIiIiIiIiIiIiIiIiIiIiIiIiIiIiIiIiIiIiIiIiIiIiIiIiIiIiIiIiIiIiIiIiIiIiIiIiIiIiIiIiIiIiIiIiIiIiIiIiIiIiIiIiIiIiIiIiIiIiIiIiIiIiIiIiIiIiIiIiIiIiIiIiIiIiIiIiIiIiIiIiIiIiIiIiIiIiIiIiIiIiIiIiIiIiIiIiIiIiIiIiIiIiIiIiIiIiIiIiIiIiIiIiIiIiIiIiIiIiIiIiIiIiIiIiIiIiIiIiIiIiIiIiIiIiIiIiIiIiIiIiIiIiIiIiIiIiIiIiIiIiIiIiIqIv+PwvbcFmDDqrSAAAAAElFTkSuQmCC;" parent="1" vertex="1">
          <mxGeometry x="-738.92" y="160" width="336.03" height="90" as="geometry" />
        </mxCell>
        <mxCell id="nzHH21q8slYw_IF0dqfJ-8" value="&lt;font face=&quot;Maven Pro&quot; data-font-src=&quot;https://fonts.googleapis.com/css?family=Maven+Pro&quot;&gt;Example analysis pathways&lt;/font&gt;" style="text;html=1;align=center;verticalAlign=middle;resizable=0;points=[];autosize=1;strokeColor=none;fillColor=none;fontSize=30;fontFamily=Maven Pro;fontSource=https%3A%2F%2Ffonts.googleapis.com%2Fcss%3Ffamily%3DMaven%2BPro;" parent="1" vertex="1">
          <mxGeometry x="-744" y="240" width="400" height="50" as="geometry" />
        </mxCell>
        <mxCell id="34XCymCDlDvmFXix4drP-8" value="" style="endArrow=none;html=1;rounded=1;strokeWidth=10;strokeColor=#24B064;" parent="1" edge="1">
          <mxGeometry width="50" height="50" relative="1" as="geometry">
            <mxPoint x="-402.58" y="763" as="sourcePoint" />
            <mxPoint x="-312.58000000000004" y="763" as="targetPoint" />
          </mxGeometry>
        </mxCell>
        <mxCell id="34XCymCDlDvmFXix4drP-11" value="" style="shape=stencil(nVPBbsMgDP0ajkNgjzU7Tun2H6ylC1oKEaFt9vcjMZ2alkzdLC4828/m2TCs+0Z3hoHQfWc2keGaARx1sPq9TTAkT0MgcgWrZBWhJ0JBcvk0GqF9DP7TnOw25izrGhNsHL34ysRLihkP1hvvXCpovetnngt/ItPWpVwxEJmgIl90k3TrEv/eRBNmKIO3u2nl/2mxTsjSU7De+WA+gj+4bbGZnW1bUuyXjjs9annjOLv3/mguFOJzja6GVq7xo80hEJekZMXheRyuypSyyDlAOTrDwFFIEI/KPIi8JANmTQVXFSbLGbiY8be+peLV6qrpUhtQCIfyG7G47eeO71J5WpWFYaZvuLQGU9rNHk0ofd0J+AY=);whiteSpace=wrap;html=1;fillColor=none;strokeColor=#AE63FA;strokeWidth=10;" parent="1" vertex="1">
          <mxGeometry x="-649" y="386.5" width="260" height="47.5" as="geometry" />
        </mxCell>
        <mxCell id="34XCymCDlDvmFXix4drP-15" value="" style="shape=stencil(nVTbboMwDP0aHhs5NiHwOLHtP1ibrtFoQIFe9vczJGiL2m5rrbxwbB/7OCYZ1cOu6U2G0Ay9WY8ZPWeIx8bb5q1lGNmzC6DMhWSDPKCngGIpcDIZ0GH03Yc52c0Ys6zbGW/HyUsvGTxxzHSoXnfOcUHbuSHx/PAzWWMd58I5kEEo8hkbCl898+/NaHyCZvj6b1qZ0MI9tFQzcksK1dvOm3ffHdzmajNb27ZhYr903DfTLC8ci3vfHc23lFzoIi/LiswKdDqt9PquV1tIW+tSUqCiosf51gcfupQhWYtCapCoIqW8ynnGCINQJbHF6AWWQqsK8zJGU0qiIBrGNFpqg5qtivaIAMkKiOcsUwEoSMkyX7ZlEYAgNCpQMhWwAgFASuWFTiUgCaZRUqedc/j9l7f8oOnt/UE1r/WNxeMn49bKzmkXOz+j4ZmZgS8=);whiteSpace=wrap;html=1;strokeWidth=10;fillColor=none;strokeColor=#AE63FA;" parent="1" vertex="1">
          <mxGeometry x="-728" y="434.0000000000001" width="80" height="40" as="geometry" />
        </mxCell>
        <mxCell id="34XCymCDlDvmFXix4drP-17" value="" style="shape=stencil(nVTbboMwDP0aHhs5NiHwOLHtP1ibrtFoQIFe9vczJGiL2m5rrbxwbB/7OCYZ1cOu6U2G0Ay9WY8ZPWeIx8bb5q1lGNmzC6DMhWSDPKCngGIpcDIZ0GH03Yc52c0Ys6zbGW/HyUsvGTxxzHSoXnfOcUHbuSHx/PAzWWMd58I5kEEo8hkbCl898+/NaHyCZvj6b1qZ0MI9tFQzcksK1dvOm3ffHdzmajNb27ZhYr903DfTLC8ci3vfHc23lFzoIi/LiswKdDqt9PquV1tIW+tSUqCiosf51gcfupQhWYtCapCoIqW8ynnGCINQJbHF6AWWQqsK8zJGU0qiIBrGNFpqg5qtivaIAMkKiOcsUwEoSMkyX7ZlEYAgNCpQMhWwAgFASuWFTiUgCaZRUqedc/j9l7f8oOnt/UE1r/WNxeMn49bKzmkXOz+j4ZmZgS8=);whiteSpace=wrap;html=1;strokeWidth=10;fillColor=none;strokeColor=#fa6863;" parent="1" vertex="1">
          <mxGeometry x="-724" y="443.0000000000001" width="80" height="40" as="geometry" />
        </mxCell>
        <mxCell id="34XCymCDlDvmFXix4drP-18" value="" style="endArrow=none;html=1;rounded=1;strokeWidth=10;strokeColor=#FA6863;" parent="1" edge="1">
          <mxGeometry width="50" height="50" relative="1" as="geometry">
            <mxPoint x="-648" y="443" as="sourcePoint" />
            <mxPoint x="-388" y="443" as="targetPoint" />
          </mxGeometry>
        </mxCell>
        <mxCell id="34XCymCDlDvmFXix4drP-20" value="" style="shape=image;verticalLabelPosition=bottom;verticalAlign=top;imageAspect=0;aspect=0;image=data:image/svg+xml,PHN2ZyB4bWxucz0iaHR0cDovL3d3dy53My5vcmcvMjAwMC9zdmciIGlkPSJzdmc3MzYyIiB2ZXJzaW9uPSIxLjEiIHZpZXdCb3g9IjAgMCA2LjYxNTEwMDkgNy45Mzc1IiBoZWlnaHQ9IjcuOTM3NW1tIiB3aWR0aD0iNi42MTUxMDA5bW0iPiYjeGE7ICAmI3hhOyAgICAmI3hhOyAgJiN4YTsgIDxkZWZzIGlkPSJkZWZzNzM1OSIvPiYjeGE7ICA8ZyB0cmFuc2Zvcm09InRyYW5zbGF0ZSgtNjAuODUzNjUxLC01Mi45MTYxNDgpIiBpZD0ibGF5ZXI5Ij4mI3hhOyAgICA8cGF0aCBkPSJtIDYwLjg1MzY1LDUyLjkxNjE1IHYgNy45Mzc1IEggNjMuNSBMIDY3LjQ2ODc1LDU2Ljg4NTQxNyA2My41LDUyLjkxNjY2NyB2IC01LjE3ZS00IHoiIHN0eWxlPSJjb2xvcjojMDAwMDAwO2ZpbGw6IzAwMDAwMCIgaWQ9InBhdGgyNTAwLTUtMjItMiIvPiYjeGE7ICA8L2c+JiN4YTs8L3N2Zz4=;points=[[0,0.5,0,0,0],[0.78,0.5,0,0,0],[1,0.5,0,0,0]];fontFamily=Helvetica;fontSize=11;fontColor=default;" parent="1" vertex="1">
          <mxGeometry x="-760" y="458" width="47" height="50" as="geometry" />
        </mxCell>
        <mxCell id="34XCymCDlDvmFXix4drP-28" value="INPUTS" style="text;html=1;align=center;verticalAlign=middle;resizable=0;points=[];autosize=1;strokeColor=none;fillColor=none;fontSize=17;fontFamily=Inter;fontSource=https%3A%2F%2Ffonts.googleapis.com%2Fcss%3Ffamily%3DInter;fontStyle=1" parent="1" vertex="1">
          <mxGeometry x="-740" y="590.5" width="90" height="30" as="geometry" />
        </mxCell>
        <mxCell id="34XCymCDlDvmFXix4drP-54" value="" style="group;fontSize=16;" parent="1" connectable="0" vertex="1">
          <mxGeometry x="-623" y="340" width="212.00000000000003" height="36" as="geometry" />
        </mxCell>
        <mxCell id="34XCymCDlDvmFXix4drP-12" value="&lt;font data-font-src=&quot;https://fonts.googleapis.com/css?family=Maven+Pro&quot;&gt;&lt;b&gt;EAtlas&amp;nbsp;accession IDs&lt;/b&gt;&lt;/font&gt;" style="text;html=1;align=center;verticalAlign=middle;resizable=0;points=[];autosize=1;strokeColor=none;fillColor=none;fontSize=15;fontFamily=Inter;fontSource=https%3A%2F%2Ffonts.googleapis.com%2Fcss%3Ffamily%3DInter;fontStyle=0" parent="34XCymCDlDvmFXix4drP-54" vertex="1">
          <mxGeometry x="26.00000000000003" y="2" width="170" height="30" as="geometry" />
        </mxCell>
        <mxCell id="34XCymCDlDvmFXix4drP-111" value="" style="shape=image;verticalLabelPosition=bottom;labelBackgroundColor=default;verticalAlign=top;aspect=fixed;imageAspect=0;image=data:image/svg+xml,PHN2ZyB4bWxucz0iaHR0cDovL3d3dy53My5vcmcvMjAwMC9zdmciIHZpZXdCb3g9IjAgMCAyNCAyNCIgaGVpZ2h0PSIyNCIgd2lkdGg9IjI0Ij48cGF0aCBkPSJtMTIgMTZsLTUtNWwxLjQtMS40NWwyLjYgMi42VjRoMnY4LjE1bDIuNi0yLjZMMTcgMTF6bS02IDRxLS44MjUgMC0xLjQxMi0uNTg3VDQgMTh2LTNoMnYzaDEydi0zaDJ2M3EwIC44MjUtLjU4NyAxLjQxM1QxOCAyMHoiIGZpbGw9ImN1cnJlbnRDb2xvciIvPjwvc3ZnPg==;" parent="34XCymCDlDvmFXix4drP-54" vertex="1">
          <mxGeometry x="2" y="1" width="34" height="34" as="geometry" />
        </mxCell>
        <mxCell id="34XCymCDlDvmFXix4drP-68" value="" style="group;fontSize=15;fontStyle=1;fontFamily=Inter;fontSource=https%3A%2F%2Ffonts.googleapis.com%2Fcss%3Ffamily%3DInter;" parent="1" connectable="0" vertex="1">
          <mxGeometry x="-430.77000000000004" y="386.5" width="177.23000000000002" height="34.5" as="geometry" />
        </mxCell>
        <mxCell id="34XCymCDlDvmFXix4drP-26" value="&lt;font&gt;&lt;b&gt;EAtlas datasets&lt;/b&gt;&lt;/font&gt;" style="text;html=1;align=center;verticalAlign=middle;resizable=0;points=[];autosize=1;strokeColor=none;fillColor=none;fontSize=15;fontFamily=Inter;fontSource=https%3A%2F%2Ffonts.googleapis.com%2Fcss%3Ffamily%3DInter;fontStyle=0" parent="34XCymCDlDvmFXix4drP-68" vertex="1">
          <mxGeometry x="42.23000000000003" y="4.5" width="130" height="30" as="geometry" />
        </mxCell>
        <mxCell id="34XCymCDlDvmFXix4drP-112" value="" style="shape=image;verticalLabelPosition=bottom;labelBackgroundColor=default;verticalAlign=top;aspect=fixed;imageAspect=0;image=data:image/svg+xml,PHN2ZyB4bWxucz0iaHR0cDovL3d3dy53My5vcmcvMjAwMC9zdmciIHZpZXdCb3g9IjAgMCAyNCAyNCIgaGVpZ2h0PSIyNCIgd2lkdGg9IjI0Ij48cGF0aCBkPSJtMTIgMTZsLTUtNWwxLjQtMS40NWwyLjYgMi42VjRoMnY4LjE1bDIuNi0yLjZMMTcgMTF6bS02IDRxLS44MjUgMC0xLjQxMi0uNTg3VDQgMTh2LTNoMnYzaDEydi0zaDJ2M3EwIC44MjUtLjU4NyAxLjQxM1QxOCAyMHoiIGZpbGw9ImN1cnJlbnRDb2xvciIvPjwvc3ZnPg==;" parent="34XCymCDlDvmFXix4drP-68" vertex="1">
          <mxGeometry x="16.77000000000004" y="3" width="34" height="34" as="geometry" />
        </mxCell>
        <mxCell id="34XCymCDlDvmFXix4drP-69" value="" style="endArrow=none;html=1;rounded=1;strokeWidth=10;strokeColor=#FA6863;" parent="1" edge="1">
          <mxGeometry width="50" height="50" relative="1" as="geometry">
            <mxPoint x="-275.75" y="482.20000000000005" as="sourcePoint" />
            <mxPoint x="-103.76999999999998" y="482.20000000000005" as="targetPoint" />
          </mxGeometry>
        </mxCell>
        <mxCell id="34XCymCDlDvmFXix4drP-70" value="" style="endArrow=none;html=1;rounded=1;strokeWidth=10;strokeColor=#24B064;" parent="1" edge="1">
          <mxGeometry width="50" height="50" relative="1" as="geometry">
            <mxPoint x="-275.75" y="492.20000000000005" as="sourcePoint" />
            <mxPoint x="-103.76999999999998" y="492.20000000000005" as="targetPoint" />
          </mxGeometry>
        </mxCell>
        <mxCell id="34XCymCDlDvmFXix4drP-72" value="" style="endArrow=none;html=1;rounded=1;strokeWidth=10;strokeColor=#AE63FA;" parent="1" edge="1">
          <mxGeometry width="50" height="50" relative="1" as="geometry">
            <mxPoint x="-275.75" y="472.5" as="sourcePoint" />
            <mxPoint x="-103.76999999999998" y="472.5" as="targetPoint" />
          </mxGeometry>
        </mxCell>
        <mxCell id="34XCymCDlDvmFXix4drP-77" value="" style="endArrow=none;html=1;rounded=1;strokeWidth=10;strokeColor=#FA6863;" parent="1" edge="1">
          <mxGeometry width="50" height="50" relative="1" as="geometry">
            <mxPoint x="-159.76999999999998" y="482.20000000000005" as="sourcePoint" />
            <mxPoint x="12.210000000000036" y="482.20000000000005" as="targetPoint" />
          </mxGeometry>
        </mxCell>
        <mxCell id="34XCymCDlDvmFXix4drP-78" value="" style="endArrow=none;html=1;rounded=1;strokeWidth=10;strokeColor=#24B064;" parent="1" edge="1">
          <mxGeometry width="50" height="50" relative="1" as="geometry">
            <mxPoint x="-159.76999999999998" y="492.20000000000005" as="sourcePoint" />
            <mxPoint x="12.210000000000036" y="492.20000000000005" as="targetPoint" />
          </mxGeometry>
        </mxCell>
        <mxCell id="34XCymCDlDvmFXix4drP-79" value="" style="endArrow=none;html=1;rounded=1;strokeWidth=10;strokeColor=#AE63FA;" parent="1" edge="1">
          <mxGeometry width="50" height="50" relative="1" as="geometry">
            <mxPoint x="-159.76999999999998" y="472.5" as="sourcePoint" />
            <mxPoint x="12.210000000000036" y="472.5" as="targetPoint" />
          </mxGeometry>
        </mxCell>
        <mxCell id="34XCymCDlDvmFXix4drP-82" value="" style="endArrow=none;html=1;rounded=1;strokeWidth=10;strokeColor=#FA6863;" parent="1" edge="1">
          <mxGeometry width="50" height="50" relative="1" as="geometry">
            <mxPoint x="-43.789999999999964" y="482.20000000000005" as="sourcePoint" />
            <mxPoint x="128.19000000000005" y="482.20000000000005" as="targetPoint" />
          </mxGeometry>
        </mxCell>
        <mxCell id="34XCymCDlDvmFXix4drP-83" value="" style="endArrow=none;html=1;rounded=1;strokeWidth=10;strokeColor=#24B064;" parent="1" edge="1">
          <mxGeometry width="50" height="50" relative="1" as="geometry">
            <mxPoint x="-43.789999999999964" y="492.20000000000005" as="sourcePoint" />
            <mxPoint x="128.19000000000005" y="492.20000000000005" as="targetPoint" />
          </mxGeometry>
        </mxCell>
        <mxCell id="34XCymCDlDvmFXix4drP-84" value="" style="endArrow=none;html=1;rounded=1;strokeWidth=10;strokeColor=#AE63FA;" parent="1" edge="1">
          <mxGeometry width="50" height="50" relative="1" as="geometry">
            <mxPoint x="-43.789999999999964" y="472.5" as="sourcePoint" />
            <mxPoint x="128.19000000000005" y="472.5" as="targetPoint" />
          </mxGeometry>
        </mxCell>
        <mxCell id="34XCymCDlDvmFXix4drP-89" value="" style="shape=image;verticalLabelPosition=bottom;verticalAlign=top;imageAspect=0;aspect=0;image=data:image/svg+xml,PHN2ZyB4bWxucz0iaHR0cDovL3d3dy53My5vcmcvMjAwMC9zdmciIGlkPSJzdmc3MzYyIiB2ZXJzaW9uPSIxLjEiIHZpZXdCb3g9IjAgMCAyLjY0NTgyODIgNy45Mzc1IiBoZWlnaHQ9IjcuOTM3NW1tIiB3aWR0aD0iMi42NDU4MjgybW0iPiYjeGE7ICA8ZGVmcyBpZD0iZGVmczczNTkiLz4mI3hhOyAgPGcgdHJhbnNmb3JtPSJ0cmFuc2xhdGUoLTEwOC40NzkxNiwtNTIuOTE2NjY2KSIgaWQ9ImxheWVyOSI+JiN4YTsgICAgPHBhdGggaWQ9InBhdGgyNTAwLTUtMjItMi03IiBkPSJtIDEwOS44MDIwOCw1Mi45MTY2NjYgdiA3LjkzNzUiIHN0eWxlPSJmaWxsOm5vbmU7c3Ryb2tlOiMwMDAwMDA7c3Ryb2tlLXdpZHRoOjIuNjQ1ODM7c3Ryb2tlLWxpbmVjYXA6YnV0dDtzdHJva2UtbGluZWpvaW46bWl0ZXI7c3Ryb2tlLW1pdGVybGltaXQ6NDtzdHJva2UtZGFzaGFycmF5Om5vbmU7c3Ryb2tlLW9wYWNpdHk6MSIvPiYjeGE7ICA8L2c+JiN4YTs8L3N2Zz4=;points=[[0,0,0,0,0],[0,0.25,0,0,0],[0,0.5,0,0,0],[0,0.75,0,0,0],[0,1,0,0,0],[1,0,0,0,0],[1,0.25,0,0,0],[1,0.5,0,0,0],[1,0.75,0,0,0],[1,1,0,0,0]];fontFamily=Helvetica;fontSize=11;fontColor=default;" parent="1" vertex="1">
          <mxGeometry x="126.23000000000002" y="463" width="10" height="40" as="geometry" />
        </mxCell>
        <mxCell id="34XCymCDlDvmFXix4drP-90" value="" style="shape=image;verticalLabelPosition=bottom;verticalAlign=top;imageAspect=0;aspect=fixed;image=data:image/svg+xml,PHN2ZyB4bWxucz0iaHR0cDovL3d3dy53My5vcmcvMjAwMC9zdmciIGlkPSJzdmc3MzYyIiB2ZXJzaW9uPSIxLjEiIHZpZXdCb3g9IjAgMCA3LjkzNzQ5NjcgNy45Mzc0OTYyIiBoZWlnaHQ9IjcuOTM3NDk2Mm1tIiB3aWR0aD0iNy45Mzc0OTY3bW0iPiYjeGE7ICAmI3hhOyAgICAmI3hhOyAgJiN4YTsgIDxkZWZzIGlkPSJkZWZzNzM1OSIvPiYjeGE7ICA8ZyB0cmFuc2Zvcm09InRyYW5zbGF0ZSgtMy45ODk0MzAzLC0zMy4wNzI5MjEpIiBpZD0ibGF5ZXI1Ij4mI3hhOyAgICA8ZyBpZD0ibGF5ZXI2Ij4mI3hhOyAgICAgIDxjaXJjbGUgcj0iMi42NDU4MzMzIiBjeT0iMzcuMDQxNjY4IiBjeD0iNy45NTgxNzg1IiBpZD0icGF0aDM0NDciIHN0eWxlPSJmaWxsOiNmZmZmZmY7c3Ryb2tlOiMwMDAwMDA7c3Ryb2tlLXdpZHRoOjIuNjQ1ODM7c3Ryb2tlLWxpbmVjYXA6cm91bmQ7c3Ryb2tlLW1pdGVybGltaXQ6NDtzdHJva2UtZGFzaGFycmF5Om5vbmU7cGFpbnQtb3JkZXI6c3Ryb2tlIG1hcmtlcnMgZmlsbDtzdG9wLWNvbG9yOiMwMDAwMDAiLz4mI3hhOyAgICA8L2c+JiN4YTsgIDwvZz4mI3hhOzwvc3ZnPg==;fontFamily=Helvetica;fontSize=11;fontColor=default;" parent="1" vertex="1">
          <mxGeometry x="-532.77" y="371" width="30" height="30" as="geometry" />
        </mxCell>
        <mxCell id="34XCymCDlDvmFXix4drP-94" value="" style="shape=image;verticalLabelPosition=bottom;verticalAlign=top;imageAspect=0;aspect=fixed;image=data:image/svg+xml,PHN2ZyB4bWxucz0iaHR0cDovL3d3dy53My5vcmcvMjAwMC9zdmciIGlkPSJzdmc3MzYyIiB2ZXJzaW9uPSIxLjEiIHZpZXdCb3g9IjAgMCA3LjkzNzQ5ODEgMTUuODc1IiBoZWlnaHQ9IjE1Ljg3NW1tIiB3aWR0aD0iNy45Mzc0OTgxbW0iPiYjeGE7ICAmI3hhOyAgICAmI3hhOyAgJiN4YTsgIDxkZWZzIGlkPSJkZWZzNzM1OSIvPiYjeGE7ICA8ZyB0cmFuc2Zvcm09InRyYW5zbGF0ZSgtMjIuNTEwMjYyLC0zMy4wNzI5MTMpIiBpZD0ibGF5ZXI1Ij4mI3hhOyAgICA8ZyBpZD0ibGF5ZXI2Ij4mI3hhOyAgICAgIDxyZWN0IHRyYW5zZm9ybT0ic2NhbGUoLTEpIiByeT0iMi42NDU4MzMzIiB5PSItNDcuNjI0OTk2IiB4PSItMjkuMTI0ODQ2IiBoZWlnaHQ9IjEzLjIyOTE2NiIgd2lkdGg9IjUuMjkxNjY3OSIgaWQ9InJlY3Q5MTgiIHN0eWxlPSJmaWxsOiNmZmZmZmY7c3Ryb2tlOiMwMDAwMDA7c3Ryb2tlLXdpZHRoOjIuNjQ1ODM7c3Ryb2tlLWxpbmVjYXA6cm91bmQ7c3Ryb2tlLWRhc2hhcnJheTpub25lO3BhaW50LW9yZGVyOnN0cm9rZSBtYXJrZXJzIGZpbGw7c3RvcC1jb2xvcjojMDAwMDAwIi8+JiN4YTsgICAgPC9nPiYjeGE7ICA8L2c+JiN4YTs8L3N2Zz4=;fontFamily=Helvetica;fontSize=11;fontColor=default;" parent="1" vertex="1">
          <mxGeometry x="-147.76999999999998" y="453.0000000000001" width="30" height="60" as="geometry" />
        </mxCell>
        <mxCell id="34XCymCDlDvmFXix4drP-96" value="" style="shape=image;verticalLabelPosition=bottom;verticalAlign=top;imageAspect=0;aspect=fixed;image=data:image/svg+xml,PHN2ZyB4bWxucz0iaHR0cDovL3d3dy53My5vcmcvMjAwMC9zdmciIGlkPSJzdmc3MzYyIiB2ZXJzaW9uPSIxLjEiIHZpZXdCb3g9IjAgMCA3LjkzNzQ5ODEgMTUuODc1IiBoZWlnaHQ9IjE1Ljg3NW1tIiB3aWR0aD0iNy45Mzc0OTgxbW0iPiYjeGE7ICAmI3hhOyAgICAmI3hhOyAgJiN4YTsgIDxkZWZzIGlkPSJkZWZzNzM1OSIvPiYjeGE7ICA8ZyB0cmFuc2Zvcm09InRyYW5zbGF0ZSgtMjIuNTEwMjYyLC0zMy4wNzI5MTMpIiBpZD0ibGF5ZXI1Ij4mI3hhOyAgICA8ZyBpZD0ibGF5ZXI2Ij4mI3hhOyAgICAgIDxyZWN0IHRyYW5zZm9ybT0ic2NhbGUoLTEpIiByeT0iMi42NDU4MzMzIiB5PSItNDcuNjI0OTk2IiB4PSItMjkuMTI0ODQ2IiBoZWlnaHQ9IjEzLjIyOTE2NiIgd2lkdGg9IjUuMjkxNjY3OSIgaWQ9InJlY3Q5MTgiIHN0eWxlPSJmaWxsOiNmZmZmZmY7c3Ryb2tlOiMwMDAwMDA7c3Ryb2tlLXdpZHRoOjIuNjQ1ODM7c3Ryb2tlLWxpbmVjYXA6cm91bmQ7c3Ryb2tlLWRhc2hhcnJheTpub25lO3BhaW50LW9yZGVyOnN0cm9rZSBtYXJrZXJzIGZpbGw7c3RvcC1jb2xvcjojMDAwMDAwIi8+JiN4YTsgICAgPC9nPiYjeGE7ICA8L2c+JiN4YTs8L3N2Zz4=;fontFamily=Helvetica;fontSize=11;fontColor=default;" parent="1" vertex="1">
          <mxGeometry x="6.230000000000018" y="453.0000000000001" width="30" height="60" as="geometry" />
        </mxCell>
        <mxCell id="34XCymCDlDvmFXix4drP-117" value="" style="group" parent="1" connectable="0" vertex="1">
          <mxGeometry x="-191.62" y="400" width="126.62000000000003" height="50" as="geometry" />
        </mxCell>
        <mxCell id="34XCymCDlDvmFXix4drP-74" value="ID Mapping&lt;br&gt;(g:Profiler)" style="text;html=1;align=center;verticalAlign=middle;resizable=0;points=[];autosize=1;strokeColor=none;fillColor=none;fontSize=15;fontFamily=Inter;fontSource=https%3A%2F%2Ffonts.googleapis.com%2Fcss%3Ffamily%3DInter;fontStyle=1" parent="34XCymCDlDvmFXix4drP-117" vertex="1">
          <mxGeometry x="26.620000000000033" width="100" height="50" as="geometry" />
        </mxCell>
        <mxCell id="34XCymCDlDvmFXix4drP-113" value="" style="shape=image;verticalLabelPosition=bottom;labelBackgroundColor=default;verticalAlign=top;aspect=fixed;imageAspect=0;image=data:image/svg+xml,PHN2ZyB4bWxucz0iaHR0cDovL3d3dy53My5vcmcvMjAwMC9zdmciIHZpZXdCb3g9IjAgMCAyNCAyNCIgaGVpZ2h0PSIyNCIgd2lkdGg9IjI0Ij48cGF0aCBkPSJNMTggM2EzIDMgMCAxIDEgMCA2aC0zYTMgMyAwIDAgMS0yLjgyOS0ySDExYy0xLjEgMC0yIC45LTIgMnYuMTcxYTMuMDAxIDMuMDAxIDAgMCAxIDAgNS42NThWMTVjMCAxLjEuOSAyIDIgMmgxLjE3QTMgMyAwIDAgMSAxNSAxNWgzYTMgMyAwIDEgMSAwIDZoLTNhMyAzIDAgMCAxLTIuODI5LTJIMTFjLTIuMjEgMC00LTEuNzktNC00SDVhMyAzIDAgMSAxIDAtNmgyYTQgNCAwIDAgMSA0LTRoMS4xN0EzIDMgMCAwIDEgMTUgM3ptMCAxNGgtM2ExIDEgMCAxIDAgMCAyaDNhMSAxIDAgMSAwIDAtMk04IDExSDVhMSAxIDAgMSAwIDAgMmgzYTEgMSAwIDEgMCAwLTJtMTAtNmgtM2ExIDEgMCAxIDAgMCAyaDNhMSAxIDAgMSAwIDAtMiIgZmlsbD0iY3VycmVudENvbG9yIi8+PC9zdmc+;flipV=1;flipH=1;" parent="34XCymCDlDvmFXix4drP-117" vertex="1">
          <mxGeometry y="9" width="34" height="34" as="geometry" />
        </mxCell>
        <mxCell id="34XCymCDlDvmFXix4drP-118" value="" style="group" parent="1" connectable="0" vertex="1">
          <mxGeometry x="-380" y="515" width="177" height="50" as="geometry" />
        </mxCell>
        <mxCell id="34XCymCDlDvmFXix4drP-62" value="normalisation&lt;br&gt;(DESeq2 / EdgeR)" style="text;html=1;align=center;verticalAlign=middle;resizable=0;points=[];autosize=1;strokeColor=none;fillColor=none;fontSize=15;fontFamily=Inter;fontSource=https%3A%2F%2Ffonts.googleapis.com%2Fcss%3Ffamily%3DInter;fontStyle=1" parent="34XCymCDlDvmFXix4drP-118" vertex="1">
          <mxGeometry x="27" width="150" height="50" as="geometry" />
        </mxCell>
        <mxCell id="34XCymCDlDvmFXix4drP-114" value="" style="shape=image;verticalLabelPosition=bottom;labelBackgroundColor=default;verticalAlign=top;aspect=fixed;imageAspect=0;image=data:image/svg+xml,PHN2ZyB4bWxucz0iaHR0cDovL3d3dy53My5vcmcvMjAwMC9zdmciIHZpZXdCb3g9IjAgMCAyNCAyNCIgaGVpZ2h0PSIyNCIgd2lkdGg9IjI0Ij48cGF0aCBkPSJNOS45NiAxMS4zMUMxMC44MiA4LjEgMTEuNSA2IDEzIDZzMi4xOCAyLjEgMy4wNCA1LjMxQzE3IDE0LjkyIDE4LjEgMTkgMjIgMTl2LTJjLTIuMiAwLTMtMi40Ni00LjAzLTYuMkMxNy4wOCA3LjQ2IDE2LjE1IDQgMTMgNHMtNC4wOCAzLjQ2LTQuOTcgNi44QzcuMDMgMTQuNTQgNi4yIDE3IDQgMTdWMkgydjIwaDIwdi0ySDR2LTFjMy45IDAgNS00LjA4IDUuOTYtNy42OSIgZmlsbD0iY3VycmVudENvbG9yIi8+PC9zdmc+;" parent="34XCymCDlDvmFXix4drP-118" vertex="1">
          <mxGeometry y="10" width="34" height="34" as="geometry" />
        </mxCell>
        <mxCell id="34XCymCDlDvmFXix4drP-121" value="" style="group" parent="1" connectable="0" vertex="1">
          <mxGeometry x="-50" y="515" width="146.23" height="50" as="geometry" />
        </mxCell>
        <mxCell id="34XCymCDlDvmFXix4drP-86" value="variation &lt;br&gt;coefficients" style="text;html=1;align=center;verticalAlign=middle;resizable=0;points=[];autosize=1;strokeColor=none;fillColor=none;fontSize=15;fontFamily=Inter;fontSource=https%3A%2F%2Ffonts.googleapis.com%2Fcss%3Ffamily%3DInter;fontStyle=1" parent="34XCymCDlDvmFXix4drP-121" vertex="1">
          <mxGeometry x="36.23" width="110" height="50" as="geometry" />
        </mxCell>
        <mxCell id="34XCymCDlDvmFXix4drP-120" value="" style="shape=image;verticalLabelPosition=bottom;labelBackgroundColor=default;verticalAlign=top;aspect=fixed;imageAspect=0;image=data:image/svg+xml,PHN2ZyB4bWxucz0iaHR0cDovL3d3dy53My5vcmcvMjAwMC9zdmciIHZpZXdCb3g9IjAgMCAzMiAzMiIgaGVpZ2h0PSIzMiIgd2lkdGg9IjMyIj48cGF0aCBkPSJNMTQgMTBWOEg4djJoMnY0LjE4NGEyLjk4MyAyLjk4MyAwIDAgMCAwIDUuNjMyVjI0SDh2Mmg2di0yaC0ydi00LjE4NGEyLjk4MyAyLjk4MyAwIDAgMCAwLTUuNjMyVjEwem0xMi00VjRoLTZ2MmgydjIuMTg0YTIuOTgzIDIuOTgzIDAgMCAwIDAgNS42MzJWMThoLTJ2Mmg2di0yaC0ydi00LjE4NGEyLjk4MyAyLjk4MyAwIDAgMCAwLTUuNjMyVjZ6IiBmaWxsPSJjdXJyZW50Q29sb3IiLz48cGF0aCBkPSJNMzAgMzBINGEyIDIgMCAwIDEtMi0yVjJoMnYyNmgyNloiIGZpbGw9ImN1cnJlbnRDb2xvciIvPjwvc3ZnPg==;" parent="34XCymCDlDvmFXix4drP-121" vertex="1">
          <mxGeometry x="5" y="5" width="40" height="40" as="geometry" />
        </mxCell>
        <mxCell id="34XCymCDlDvmFXix4drP-124" value="&lt;font data-font-src=&quot;https://fonts.googleapis.com/css?family=Maven+Pro&quot;&gt;Species (mandatory)&lt;/font&gt;" style="text;html=1;align=center;verticalAlign=middle;resizable=0;points=[];autosize=1;strokeColor=none;fillColor=none;fontSize=15;fontFamily=Inter;fontSource=https%3A%2F%2Ffonts.googleapis.com%2Fcss%3Ffamily%3DInter;fontStyle=0" parent="1" vertex="1">
          <mxGeometry x="-719" y="629.5" width="170" height="30" as="geometry" />
        </mxCell>
        <mxCell id="34XCymCDlDvmFXix4drP-128" value="" style="shape=image;verticalLabelPosition=bottom;labelBackgroundColor=default;verticalAlign=top;aspect=fixed;imageAspect=0;image=data:image/svg+xml,PHN2ZyB4bWxucz0iaHR0cDovL3d3dy53My5vcmcvMjAwMC9zdmciIHZpZXdCb3g9IjAgMCAyNCAyNCIgaGVpZ2h0PSIyZW0iIHdpZHRoPSIyZW0iPiYjeGE7CTxwYXRoIGQ9Ik0zLjYxNiAxOC4wMjVxLS42NzIgMC0xLjE0NC0uNDcyVDIgMTYuNDF2LTEuMzg1cTAtLjIxMy4xNDMtLjM1N3QuMzU3LS4xNDN0LjM1Ny4xNDN0LjE0My4zNTd2MS4zODVxMCAuMjY5LjE3My40NDJ0LjQ0My4xNzNoMTYuNzY5cS4yNjkgMCAuNDQyLS4xNzNUMjEgMTYuNDF2LTEuMzg1cTAtLjIxMy4xNDMtLjM1N3QuMzU3LS4xNDN0LjM1Ny4xNDN0LjE0My4zNTd2MS4zODVxMCAuNjctLjQ3MiAxLjE0M3EtLjQ3Mi40NzItMS4xNDMuNDcyem00LjAwMy0yLjgycS0xLjA3MSAwLTEuNzAzLS41NzlxLS42MzMtLjU4LS42MzMtMS41NjRxMC0xLjA1Ljc0NS0xLjcwM3QxLjk0My0uNjUzcS41MTggMCAxLjAxNS4xMDdxLjQ5Ny4xMDYuODY2LjMwNnYtLjU0MnEwLS45NjMtLjQ3Mi0xLjQ2cS0uNDcyLS40OTYtMS4zODgtLjQ5NnEtLjQzMyAwLS44MDguMTEzcS0uMzc2LjExMi0uNzQ4LjM1cS0uMTQ4LjA5OS0uMzI0LjEwNXQtLjMwNC0uMTEycS0uMTMtLjExOC0uMTMxLS4yOTNxLS4wMDItLjE3Ni4xNC0uMjhxLjQ3LS4zNjcuOTk1LS41MjVxLjUyNi0uMTU4IDEuMTY3LS4xNThxMS4zOTYgMCAyLjA3Ny43MTl0LjY4IDIuMTM3djMuODY3cTAgLjE4NS0uMTI2LjMxdC0uMzEuMTI3cS0uMTkgMC0uMzE2LS4xMjZ0LS4xMjYtLjMxNnYtLjU2MmgtLjA5NHEtLjM0NS42MTUtLjg4NS45MjJ0LTEuMjYuMzA3bS41MTItMy43MjlxLS44OTYgMC0xLjQxNy40MThxLS41MjIuNDE5LS41MjIgMS4xNDdxMCAuNjM1LjQwNCAxLjAwNXQxLjA2Mi4zN3EuOTUzIDAgMS41NzQtLjcxNnEuNjItLjcxNi42Mi0xLjgwNXEtLjMzLS4yLS44LS4zMXQtLjkyMS0uMTA5bTcuNzkgMy43NDhxLS43OTQgMC0xLjM2LS4zMzRxLS41NjctLjMzNS0uODMyLS44MTZoLS4wNTZ2LjY1MnEwIC4xNjUtLjExNi4yODJxLS4xMTcuMTE2LS4yODIuMTE2dC0uMjk0LS4xMjl0LS4xMjktLjI5NFY1LjQyM3EwLS4xOS4xMjktLjMycS4xMjktLjEyOC4zMTktLjEyOHQuMzIuMTI5cS4xMjguMTI5LjEyOC4zMTl2Mi44OTZsLS4wNzUgMWguMDU2cS4zMDYtLjQ3MS44Ni0uODFxLjU1My0uMzQgMS4zNTItLjM0cTEuMzExIDAgMi4xMDEuOTc3dC43OSAyLjU5M3EwIDEuNTc3LS43NzcgMi41MzFxLS43NzguOTU1LTIuMTM0Ljk1NU0xNS44NSA5LjA1cS0uOTYxIDAtMS41Ny43NzZ0LS42MDcgMS45MDdxMCAxLjEzNi42MDggMS45dDEuNTY5Ljc2M3QxLjUwNS0uNzM0dC41NDMtMS45M3QtLjU0My0xLjkzOHQtMS41MDUtLjc0NCIgZmlsbD0iY3VycmVudENvbG9yIi8+JiN4YTs8L3N2Zz4=;" parent="1" vertex="1">
          <mxGeometry x="-632" y="651.5" width="2" height="2" as="geometry" />
        </mxCell>
        <mxCell id="34XCymCDlDvmFXix4drP-131" value="" style="shape=image;verticalLabelPosition=bottom;verticalAlign=top;imageAspect=0;aspect=fixed;image=data:image/svg+xml,PHN2ZyB4bWxucz0iaHR0cDovL3d3dy53My5vcmcvMjAwMC9zdmciIGlkPSJzdmc3MzYyIiB2ZXJzaW9uPSIxLjEiIHZpZXdCb3g9IjAgMCA3LjkzNzQ5ODEgNy45Mzc1IiBoZWlnaHQ9IjcuOTM3NW1tIiB3aWR0aD0iNy45Mzc0OTgxbW0iPiYjeGE7ICAmI3hhOyAgICAmI3hhOyAgJiN4YTsgIDxkZWZzIGlkPSJkZWZzNzM1OSIvPiYjeGE7ICA8ZyB0cmFuc2Zvcm09InRyYW5zbGF0ZSgtMy45ODk0Mjk4LC02Mi4xNzcwODQpIiBpZD0ibGF5ZXI1Ij4mI3hhOyAgICA8ZyBpZD0ibGF5ZXI3Ij4mI3hhOyAgICAgIDxyZWN0IHJ5PSIwLjc5Mzc0ODc0IiB5PSI2My41IiB4PSI1LjMxMjM0NDYiIGhlaWdodD0iNS4yOTE2NjU2IiB3aWR0aD0iNS4yOTE2Njc5IiBpZD0icmVjdDkxOC05LTciIHN0eWxlPSJmaWxsOiNmZmZmZmY7c3Ryb2tlOiMwMDAwMDA7c3Ryb2tlLXdpZHRoOjIuNjQ1ODM7c3Ryb2tlLWxpbmVjYXA6cm91bmQ7cGFpbnQtb3JkZXI6c3Ryb2tlIG1hcmtlcnMgZmlsbDtzdG9wLWNvbG9yOiMwMDAwMDAiLz4mI3hhOyAgICA8L2c+JiN4YTsgIDwvZz4mI3hhOzwvc3ZnPg==;fontFamily=Helvetica;fontSize=11;fontColor=default;" parent="1" vertex="1">
          <mxGeometry x="-738" y="634.5" width="22" height="22" as="geometry" />
        </mxCell>
        <mxCell id="34XCymCDlDvmFXix4drP-134" value="&lt;font data-font-src=&quot;https://fonts.googleapis.com/css?family=Maven+Pro&quot;&gt;Expression Atlas keywords&lt;/font&gt;" style="text;html=1;align=center;verticalAlign=middle;resizable=0;points=[];autosize=1;strokeColor=none;fillColor=none;fontSize=15;fontFamily=Inter;fontSource=https%3A%2F%2Ffonts.googleapis.com%2Fcss%3Ffamily%3DInter;fontStyle=0" parent="1" vertex="1">
          <mxGeometry x="-718" y="669.5" width="210" height="30" as="geometry" />
        </mxCell>
        <mxCell id="34XCymCDlDvmFXix4drP-137" value="&lt;font data-font-src=&quot;https://fonts.googleapis.com/css?family=Maven+Pro&quot;&gt;Expression Atlas accessions&lt;/font&gt;" style="text;html=1;align=center;verticalAlign=middle;resizable=0;points=[];autosize=1;strokeColor=none;fillColor=none;fontSize=15;fontFamily=Inter;fontSource=https%3A%2F%2Ffonts.googleapis.com%2Fcss%3Ffamily%3DInter;fontStyle=0" parent="1" vertex="1">
          <mxGeometry x="-718" y="709.5" width="220" height="30" as="geometry" />
        </mxCell>
        <mxCell id="34XCymCDlDvmFXix4drP-139" value="&lt;font data-font-src=&quot;https://fonts.googleapis.com/css?family=Maven+Pro&quot;&gt;Local datasets&lt;/font&gt;" style="text;html=1;align=center;verticalAlign=middle;resizable=0;points=[];autosize=1;strokeColor=none;fillColor=none;fontSize=15;fontFamily=Inter;fontSource=https%3A%2F%2Ffonts.googleapis.com%2Fcss%3Ffamily%3DInter;fontStyle=0" parent="1" vertex="1">
          <mxGeometry x="-722" y="779.5" width="130" height="30" as="geometry" />
        </mxCell>
        <mxCell id="34XCymCDlDvmFXix4drP-156" value="" style="shape=image;verticalLabelPosition=bottom;verticalAlign=top;imageAspect=0;aspect=fixed;image=data:image/svg+xml,PHN2ZyB4bWxucz0iaHR0cDovL3d3dy53My5vcmcvMjAwMC9zdmciIGlkPSJzdmc3MzYyIiB2ZXJzaW9uPSIxLjEiIHZpZXdCb3g9IjAgMCA3LjkzNzQ5ODEgNy45Mzc1IiBoZWlnaHQ9IjcuOTM3NW1tIiB3aWR0aD0iNy45Mzc0OTgxbW0iPiYjeGE7ICAmI3hhOyAgICAmI3hhOyAgJiN4YTsgIDxkZWZzIGlkPSJkZWZzNzM1OSIvPiYjeGE7ICA8ZyB0cmFuc2Zvcm09InRyYW5zbGF0ZSgtMy45ODk0Mjk4LC02Mi4xNzcwODQpIiBpZD0ibGF5ZXI1Ij4mI3hhOyAgICA8ZyBpZD0ibGF5ZXI3Ij4mI3hhOyAgICAgIDxyZWN0IHJ5PSIwLjc5Mzc0ODc0IiB5PSI2My41IiB4PSI1LjMxMjM0NDYiIGhlaWdodD0iNS4yOTE2NjU2IiB3aWR0aD0iNS4yOTE2Njc5IiBpZD0icmVjdDkxOC05LTciIHN0eWxlPSJmaWxsOiNmZmZmZmY7c3Ryb2tlOiMwMDAwMDA7c3Ryb2tlLXdpZHRoOjIuNjQ1ODM7c3Ryb2tlLWxpbmVjYXA6cm91bmQ7cGFpbnQtb3JkZXI6c3Ryb2tlIG1hcmtlcnMgZmlsbDtzdG9wLWNvbG9yOiMwMDAwMDAiLz4mI3hhOyAgICA8L2c+JiN4YTsgIDwvZz4mI3hhOzwvc3ZnPg==;fontFamily=Helvetica;fontSize=11;fontColor=default;" parent="1" vertex="1">
          <mxGeometry x="-738" y="673.5" width="22" height="22" as="geometry" />
        </mxCell>
        <mxCell id="34XCymCDlDvmFXix4drP-157" value="" style="shape=image;verticalLabelPosition=bottom;verticalAlign=top;imageAspect=0;aspect=fixed;image=data:image/svg+xml,PHN2ZyB4bWxucz0iaHR0cDovL3d3dy53My5vcmcvMjAwMC9zdmciIGlkPSJzdmc3MzYyIiB2ZXJzaW9uPSIxLjEiIHZpZXdCb3g9IjAgMCA3LjkzNzQ5ODEgNy45Mzc1IiBoZWlnaHQ9IjcuOTM3NW1tIiB3aWR0aD0iNy45Mzc0OTgxbW0iPiYjeGE7ICAmI3hhOyAgICAmI3hhOyAgJiN4YTsgIDxkZWZzIGlkPSJkZWZzNzM1OSIvPiYjeGE7ICA8ZyB0cmFuc2Zvcm09InRyYW5zbGF0ZSgtMy45ODk0Mjk4LC02Mi4xNzcwODQpIiBpZD0ibGF5ZXI1Ij4mI3hhOyAgICA8ZyBpZD0ibGF5ZXI3Ij4mI3hhOyAgICAgIDxyZWN0IHJ5PSIwLjc5Mzc0ODc0IiB5PSI2My41IiB4PSI1LjMxMjM0NDYiIGhlaWdodD0iNS4yOTE2NjU2IiB3aWR0aD0iNS4yOTE2Njc5IiBpZD0icmVjdDkxOC05LTciIHN0eWxlPSJmaWxsOiNmZmZmZmY7c3Ryb2tlOiMwMDAwMDA7c3Ryb2tlLXdpZHRoOjIuNjQ1ODM7c3Ryb2tlLWxpbmVjYXA6cm91bmQ7cGFpbnQtb3JkZXI6c3Ryb2tlIG1hcmtlcnMgZmlsbDtzdG9wLWNvbG9yOiMwMDAwMDAiLz4mI3hhOyAgICA8L2c+JiN4YTsgIDwvZz4mI3hhOzwvc3ZnPg==;fontFamily=Helvetica;fontSize=11;fontColor=default;" parent="1" vertex="1">
          <mxGeometry x="-738" y="713.5" width="22" height="22" as="geometry" />
        </mxCell>
        <mxCell id="34XCymCDlDvmFXix4drP-158" value="" style="shape=image;verticalLabelPosition=bottom;verticalAlign=top;imageAspect=0;aspect=fixed;image=data:image/svg+xml,PHN2ZyB4bWxucz0iaHR0cDovL3d3dy53My5vcmcvMjAwMC9zdmciIGlkPSJzdmc3MzYyIiB2ZXJzaW9uPSIxLjEiIHZpZXdCb3g9IjAgMCA3LjkzNzQ5ODEgNy45Mzc1IiBoZWlnaHQ9IjcuOTM3NW1tIiB3aWR0aD0iNy45Mzc0OTgxbW0iPiYjeGE7ICAmI3hhOyAgICAmI3hhOyAgJiN4YTsgIDxkZWZzIGlkPSJkZWZzNzM1OSIvPiYjeGE7ICA8ZyB0cmFuc2Zvcm09InRyYW5zbGF0ZSgtMy45ODk0Mjk4LC02Mi4xNzcwODQpIiBpZD0ibGF5ZXI1Ij4mI3hhOyAgICA8ZyBpZD0ibGF5ZXI3Ij4mI3hhOyAgICAgIDxyZWN0IHJ5PSIwLjc5Mzc0ODc0IiB5PSI2My41IiB4PSI1LjMxMjM0NDYiIGhlaWdodD0iNS4yOTE2NjU2IiB3aWR0aD0iNS4yOTE2Njc5IiBpZD0icmVjdDkxOC05LTciIHN0eWxlPSJmaWxsOiNmZmZmZmY7c3Ryb2tlOiMwMDAwMDA7c3Ryb2tlLXdpZHRoOjIuNjQ1ODM7c3Ryb2tlLWxpbmVjYXA6cm91bmQ7cGFpbnQtb3JkZXI6c3Ryb2tlIG1hcmtlcnMgZmlsbDtzdG9wLWNvbG9yOiMwMDAwMDAiLz4mI3hhOyAgICA8L2c+JiN4YTsgIDwvZz4mI3hhOzwvc3ZnPg==;fontFamily=Helvetica;fontSize=11;fontColor=default;" parent="1" vertex="1">
          <mxGeometry x="-738" y="783.5" width="22" height="22" as="geometry" />
        </mxCell>
        <mxCell id="34XCymCDlDvmFXix4drP-159" value="PATHWAYS" style="text;html=1;align=center;verticalAlign=middle;resizable=0;points=[];autosize=1;strokeColor=none;fillColor=none;fontSize=17;fontFamily=Inter;fontSource=https%3A%2F%2Ffonts.googleapis.com%2Fcss%3Ffamily%3DInter;fontStyle=1" parent="1" vertex="1">
          <mxGeometry x="-417.81" y="590" width="120" height="30" as="geometry" />
        </mxCell>
        <mxCell id="34XCymCDlDvmFXix4drP-161" value="" style="endArrow=none;html=1;rounded=1;strokeWidth=10;strokeColor=#FA6863;" parent="1" edge="1">
          <mxGeometry width="50" height="50" relative="1" as="geometry">
            <mxPoint x="-402.81" y="721.38" as="sourcePoint" />
            <mxPoint x="-312.81" y="721" as="targetPoint" />
          </mxGeometry>
        </mxCell>
        <mxCell id="34XCymCDlDvmFXix4drP-163" value="" style="endArrow=none;html=1;rounded=1;strokeWidth=10;strokeColor=#AE63FA;curved=0;" parent="1" edge="1">
          <mxGeometry width="50" height="50" relative="1" as="geometry">
            <mxPoint x="-402.58" y="678" as="sourcePoint" />
            <mxPoint x="-312.58000000000004" y="678" as="targetPoint" />
          </mxGeometry>
        </mxCell>
        <mxCell id="34XCymCDlDvmFXix4drP-165" value="&lt;font data-font-src=&quot;https://fonts.googleapis.com/css?family=Maven+Pro&quot;&gt;Fetch EAtlas accessions from species (and keywords)&lt;/font&gt;" style="text;html=1;align=left;verticalAlign=middle;resizable=0;points=[];autosize=1;strokeColor=none;fillColor=none;fontSize=15;fontFamily=Inter;fontSource=https%3A%2F%2Ffonts.googleapis.com%2Fcss%3Ffamily%3DInter;fontStyle=0" parent="1" vertex="1">
          <mxGeometry x="-298.81" y="661" width="410" height="30" as="geometry" />
        </mxCell>
        <mxCell id="34XCymCDlDvmFXix4drP-166" value="" style="shape=stencil(nVTbboMwDP0aHhs5NiHwOLHtP1ibrtFoQIFe9vczJGiL2m5rrbxwbB/7OCYZ1cOu6U2G0Ay9WY8ZPWeIx8bb5q1lGNmzC6DMhWSDPKCngGIpcDIZ0GH03Yc52c0Ys6zbGW/HyUsvGTxxzHSoXnfOcUHbuSHx/PAzWWMd58I5kEEo8hkbCl898+/NaHyCZvj6b1qZ0MI9tFQzcksK1dvOm3ffHdzmajNb27ZhYr903DfTLC8ci3vfHc23lFzoIi/LiswKdDqt9PquV1tIW+tSUqCiosf51gcfupQhWYtCapCoIqW8ynnGCINQJbHF6AWWQqsK8zJGU0qiIBrGNFpqg5qtivaIAMkKiOcsUwEoSMkyX7ZlEYAgNCpQMhWwAgFASuWFTiUgCaZRUqedc/j9l7f8oOnt/UE1r/WNxeMn49bKzmkXOz+j4ZmZgS8=);whiteSpace=wrap;html=1;strokeWidth=10;fillColor=none;strokeColor=#AE63FA;flipV=1;" parent="1" vertex="1">
          <mxGeometry x="-367.25" y="434.0000000000001" width="80" height="40" as="geometry" />
        </mxCell>
        <mxCell id="34XCymCDlDvmFXix4drP-167" value="" style="shape=stencil(nVTbboMwDP0aHhs5NiHwOLHtP1ibrtFoQIFe9vczJGiL2m5rrbxwbB/7OCYZ1cOu6U2G0Ay9WY8ZPWeIx8bb5q1lGNmzC6DMhWSDPKCngGIpcDIZ0GH03Yc52c0Ys6zbGW/HyUsvGTxxzHSoXnfOcUHbuSHx/PAzWWMd58I5kEEo8hkbCl898+/NaHyCZvj6b1qZ0MI9tFQzcksK1dvOm3ffHdzmajNb27ZhYr903DfTLC8ci3vfHc23lFzoIi/LiswKdDqt9PquV1tIW+tSUqCiosf51gcfupQhWYtCapCoIqW8ynnGCINQJbHF6AWWQqsK8zJGU0qiIBrGNFpqg5qtivaIAMkKiOcsUwEoSMkyX7ZlEYAgNCpQMhWwAgFASuWFTiUgCaZRUqedc/j9l7f8oOnt/UE1r/WNxeMn49bKzmkXOz+j4ZmZgS8=);whiteSpace=wrap;html=1;strokeWidth=10;fillColor=none;strokeColor=#fa6863;flipV=1;" parent="1" vertex="1">
          <mxGeometry x="-370" y="443.0000000000001" width="80" height="40" as="geometry" />
        </mxCell>
        <mxCell id="34XCymCDlDvmFXix4drP-97" value="" style="shape=image;verticalLabelPosition=bottom;verticalAlign=top;imageAspect=0;aspect=fixed;image=data:image/svg+xml,PHN2ZyB4bWxucz0iaHR0cDovL3d3dy53My5vcmcvMjAwMC9zdmciIGlkPSJzdmc3MzYyIiB2ZXJzaW9uPSIxLjEiIHZpZXdCb3g9IjAgMCA3LjkzNzQ5NjcgNy45Mzc0OTYyIiBoZWlnaHQ9IjcuOTM3NDk2Mm1tIiB3aWR0aD0iNy45Mzc0OTY3bW0iPiYjeGE7ICAmI3hhOyAgICAmI3hhOyAgJiN4YTsgIDxkZWZzIGlkPSJkZWZzNzM1OSIvPiYjeGE7ICA8ZyB0cmFuc2Zvcm09InRyYW5zbGF0ZSgtMy45ODk0MzAzLC0zMy4wNzI5MjEpIiBpZD0ibGF5ZXI1Ij4mI3hhOyAgICA8ZyBpZD0ibGF5ZXI2Ij4mI3hhOyAgICAgIDxjaXJjbGUgcj0iMi42NDU4MzMzIiBjeT0iMzcuMDQxNjY4IiBjeD0iNy45NTgxNzg1IiBpZD0icGF0aDM0NDciIHN0eWxlPSJmaWxsOiNmZmZmZmY7c3Ryb2tlOiMwMDAwMDA7c3Ryb2tlLXdpZHRoOjIuNjQ1ODM7c3Ryb2tlLWxpbmVjYXA6cm91bmQ7c3Ryb2tlLW1pdGVybGltaXQ6NDtzdHJva2UtZGFzaGFycmF5Om5vbmU7cGFpbnQtb3JkZXI6c3Ryb2tlIG1hcmtlcnMgZmlsbDtzdG9wLWNvbG9yOiMwMDAwMDAiLz4mI3hhOyAgICA8L2c+JiN4YTsgIDwvZz4mI3hhOzwvc3ZnPg==;fontFamily=Helvetica;fontSize=11;fontColor=default;" parent="1" vertex="1">
          <mxGeometry x="-392.75" y="423" width="30" height="30" as="geometry" />
        </mxCell>
        <mxCell id="34XCymCDlDvmFXix4drP-91" value="" style="shape=image;verticalLabelPosition=bottom;verticalAlign=top;imageAspect=0;aspect=fixed;image=data:image/svg+xml,PHN2ZyB4bWxucz0iaHR0cDovL3d3dy53My5vcmcvMjAwMC9zdmciIGlkPSJzdmc3MzYyIiB2ZXJzaW9uPSIxLjEiIHZpZXdCb3g9IjAgMCA3LjkzNzQ5ODEgMTUuODc1IiBoZWlnaHQ9IjE1Ljg3NW1tIiB3aWR0aD0iNy45Mzc0OTgxbW0iPiYjeGE7ICAmI3hhOyAgICAmI3hhOyAgJiN4YTsgIDxkZWZzIGlkPSJkZWZzNzM1OSIvPiYjeGE7ICA8ZyB0cmFuc2Zvcm09InRyYW5zbGF0ZSgtMjIuNTEwMjYyLC0zMy4wNzI5MTMpIiBpZD0ibGF5ZXI1Ij4mI3hhOyAgICA8ZyBpZD0ibGF5ZXI2Ij4mI3hhOyAgICAgIDxyZWN0IHRyYW5zZm9ybT0ic2NhbGUoLTEpIiByeT0iMi42NDU4MzMzIiB5PSItNDcuNjI0OTk2IiB4PSItMjkuMTI0ODQ2IiBoZWlnaHQ9IjEzLjIyOTE2NiIgd2lkdGg9IjUuMjkxNjY3OSIgaWQ9InJlY3Q5MTgiIHN0eWxlPSJmaWxsOiNmZmZmZmY7c3Ryb2tlOiMwMDAwMDA7c3Ryb2tlLXdpZHRoOjIuNjQ1ODM7c3Ryb2tlLWxpbmVjYXA6cm91bmQ7c3Ryb2tlLWRhc2hhcnJheTpub25lO3BhaW50LW9yZGVyOnN0cm9rZSBtYXJrZXJzIGZpbGw7c3RvcC1jb2xvcjojMDAwMDAwIi8+JiN4YTsgICAgPC9nPiYjeGE7ICA8L2c+JiN4YTs8L3N2Zz4=;fontFamily=Helvetica;fontSize=11;fontColor=default;" parent="1" vertex="1">
          <mxGeometry x="-304.75" y="453.0000000000001" width="30" height="60" as="geometry" />
        </mxCell>
        <mxCell id="34XCymCDlDvmFXix4drP-168" value="&lt;font data-font-src=&quot;https://fonts.googleapis.com/css?family=Maven+Pro&quot;&gt;All pathways can be present in the same run&lt;/font&gt;" style="text;html=1;align=center;verticalAlign=middle;resizable=0;points=[];autosize=1;strokeColor=none;fillColor=none;fontSize=15;fontFamily=Inter;fontSource=https%3A%2F%2Ffonts.googleapis.com%2Fcss%3Ffamily%3DInter;fontStyle=0" parent="1" vertex="1">
          <mxGeometry x="-417.81" y="621" width="340" height="30" as="geometry" />
        </mxCell>
        <mxCell id="34XCymCDlDvmFXix4drP-169" value="&lt;font data-font-src=&quot;https://fonts.googleapis.com/css?family=Maven+Pro&quot;&gt;EAtlas accessions provided&lt;/font&gt;" style="text;html=1;align=left;verticalAlign=middle;resizable=0;points=[];autosize=1;strokeColor=none;fillColor=none;fontSize=15;fontFamily=Inter;fontSource=https%3A%2F%2Ffonts.googleapis.com%2Fcss%3Ffamily%3DInter;fontStyle=0" parent="1" vertex="1">
          <mxGeometry x="-299.03999999999996" y="704" width="220" height="30" as="geometry" />
        </mxCell>
        <mxCell id="34XCymCDlDvmFXix4drP-170" value="&lt;font data-font-src=&quot;https://fonts.googleapis.com/css?family=Maven+Pro&quot;&gt;Local datasets&lt;/font&gt;" style="text;html=1;align=left;verticalAlign=middle;resizable=0;points=[];autosize=1;strokeColor=none;fillColor=none;fontSize=15;fontFamily=Inter;fontSource=https%3A%2F%2Ffonts.googleapis.com%2Fcss%3Ffamily%3DInter;fontStyle=0" parent="1" vertex="1">
          <mxGeometry x="-298.81" y="747" width="130" height="30" as="geometry" />
        </mxCell>
      </root>
    </mxGraphModel>
  </diagram>
</mxfile>
